<?xml version="1.0" encoding="utf-8" standalone="no"?>
<!DOCTYPE svg PUBLIC "-//W3C//DTD SVG 1.1//EN"
  "http://www.w3.org/Graphics/SVG/1.1/DTD/svg11.dtd">
<svg xmlns:xlink="http://www.w3.org/1999/xlink" width="864pt" height="1872pt" viewBox="0 0 864 1872" xmlns="http://www.w3.org/2000/svg" version="1.1">
 <metadata>
  <rdf:RDF xmlns:dc="http://purl.org/dc/elements/1.1/" xmlns:cc="http://creativecommons.org/ns#" xmlns:rdf="http://www.w3.org/1999/02/22-rdf-syntax-ns#">
   <cc:Work>
    <dc:type rdf:resource="http://purl.org/dc/dcmitype/StillImage"/>
    <dc:date>2022-06-29T18:45:26.603912</dc:date>
    <dc:format>image/svg+xml</dc:format>
    <dc:creator>
     <cc:Agent>
      <dc:title>Matplotlib v3.5.1, https://matplotlib.org/</dc:title>
     </cc:Agent>
    </dc:creator>
   </cc:Work>
  </rdf:RDF>
 </metadata>
 <defs>
  <style type="text/css">*{stroke-linejoin: round; stroke-linecap: butt}</style>
 </defs>
 <g id="figure_1">
  <g id="patch_1">
   <path d="M 0 1872
L 864 1872
L 864 0
L 0 0
z
" style="fill: #ffffff"/>
  </g>
  <g id="axes_1">
   <g id="patch_2">
    <path d="M 97.26875 332.804167
L 740.254 332.804167
L 740.254 33.225
L 97.26875 33.225
z
" style="fill: #ffffff"/>
   </g>
   <g id="PolyCollection_1">
    <defs>
     <path id="me553b8652f" d="M 134.656564 -1540.563225
L 134.656564 -1539.195833
L 137.719712 -1539.195833
L 140.78286 -1539.195833
L 143.846008 -1539.195833
L 146.909156 -1539.195833
L 149.972303 -1539.195833
L 153.035451 -1539.195833
L 156.098599 -1539.195833
L 159.161747 -1539.195833
L 162.224895 -1539.195833
L 165.288042 -1539.195833
L 168.35119 -1539.195833
L 171.414338 -1539.195833
L 174.477486 -1539.195833
L 177.540634 -1539.195833
L 180.603781 -1539.195833
L 183.666929 -1539.195833
L 186.730077 -1539.195833
L 189.793225 -1539.195833
L 192.856373 -1539.195833
L 195.919521 -1539.195833
L 198.982668 -1539.195833
L 202.045816 -1539.195833
L 205.108964 -1539.195833
L 208.172112 -1539.195833
L 211.23526 -1539.195833
L 214.298407 -1539.195833
L 217.361555 -1539.195833
L 220.424703 -1539.195833
L 223.487851 -1539.195833
L 226.550999 -1539.195833
L 229.614146 -1539.195833
L 232.677294 -1539.195833
L 235.740442 -1539.195833
L 238.80359 -1539.195833
L 241.866738 -1539.195833
L 244.929885 -1539.195833
L 247.993033 -1539.195833
L 251.056181 -1539.195833
L 254.119329 -1539.195833
L 257.182477 -1539.195833
L 260.245624 -1539.195833
L 263.308772 -1539.195833
L 266.37192 -1539.195833
L 269.435068 -1539.195833
L 272.498216 -1539.195833
L 275.561363 -1539.195833
L 278.624511 -1539.195833
L 281.687659 -1539.195833
L 284.750807 -1539.195833
L 287.813955 -1539.195833
L 290.877102 -1539.195833
L 293.94025 -1539.195833
L 297.003398 -1539.195833
L 300.066546 -1539.195833
L 303.129694 -1539.195833
L 306.192841 -1539.195833
L 309.255989 -1539.195833
L 312.319137 -1539.195833
L 315.382285 -1539.195833
L 318.445433 -1539.195833
L 321.50858 -1539.195833
L 324.571728 -1539.195833
L 327.634876 -1539.195833
L 330.698024 -1539.195833
L 333.761172 -1539.195833
L 336.82432 -1539.195833
L 339.887467 -1539.195833
L 342.950615 -1539.195833
L 346.013763 -1539.195833
L 349.076911 -1539.195833
L 352.140059 -1539.195833
L 355.203206 -1539.195833
L 358.266354 -1539.195833
L 361.329502 -1539.195833
L 364.39265 -1539.195833
L 367.455798 -1539.195833
L 370.518945 -1539.195833
L 373.582093 -1539.195833
L 376.645241 -1539.195833
L 379.708389 -1539.195833
L 382.771537 -1539.195833
L 385.834684 -1539.195833
L 388.897832 -1539.195833
L 391.96098 -1539.195833
L 395.024128 -1539.195833
L 398.087276 -1539.195833
L 401.150423 -1539.195833
L 404.213571 -1539.195833
L 407.276719 -1539.195833
L 410.339867 -1539.195833
L 413.403015 -1539.195833
L 416.466162 -1539.195833
L 419.52931 -1539.195833
L 422.592458 -1539.195833
L 425.655606 -1539.195833
L 428.718754 -1539.195833
L 431.781901 -1539.195833
L 434.845049 -1539.195833
L 437.908197 -1539.195833
L 440.971345 -1539.195833
L 444.034493 -1539.195833
L 447.09764 -1539.195833
L 450.160788 -1539.195833
L 453.223936 -1539.195833
L 456.287084 -1539.195833
L 459.350232 -1539.195833
L 462.413379 -1539.195833
L 465.476527 -1539.195833
L 468.539675 -1539.195833
L 471.602823 -1539.195833
L 474.665971 -1539.195833
L 477.729119 -1539.195833
L 480.792266 -1539.195833
L 483.855414 -1539.195833
L 486.918562 -1539.195833
L 489.98171 -1539.195833
L 493.044858 -1539.195833
L 496.108005 -1539.195833
L 499.171153 -1539.195833
L 502.234301 -1539.195833
L 505.297449 -1539.195833
L 508.360597 -1539.195833
L 511.423744 -1539.195833
L 514.486892 -1539.195833
L 517.55004 -1539.195833
L 520.613188 -1539.195833
L 523.676336 -1539.195833
L 526.739483 -1539.195833
L 529.802631 -1539.195833
L 532.865779 -1539.195833
L 535.928927 -1539.195833
L 538.992075 -1539.195833
L 542.055222 -1539.195833
L 545.11837 -1539.195833
L 548.181518 -1539.195833
L 551.244666 -1539.195833
L 554.307814 -1539.195833
L 557.370961 -1539.195833
L 560.434109 -1539.195833
L 563.497257 -1539.195833
L 566.560405 -1539.195833
L 569.623553 -1539.195833
L 572.6867 -1539.195833
L 575.749848 -1539.195833
L 578.812996 -1539.195833
L 581.876144 -1539.195833
L 584.939292 -1539.195833
L 588.002439 -1539.195833
L 591.065587 -1539.195833
L 594.128735 -1539.195833
L 597.191883 -1539.195833
L 600.255031 -1539.195833
L 603.318178 -1539.195833
L 606.381326 -1539.195833
L 609.444474 -1539.195833
L 612.507622 -1539.195833
L 615.57077 -1539.195833
L 618.633918 -1539.195833
L 621.697065 -1539.195833
L 624.760213 -1539.195833
L 627.823361 -1539.195833
L 630.886509 -1539.195833
L 633.949657 -1539.195833
L 637.012804 -1539.195833
L 640.075952 -1539.195833
L 643.1391 -1539.195833
L 646.202248 -1539.195833
L 649.265396 -1539.195833
L 652.328543 -1539.195833
L 655.391691 -1539.195833
L 658.454839 -1539.195833
L 661.517987 -1539.195833
L 664.581135 -1539.195833
L 667.644282 -1539.195833
L 670.70743 -1539.195833
L 673.770578 -1539.195833
L 676.833726 -1539.195833
L 679.896874 -1539.195833
L 682.960021 -1539.195833
L 686.023169 -1539.195833
L 689.086317 -1539.195833
L 692.149465 -1539.195833
L 695.212613 -1539.195833
L 698.27576 -1539.195833
L 701.338908 -1539.195833
L 704.402056 -1539.195833
L 707.465204 -1539.195833
L 710.528352 -1539.195833
L 713.591499 -1539.195833
L 716.654647 -1539.195833
L 719.717795 -1539.195833
L 722.780943 -1539.195833
L 725.844091 -1539.195833
L 728.907238 -1539.195833
L 731.970386 -1539.195833
L 735.033534 -1539.195833
L 738.096682 -1539.195833
L 741.15983 -1539.195833
L 744.222977 -1539.195833
L 744.222977 -1539.874683
L 744.222977 -1539.874683
L 741.15983 -1540.167641
L 738.096682 -1540.559804
L 735.033534 -1541.073263
L 731.970386 -1541.730957
L 728.907238 -1542.55544
L 725.844091 -1543.567535
L 722.780943 -1544.785087
L 719.717795 -1546.222119
L 716.654647 -1547.888666
L 713.591499 -1549.791546
L 710.528352 -1551.936177
L 707.465204 -1554.329364
L 704.402056 -1556.982735
L 701.338908 -1559.916245
L 698.27576 -1563.160972
L 695.212613 -1566.76033
L 692.149465 -1570.768883
L 689.086317 -1575.2482
L 686.023169 -1580.259579
L 682.960021 -1585.85403
L 679.896874 -1592.060465
L 676.833726 -1598.873555
L 673.770578 -1606.243031
L 670.70743 -1614.066266
L 667.644282 -1622.185715
L 664.581135 -1630.39224
L 661.517987 -1638.434547
L 658.454839 -1646.034094
L 655.391691 -1652.904016
L 652.328543 -1658.769967
L 649.265396 -1663.390494
L 646.202248 -1666.574658
L 643.1391 -1668.195004
L 640.075952 -1668.194723
L 637.012804 -1666.588659
L 633.949657 -1663.458619
L 630.886509 -1658.944121
L 627.823361 -1653.230077
L 624.760213 -1646.533076
L 621.697065 -1639.087771
L 618.633918 -1631.134551
L 615.57077 -1622.909283
L 612.507622 -1614.635439
L 609.444474 -1606.5186
L 606.381326 -1598.74301
L 603.318178 -1591.469727
L 600.255031 -1584.835858
L 597.191883 -1578.954394
L 594.128735 -1573.914242
L 591.065587 -1569.780191
L 588.002439 -1566.592647
L 584.939292 -1564.367164
L 581.876144 -1563.093864
L 578.812996 -1562.737016
L 575.749848 -1563.235108
L 572.6867 -1564.501813
L 569.623553 -1566.428279
L 566.560405 -1568.887103
L 563.497257 -1571.738262
L 560.434109 -1574.837025
L 557.370961 -1578.043615
L 554.307814 -1581.234055
L 551.244666 -1584.311218
L 548.181518 -1587.214863
L 545.11837 -1589.929138
L 542.055222 -1592.486084
L 538.992075 -1594.963836
L 535.928927 -1597.478759
L 532.865779 -1600.171451
L 529.802631 -1603.18751
L 526.739483 -1606.654898
L 523.676336 -1610.660578
L 520.613188 -1615.229632
L 517.55004 -1620.310145
L 514.486892 -1625.766669
L 511.423744 -1631.384092
L 508.360597 -1636.88232
L 505.297449 -1641.940586
L 502.234301 -1646.228659
L 499.171153 -1649.441053
L 496.108005 -1651.329739
L 493.044858 -1651.731013
L 489.98171 -1650.582965
L 486.918562 -1647.931426
L 483.855414 -1643.92397
L 480.792266 -1638.793251
L 477.729119 -1632.832409
L 474.665971 -1626.366179
L 471.602823 -1619.721596
L 468.539675 -1613.201863
L 465.476527 -1607.066075
L 462.413379 -1601.516311
L 459.350232 -1596.692427
L 456.287084 -1592.673713
L 453.223936 -1589.485861
L 450.160788 -1587.111223
L 447.09764 -1585.500346
L 444.034493 -1584.583056
L 440.971345 -1584.277865
L 437.908197 -1584.499101
L 434.845049 -1585.161702
L 431.781901 -1586.184122
L 428.718754 -1587.490006
L 425.655606 -1589.009434
L 422.592458 -1590.680335
L 419.52931 -1592.450476
L 416.466162 -1594.279987
L 413.403015 -1596.144094
L 410.339867 -1598.035383
L 407.276719 -1599.964803
L 404.213571 -1601.960652
L 401.150423 -1604.065029
L 398.087276 -1606.327673
L 395.024128 -1608.797598
L 391.96098 -1611.51347
L 388.897832 -1614.49405
L 385.834684 -1617.730215
L 382.771537 -1621.179977
L 379.708389 -1624.76753
L 376.645241 -1628.386763
L 373.582093 -1631.908955
L 370.518945 -1635.193702
L 367.455798 -1638.101578
L 364.39265 -1640.506835
L 361.329502 -1642.308478
L 358.266354 -1643.438452
L 355.203206 -1643.866192
L 352.140059 -1643.599421
L 349.076911 -1642.681611
L 346.013763 -1641.186879
L 342.950615 -1639.213273
L 339.887467 -1636.875357
L 336.82432 -1634.296836
L 333.761172 -1631.603783
L 330.698024 -1628.918801
L 327.634876 -1626.356343
L 324.571728 -1624.019289
L 321.50858 -1621.996814
L 318.445433 -1620.363453
L 315.382285 -1619.179127
L 312.319137 -1618.489689
L 309.255989 -1618.32742
L 306.192841 -1618.71082
L 303.129694 -1619.643133
L 300.066546 -1621.109348
L 297.003398 -1623.071828
L 293.94025 -1625.465272
L 290.877102 -1628.192173
L 287.813955 -1631.120251
L 284.750807 -1634.083331
L 281.687659 -1636.886823
L 278.624511 -1639.31829
L 275.561363 -1641.162733
L 272.498216 -1642.221277
L 269.435068 -1642.331169
L 266.37192 -1641.384466
L 263.308772 -1639.342753
L 260.245624 -1636.245546
L 257.182477 -1632.210878
L 254.119329 -1627.427555
L 251.056181 -1622.139762
L 247.993033 -1616.62574
L 244.929885 -1611.173039
L 241.866738 -1606.053276
L 238.80359 -1601.49927
L 235.740442 -1597.687018
L 232.677294 -1594.724177
L 229.614146 -1592.645825
L 226.550999 -1591.417272
L 223.487851 -1590.942868
L 220.424703 -1591.079181
L 217.361555 -1591.650596
L 214.298407 -1592.465455
L 211.23526 -1593.331134
L 208.172112 -1594.066935
L 205.108964 -1594.514186
L 202.045816 -1594.543444
L 198.982668 -1594.059003
L 195.919521 -1593.001117
L 192.856373 -1591.346325
L 189.793225 -1589.106183
L 186.730077 -1586.324575
L 183.666929 -1583.073647
L 180.603781 -1579.448435
L 177.540634 -1575.560306
L 174.477486 -1571.529501
L 171.414338 -1567.477272
L 168.35119 -1563.518209
L 165.288042 -1559.753444
L 162.224895 -1556.265348
L 159.161747 -1553.114164
L 156.098599 -1550.336773
L 153.035451 -1547.947519
L 149.972303 -1545.940771
L 146.909156 -1544.29472
L 143.846008 -1542.97583
L 140.78286 -1541.94338
L 137.719712 -1541.153623
L 134.656564 -1540.563225
z
" style="stroke: #000000"/>
    </defs>
    <g clip-path="url(#p896ebf1af8)">
     <use xlink:href="#me553b8652f" x="0" y="1872" style="fill: #4daf4a; fill-opacity: 0.75; stroke: #000000"/>
    </g>
   </g>
   <g id="PolyCollection_2">
    <defs>
     <path id="m971bf964a4" d="M 134.656564 -1541.945155
L 134.656564 -1540.563225
L 137.719712 -1541.153623
L 140.78286 -1541.94338
L 143.846008 -1542.97583
L 146.909156 -1544.29472
L 149.972303 -1545.940771
L 153.035451 -1547.947519
L 156.098599 -1550.336773
L 159.161747 -1553.114164
L 162.224895 -1556.265348
L 165.288042 -1559.753444
L 168.35119 -1563.518209
L 171.414338 -1567.477272
L 174.477486 -1571.529501
L 177.540634 -1575.560306
L 180.603781 -1579.448435
L 183.666929 -1583.073647
L 186.730077 -1586.324575
L 189.793225 -1589.106183
L 192.856373 -1591.346325
L 195.919521 -1593.001117
L 198.982668 -1594.059003
L 202.045816 -1594.543444
L 205.108964 -1594.514186
L 208.172112 -1594.066935
L 211.23526 -1593.331134
L 214.298407 -1592.465455
L 217.361555 -1591.650596
L 220.424703 -1591.079181
L 223.487851 -1590.942868
L 226.550999 -1591.417272
L 229.614146 -1592.645825
L 232.677294 -1594.724177
L 235.740442 -1597.687018
L 238.80359 -1601.49927
L 241.866738 -1606.053276
L 244.929885 -1611.173039
L 247.993033 -1616.62574
L 251.056181 -1622.139762
L 254.119329 -1627.427555
L 257.182477 -1632.210878
L 260.245624 -1636.245546
L 263.308772 -1639.342753
L 266.37192 -1641.384466
L 269.435068 -1642.331169
L 272.498216 -1642.221277
L 275.561363 -1641.162733
L 278.624511 -1639.31829
L 281.687659 -1636.886823
L 284.750807 -1634.083331
L 287.813955 -1631.120251
L 290.877102 -1628.192173
L 293.94025 -1625.465272
L 297.003398 -1623.071828
L 300.066546 -1621.109348
L 303.129694 -1619.643133
L 306.192841 -1618.71082
L 309.255989 -1618.32742
L 312.319137 -1618.489689
L 315.382285 -1619.179127
L 318.445433 -1620.363453
L 321.50858 -1621.996814
L 324.571728 -1624.019289
L 327.634876 -1626.356343
L 330.698024 -1628.918801
L 333.761172 -1631.603783
L 336.82432 -1634.296836
L 339.887467 -1636.875357
L 342.950615 -1639.213273
L 346.013763 -1641.186879
L 349.076911 -1642.681611
L 352.140059 -1643.599421
L 355.203206 -1643.866192
L 358.266354 -1643.438452
L 361.329502 -1642.308478
L 364.39265 -1640.506835
L 367.455798 -1638.101578
L 370.518945 -1635.193702
L 373.582093 -1631.908955
L 376.645241 -1628.386763
L 379.708389 -1624.76753
L 382.771537 -1621.179977
L 385.834684 -1617.730215
L 388.897832 -1614.49405
L 391.96098 -1611.51347
L 395.024128 -1608.797598
L 398.087276 -1606.327673
L 401.150423 -1604.065029
L 404.213571 -1601.960652
L 407.276719 -1599.964803
L 410.339867 -1598.035383
L 413.403015 -1596.144094
L 416.466162 -1594.279987
L 419.52931 -1592.450476
L 422.592458 -1590.680335
L 425.655606 -1589.009434
L 428.718754 -1587.490006
L 431.781901 -1586.184122
L 434.845049 -1585.161702
L 437.908197 -1584.499101
L 440.971345 -1584.277865
L 444.034493 -1584.583056
L 447.09764 -1585.500346
L 450.160788 -1587.111223
L 453.223936 -1589.485861
L 456.287084 -1592.673713
L 459.350232 -1596.692427
L 462.413379 -1601.516311
L 465.476527 -1607.066075
L 468.539675 -1613.201863
L 471.602823 -1619.721596
L 474.665971 -1626.366179
L 477.729119 -1632.832409
L 480.792266 -1638.793251
L 483.855414 -1643.92397
L 486.918562 -1647.931426
L 489.98171 -1650.582965
L 493.044858 -1651.731013
L 496.108005 -1651.329739
L 499.171153 -1649.441053
L 502.234301 -1646.228659
L 505.297449 -1641.940586
L 508.360597 -1636.88232
L 511.423744 -1631.384092
L 514.486892 -1625.766669
L 517.55004 -1620.310145
L 520.613188 -1615.229632
L 523.676336 -1610.660578
L 526.739483 -1606.654898
L 529.802631 -1603.18751
L 532.865779 -1600.171451
L 535.928927 -1597.478759
L 538.992075 -1594.963836
L 542.055222 -1592.486084
L 545.11837 -1589.929138
L 548.181518 -1587.214863
L 551.244666 -1584.311218
L 554.307814 -1581.234055
L 557.370961 -1578.043615
L 560.434109 -1574.837025
L 563.497257 -1571.738262
L 566.560405 -1568.887103
L 569.623553 -1566.428279
L 572.6867 -1564.501813
L 575.749848 -1563.235108
L 578.812996 -1562.737016
L 581.876144 -1563.093864
L 584.939292 -1564.367164
L 588.002439 -1566.592647
L 591.065587 -1569.780191
L 594.128735 -1573.914242
L 597.191883 -1578.954394
L 600.255031 -1584.835858
L 603.318178 -1591.469727
L 606.381326 -1598.74301
L 609.444474 -1606.5186
L 612.507622 -1614.635439
L 615.57077 -1622.909283
L 618.633918 -1631.134551
L 621.697065 -1639.087771
L 624.760213 -1646.533076
L 627.823361 -1653.230077
L 630.886509 -1658.944121
L 633.949657 -1663.458619
L 637.012804 -1666.588659
L 640.075952 -1668.194723
L 643.1391 -1668.195004
L 646.202248 -1666.574658
L 649.265396 -1663.390494
L 652.328543 -1658.769967
L 655.391691 -1652.904016
L 658.454839 -1646.034094
L 661.517987 -1638.434547
L 664.581135 -1630.39224
L 667.644282 -1622.185715
L 670.70743 -1614.066266
L 673.770578 -1606.243031
L 676.833726 -1598.873555
L 679.896874 -1592.060465
L 682.960021 -1585.85403
L 686.023169 -1580.259579
L 689.086317 -1575.2482
L 692.149465 -1570.768883
L 695.212613 -1566.76033
L 698.27576 -1563.160972
L 701.338908 -1559.916245
L 704.402056 -1556.982735
L 707.465204 -1554.329364
L 710.528352 -1551.936177
L 713.591499 -1549.791546
L 716.654647 -1547.888666
L 719.717795 -1546.222119
L 722.780943 -1544.785087
L 725.844091 -1543.567535
L 728.907238 -1542.55544
L 731.970386 -1541.730957
L 735.033534 -1541.073263
L 738.096682 -1540.559804
L 741.15983 -1540.167641
L 744.222977 -1539.874683
L 744.222977 -1540.560636
L 744.222977 -1540.560636
L 741.15983 -1541.148391
L 738.096682 -1541.934738
L 735.033534 -1542.963784
L 731.970386 -1544.281324
L 728.907238 -1545.932397
L 725.844091 -1547.958623
L 722.780943 -1550.395773
L 719.717795 -1553.272141
L 716.654647 -1556.608302
L 713.591499 -1560.418754
L 710.528352 -1564.715675
L 707.465204 -1569.514653
L 704.402056 -1574.841725
L 701.338908 -1580.740598
L 698.27576 -1587.278483
L 695.212613 -1594.548791
L 692.149465 -1602.66903
L 689.086317 -1611.772725
L 686.023169 -1621.994966
L 682.960021 -1633.452264
L 679.896874 -1646.21849
L 676.833726 -1660.299753
L 673.770578 -1675.611669
L 670.70743 -1691.962729
L 667.644282 -1709.046983
L 664.581135 -1726.448276
L 661.517987 -1743.656818
L 658.454839 -1760.097158
L 655.391691 -1775.16504
L 652.328543 -1788.269347
L 649.265396 -1798.874603
L 646.202248 -1806.539516
L 643.1391 -1810.947648
L 640.075952 -1811.92749
L 637.012804 -1809.46065
L 633.949657 -1803.678376
L 630.886509 -1794.847903
L 627.823361 -1783.351011
L 624.760213 -1769.657608
L 621.697065 -1754.297145
L 618.633918 -1737.830279
L 615.57077 -1720.822616
L 612.507622 -1703.821717
L 609.444474 -1687.337884
L 606.381326 -1671.82883
L 603.318178 -1657.68796
L 600.255031 -1645.235924
L 597.191883 -1634.715055
L 594.128735 -1626.286438
L 591.065587 -1620.029483
L 588.002439 -1615.943935
L 584.939292 -1613.954335
L 581.876144 -1613.91687
L 578.812996 -1615.628449
L 575.749848 -1618.83771
L 572.6867 -1623.25755
L 569.623553 -1628.578709
L 566.560405 -1634.483982
L 563.497257 -1640.662727
L 560.434109 -1646.825446
L 557.370961 -1652.718266
L 554.307814 -1658.137051
L 551.244666 -1662.940625
L 548.181518 -1667.062134
L 545.11837 -1670.517096
L 542.055222 -1673.406295
L 538.992075 -1675.911511
L 535.928927 -1678.282447
L 532.865779 -1680.814008
L 529.802631 -1683.81451
L 526.739483 -1687.567011
L 523.676336 -1692.287725
L 520.613188 -1698.086808
L 517.55004 -1704.937453
L 514.486892 -1712.658874
L 511.423744 -1720.917369
L 508.360597 -1729.247248
L 505.297449 -1737.090514
L 502.234301 -1743.851146
L 499.171153 -1748.957327
L 496.108005 -1751.923449
L 493.044858 -1752.403531
L 489.98171 -1750.228883
L 486.918562 -1745.425227
L 483.855414 -1738.207604
L 480.792266 -1728.954683
L 477.729119 -1718.16695
L 474.665971 -1706.415224
L 471.602823 -1694.286732
L 468.539675 -1682.335583
L 465.476527 -1671.043011
L 462.413379 -1660.790703
L 459.350232 -1651.848206
L 456.287084 -1644.373299
L 453.223936 -1638.422615
L 450.160788 -1633.968955
L 447.09764 -1630.92155
L 444.034493 -1629.146046
L 440.971345 -1628.481907
L 437.908197 -1628.756074
L 434.845049 -1629.792794
L 431.781901 -1631.420432
L 428.718754 -1633.476554
L 425.655606 -1635.812682
L 422.592458 -1638.299798
L 419.52931 -1640.83506
L 416.466162 -1643.349414
L 413.403015 -1645.815003
L 410.339867 -1648.2507
L 407.276719 -1650.723859
L 404.213571 -1653.346598
L 401.150423 -1656.265592
L 398.087276 -1659.645407
L 395.024128 -1663.646653
L 391.96098 -1668.401419
L 388.897832 -1673.989331
L 385.834684 -1680.417919
L 382.771537 -1687.610656
L 379.708389 -1695.405039
L 376.645241 -1703.561611
L 373.582093 -1711.783073
L 370.518945 -1719.74103
L 367.455798 -1727.106706
L 364.39265 -1733.581421
L 361.329502 -1738.922839
L 358.266354 -1742.963885
L 355.203206 -1745.622551
L 352.140059 -1746.902346
L 349.076911 -1746.884466
L 346.013763 -1745.71376
L 342.950615 -1743.581033
L 339.887467 -1740.704258
L 336.82432 -1737.310871
L 333.761172 -1733.622822
L 330.698024 -1729.845376
L 327.634876 -1726.160168
L 324.571728 -1722.722456
L 321.50858 -1719.662115
L 318.445433 -1717.08751
L 315.382285 -1715.090945
L 312.319137 -1713.754137
L 309.255989 -1713.151947
L 306.192841 -1713.352763
L 303.129694 -1714.414393
L 300.066546 -1716.37515
L 297.003398 -1719.240913
L 293.94025 -1722.970074
L 290.877102 -1727.459225
L 287.813955 -1732.532929
L 284.750807 -1737.940771
L 281.687659 -1743.36406
L 278.624511 -1748.433104
L 275.561363 -1752.754253
L 272.498216 -1755.94406
L 269.435068 -1757.666505
L 266.37192 -1757.66837
L 263.308772 -1755.807872
L 260.245624 -1752.072456
L 257.182477 -1746.583142
L 254.119329 -1739.584722
L 251.056181 -1731.423066
L 247.993033 -1722.512493
L 244.929885 -1713.297343
L 241.866738 -1704.212412
L 238.80359 -1695.646676
L 235.740442 -1687.913983
L 232.677294 -1681.233147
L 229.614146 -1675.718497
L 226.550999 -1671.380566
L 223.487851 -1668.135484
L 220.424703 -1665.820894
L 217.361555 -1664.215883
L 214.298407 -1663.062507
L 211.23526 -1662.086885
L 208.172112 -1661.01844
L 205.108964 -1659.606471
L 202.045816 -1657.633761
L 198.982668 -1654.927257
L 195.919521 -1651.365955
L 192.856373 -1646.886044
L 189.793225 -1641.483194
L 186.730077 -1635.211726
L 183.666929 -1628.180385
L 180.603781 -1620.544593
L 177.540634 -1612.495395
L 174.477486 -1604.245759
L 171.414338 -1596.015329
L 168.35119 -1588.015052
L 165.288042 -1580.433204
L 162.224895 -1573.424203
L 159.161747 -1567.101223
L 156.098599 -1561.533077
L 153.035451 -1556.745283
L 149.972303 -1552.724676
L 146.909156 -1549.426601
L 143.846008 -1546.783496
L 140.78286 -1544.713747
L 137.719712 -1543.129841
L 134.656564 -1541.945155
z
" style="stroke: #000000"/>
    </defs>
    <g clip-path="url(#p896ebf1af8)">
     <use xlink:href="#m971bf964a4" x="0" y="1872" style="fill: #377eb8; fill-opacity: 0.75; stroke: #000000"/>
    </g>
   </g>
   <g id="PolyCollection_3">
    <defs>
     <path id="m7709ab4683" d="M 134.656564 -1541.976766
L 134.656564 -1541.945155
L 137.719712 -1543.129841
L 140.78286 -1544.713747
L 143.846008 -1546.783496
L 146.909156 -1549.426601
L 149.972303 -1552.724676
L 153.035451 -1556.745283
L 156.098599 -1561.533077
L 159.161747 -1567.101223
L 162.224895 -1573.424203
L 165.288042 -1580.433204
L 168.35119 -1588.015052
L 171.414338 -1596.015329
L 174.477486 -1604.245759
L 177.540634 -1612.495395
L 180.603781 -1620.544593
L 183.666929 -1628.180385
L 186.730077 -1635.211726
L 189.793225 -1641.483194
L 192.856373 -1646.886044
L 195.919521 -1651.365955
L 198.982668 -1654.927257
L 202.045816 -1657.633761
L 205.108964 -1659.606471
L 208.172112 -1661.01844
L 211.23526 -1662.086885
L 214.298407 -1663.062507
L 217.361555 -1664.215883
L 220.424703 -1665.820894
L 223.487851 -1668.135484
L 226.550999 -1671.380566
L 229.614146 -1675.718497
L 232.677294 -1681.233147
L 235.740442 -1687.913983
L 238.80359 -1695.646676
L 241.866738 -1704.212412
L 244.929885 -1713.297343
L 247.993033 -1722.512493
L 251.056181 -1731.423066
L 254.119329 -1739.584722
L 257.182477 -1746.583142
L 260.245624 -1752.072456
L 263.308772 -1755.807872
L 266.37192 -1757.66837
L 269.435068 -1757.666505
L 272.498216 -1755.94406
L 275.561363 -1752.754253
L 278.624511 -1748.433104
L 281.687659 -1743.36406
L 284.750807 -1737.940771
L 287.813955 -1732.532929
L 290.877102 -1727.459225
L 293.94025 -1722.970074
L 297.003398 -1719.240913
L 300.066546 -1716.37515
L 303.129694 -1714.414393
L 306.192841 -1713.352763
L 309.255989 -1713.151947
L 312.319137 -1713.754137
L 315.382285 -1715.090945
L 318.445433 -1717.08751
L 321.50858 -1719.662115
L 324.571728 -1722.722456
L 327.634876 -1726.160168
L 330.698024 -1729.845376
L 333.761172 -1733.622822
L 336.82432 -1737.310871
L 339.887467 -1740.704258
L 342.950615 -1743.581033
L 346.013763 -1745.71376
L 349.076911 -1746.884466
L 352.140059 -1746.902346
L 355.203206 -1745.622551
L 358.266354 -1742.963885
L 361.329502 -1738.922839
L 364.39265 -1733.581421
L 367.455798 -1727.106706
L 370.518945 -1719.74103
L 373.582093 -1711.783073
L 376.645241 -1703.561611
L 379.708389 -1695.405039
L 382.771537 -1687.610656
L 385.834684 -1680.417919
L 388.897832 -1673.989331
L 391.96098 -1668.401419
L 395.024128 -1663.646653
L 398.087276 -1659.645407
L 401.150423 -1656.265592
L 404.213571 -1653.346598
L 407.276719 -1650.723859
L 410.339867 -1648.2507
L 413.403015 -1645.815003
L 416.466162 -1643.349414
L 419.52931 -1640.83506
L 422.592458 -1638.299798
L 425.655606 -1635.812682
L 428.718754 -1633.476554
L 431.781901 -1631.420432
L 434.845049 -1629.792794
L 437.908197 -1628.756074
L 440.971345 -1628.481907
L 444.034493 -1629.146046
L 447.09764 -1630.92155
L 450.160788 -1633.968955
L 453.223936 -1638.422615
L 456.287084 -1644.373299
L 459.350232 -1651.848206
L 462.413379 -1660.790703
L 465.476527 -1671.043011
L 468.539675 -1682.335583
L 471.602823 -1694.286732
L 474.665971 -1706.415224
L 477.729119 -1718.16695
L 480.792266 -1728.954683
L 483.855414 -1738.207604
L 486.918562 -1745.425227
L 489.98171 -1750.228883
L 493.044858 -1752.403531
L 496.108005 -1751.923449
L 499.171153 -1748.957327
L 502.234301 -1743.851146
L 505.297449 -1737.090514
L 508.360597 -1729.247248
L 511.423744 -1720.917369
L 514.486892 -1712.658874
L 517.55004 -1704.937453
L 520.613188 -1698.086808
L 523.676336 -1692.287725
L 526.739483 -1687.567011
L 529.802631 -1683.81451
L 532.865779 -1680.814008
L 535.928927 -1678.282447
L 538.992075 -1675.911511
L 542.055222 -1673.406295
L 545.11837 -1670.517096
L 548.181518 -1667.062134
L 551.244666 -1662.940625
L 554.307814 -1658.137051
L 557.370961 -1652.718266
L 560.434109 -1646.825446
L 563.497257 -1640.662727
L 566.560405 -1634.483982
L 569.623553 -1628.578709
L 572.6867 -1623.25755
L 575.749848 -1618.83771
L 578.812996 -1615.628449
L 581.876144 -1613.91687
L 584.939292 -1613.954335
L 588.002439 -1615.943935
L 591.065587 -1620.029483
L 594.128735 -1626.286438
L 597.191883 -1634.715055
L 600.255031 -1645.235924
L 603.318178 -1657.68796
L 606.381326 -1671.82883
L 609.444474 -1687.337884
L 612.507622 -1703.821717
L 615.57077 -1720.822616
L 618.633918 -1737.830279
L 621.697065 -1754.297145
L 624.760213 -1769.657608
L 627.823361 -1783.351011
L 630.886509 -1794.847903
L 633.949657 -1803.678376
L 637.012804 -1809.46065
L 640.075952 -1811.92749
L 643.1391 -1810.947648
L 646.202248 -1806.539516
L 649.265396 -1798.874603
L 652.328543 -1788.269347
L 655.391691 -1775.16504
L 658.454839 -1760.097158
L 661.517987 -1743.656818
L 664.581135 -1726.448276
L 667.644282 -1709.046983
L 670.70743 -1691.962729
L 673.770578 -1675.611669
L 676.833726 -1660.299753
L 679.896874 -1646.21849
L 682.960021 -1633.452264
L 686.023169 -1621.994966
L 689.086317 -1611.772725
L 692.149465 -1602.66903
L 695.212613 -1594.548791
L 698.27576 -1587.278483
L 701.338908 -1580.740598
L 704.402056 -1574.841725
L 707.465204 -1569.514653
L 710.528352 -1564.715675
L 713.591499 -1560.418754
L 716.654647 -1556.608302
L 719.717795 -1553.272141
L 722.780943 -1550.395773
L 725.844091 -1547.958623
L 728.907238 -1545.932397
L 731.970386 -1544.281324
L 735.033534 -1542.963784
L 738.096682 -1541.934738
L 741.15983 -1541.148391
L 744.222977 -1540.560636
L 744.222977 -1540.565111
L 744.222977 -1540.565111
L 741.15983 -1541.155231
L 738.096682 -1541.945074
L 735.033534 -1542.97922
L 731.970386 -1544.304107
L 728.907238 -1545.965631
L 725.844091 -1548.006538
L 722.780943 -1550.464048
L 719.717795 -1553.368293
L 716.654647 -1556.742136
L 713.591499 -1560.602864
L 710.528352 -1564.965998
L 707.465204 -1569.851036
L 704.402056 -1575.288491
L 701.338908 -1581.327063
L 698.27576 -1588.039378
L 695.212613 -1595.524525
L 692.149465 -1603.905741
L 689.086317 -1613.322051
L 686.023169 -1623.913484
L 682.960021 -1635.800544
L 679.896874 -1649.059756
L 676.833726 -1663.698144
L 673.770578 -1679.630154
L 670.70743 -1696.66075
L 667.644282 -1714.477957
L 664.581135 -1732.657121
L 661.517987 -1750.677691
L 658.454839 -1767.951639
L 655.391691 -1783.86098
L 652.328543 -1797.800582
L 649.265396 -1809.221721
L 646.202248 -1817.67178
L 643.1391 -1822.826126
L 640.075952 -1824.509325
L 637.012804 -1822.704324
L 633.949657 -1817.549702
L 630.886509 -1809.3264
L 627.823361 -1798.436221
L 624.760213 -1785.374881
L 621.697065 -1770.702388
L 618.633918 -1755.013181
L 615.57077 -1738.907936
L 612.507622 -1722.968285
L 609.444474 -1707.735141
L 606.381326 -1693.690838
L 603.318178 -1681.245036
L 600.255031 -1670.724179
L 597.191883 -1662.364329
L 594.128735 -1656.307245
L 591.065587 -1652.599684
L 588.002439 -1651.195934
L 584.939292 -1651.963593
L 581.876144 -1654.692484
L 578.812996 -1659.106444
L 575.749848 -1664.877537
L 572.6867 -1671.642076
L 569.623553 -1679.017797
L 566.560405 -1686.621503
L 563.497257 -1694.086655
L 560.434109 -1701.080475
L 557.370961 -1707.320264
L 554.307814 -1712.588562
L 551.244666 -1716.746586
L 548.181518 -1719.745017
L 545.11837 -1721.630744
L 542.055222 -1722.547854
L 538.992075 -1722.731007
L 535.928927 -1722.489727
L 532.865779 -1722.182951
L 529.802631 -1722.184539
L 526.739483 -1722.842126
L 523.676336 -1724.433351
L 520.613188 -1727.124836
L 517.55004 -1730.939899
L 514.486892 -1735.740608
L 511.423744 -1741.228312
L 508.360597 -1746.964437
L 505.297449 -1752.410367
L 502.234301 -1756.9822
L 499.171153 -1760.113655
L 496.108005 -1761.318924
L 493.044858 -1760.247007
L 489.98171 -1756.720352
L 486.918562 -1750.752944
L 483.855414 -1742.546139
L 480.792266 -1732.463835
L 477.729119 -1720.991439
L 474.665971 -1708.68505
L 471.602823 -1696.118102
L 468.539675 -1683.832267
L 465.476527 -1672.298033
L 462.413379 -1661.888227
L 459.350232 -1652.865515
L 456.287084 -1645.382741
L 453.223936 -1639.493419
L 450.160788 -1635.168805
L 447.09764 -1632.317826
L 444.034493 -1630.806646
L 440.971345 -1630.475584
L 437.908197 -1631.152232
L 434.845049 -1632.660729
L 431.781901 -1634.828011
L 428.718754 -1637.48839
L 425.655606 -1640.487876
L 422.592458 -1643.68938
L 419.52931 -1646.97928
L 416.466162 -1650.275082
L 413.403015 -1653.533085
L 410.339867 -1656.75439
L 407.276719 -1659.987336
L 404.213571 -1663.324639
L 401.150423 -1666.894183
L 398.087276 -1670.843408
L 395.024128 -1675.318527
L 391.96098 -1680.440917
L 388.897832 -1686.283987
L 385.834684 -1692.85411
L 382.771537 -1700.078925
L 379.708389 -1707.805367
L 376.645241 -1715.808275
L 373.582093 -1723.808779
L 370.518945 -1731.500019
L 367.455798 -1738.576609
L 364.39265 -1744.763722
L 361.329502 -1749.841887
L 358.266354 -1753.664504
L 355.203206 -1756.166398
L 352.140059 -1757.363234
L 349.076911 -1757.342977
L 346.013763 -1756.251485
L 342.950615 -1754.27485
L 339.887467 -1751.621017
L 336.82432 -1748.502874
L 333.761172 -1745.124398
L 330.698024 -1741.670825
L 327.634876 -1738.303217
L 324.571728 -1735.157292
L 321.50858 -1732.345964
L 318.445433 -1729.96459
L 315.382285 -1728.097559
L 312.319137 -1726.824573
L 309.255989 -1726.224782
L 306.192841 -1726.377152
L 303.129694 -1727.355883
L 300.066546 -1729.220614
L 297.003398 -1732.002208
L 293.94025 -1735.686123
L 290.877102 -1740.196303
L 287.813955 -1745.383046
L 284.750807 -1751.018156
L 281.687659 -1756.79988
L 278.624511 -1762.368664
L 275.561363 -1767.33302
L 272.498216 -1771.302968
L 269.435068 -1773.927029
L 266.37192 -1774.927927
L 263.308772 -1774.132084
L 260.245624 -1771.488787
L 257.182477 -1767.076353
L 254.119329 -1761.094485
L 251.056181 -1753.843932
L 247.993033 -1745.696293
L 244.929885 -1737.057905
L 241.866738 -1728.332341
L 238.80359 -1719.885806
L 235.740442 -1712.018986
L 232.677294 -1704.947723
L 229.614146 -1698.793526
L 226.550999 -1693.58363
L 223.487851 -1689.259233
L 220.424703 -1685.689807
L 217.361555 -1682.691142
L 214.298407 -1680.044803
L 211.23526 -1677.51717
L 208.172112 -1674.876734
L 205.108964 -1671.908987
L 202.045816 -1668.42867
L 198.982668 -1664.289486
L 195.919521 -1659.391428
L 192.856373 -1653.685748
L 189.793225 -1647.177424
L 186.730077 -1639.924796
L 183.666929 -1632.036015
L 180.603781 -1623.662107
L 177.540634 -1614.986789
L 174.477486 -1606.213629
L 171.414338 -1597.55161
L 168.35119 -1589.20045
L 165.288042 -1581.337221
L 162.224895 -1574.105613
L 159.161747 -1567.608867
L 156.098599 -1561.906869
L 153.035451 -1557.017313
L 149.972303 -1552.920346
L 146.909156 -1549.565708
L 143.846008 -1546.881241
L 140.78286 -1544.781629
L 137.719712 -1543.176436
L 134.656564 -1541.976766
z
" style="stroke: #000000"/>
    </defs>
    <g clip-path="url(#p896ebf1af8)">
     <use xlink:href="#m7709ab4683" x="0" y="1872" style="fill: #e41a1c; fill-opacity: 0.75; stroke: #000000"/>
    </g>
   </g>
   <g id="matplotlib.axis_1">
    <g id="xtick_1">
     <g id="line2d_1">
      <defs>
       <path id="m7dd73bbe1b" d="M 0 0
L 0 3.5
" style="stroke: #000000; stroke-width: 0.8"/>
      </defs>
      <g>
       <use xlink:href="#m7dd73bbe1b" x="117.423132" y="332.804167" style="stroke: #000000; stroke-width: 0.8"/>
      </g>
     </g>
    </g>
    <g id="xtick_2">
     <g id="line2d_2">
      <g>
       <use xlink:href="#m7dd73bbe1b" x="218.195042" y="332.804167" style="stroke: #000000; stroke-width: 0.8"/>
      </g>
     </g>
    </g>
    <g id="xtick_3">
     <g id="line2d_3">
      <g>
       <use xlink:href="#m7dd73bbe1b" x="318.966952" y="332.804167" style="stroke: #000000; stroke-width: 0.8"/>
      </g>
     </g>
    </g>
    <g id="xtick_4">
     <g id="line2d_4">
      <g>
       <use xlink:href="#m7dd73bbe1b" x="419.738863" y="332.804167" style="stroke: #000000; stroke-width: 0.8"/>
      </g>
     </g>
    </g>
    <g id="xtick_5">
     <g id="line2d_5">
      <g>
       <use xlink:href="#m7dd73bbe1b" x="520.510773" y="332.804167" style="stroke: #000000; stroke-width: 0.8"/>
      </g>
     </g>
    </g>
    <g id="xtick_6">
     <g id="line2d_6">
      <g>
       <use xlink:href="#m7dd73bbe1b" x="621.282683" y="332.804167" style="stroke: #000000; stroke-width: 0.8"/>
      </g>
     </g>
    </g>
    <g id="xtick_7">
     <g id="line2d_7">
      <g>
       <use xlink:href="#m7dd73bbe1b" x="722.054593" y="332.804167" style="stroke: #000000; stroke-width: 0.8"/>
      </g>
     </g>
    </g>
   </g>
   <g id="matplotlib.axis_2"/>
  </g>
  <g id="axes_2">
   <g id="patch_3">
    <path d="M 97.26875 1830.7
L 740.254 1830.7
L 740.254 332.804167
L 97.26875 332.804167
z
" style="fill: #ffffff"/>
   </g>
   <g id="patch_4">
    <path d="M 117.423132 361.335516
L 225.974634 361.335516
L 225.974634 347.069841
L 117.423132 347.069841
z
" clip-path="url(#pac0bae293f)" style="fill: #e41a1c"/>
   </g>
   <g id="patch_5">
    <path d="M 246.451486 361.335516
L 720.099618 361.335516
L 720.099618 347.069841
L 246.451486 347.069841
z
" clip-path="url(#pac0bae293f)" style="fill: #377eb8"/>
   </g>
   <g id="patch_6">
    <path d="M 225.994788 361.335516
L 246.431331 361.335516
L 246.431331 347.069841
L 225.994788 347.069841
z
" clip-path="url(#pac0bae293f)" style="fill: #d3d3d3"/>
   </g>
   <g id="patch_7">
    <path d="M 117.423132 389.866865
L 229.965201 389.866865
L 229.965201 375.60119
L 117.423132 375.60119
z
" clip-path="url(#pac0bae293f)" style="fill: #e41a1c"/>
   </g>
   <g id="patch_8">
    <path d="M 248.668468 389.866865
L 720.099618 389.866865
L 720.099618 375.60119
L 248.668468 375.60119
z
" clip-path="url(#pac0bae293f)" style="fill: #377eb8"/>
   </g>
   <g id="patch_9">
    <path d="M 229.985356 389.866865
L 248.648313 389.866865
L 248.648313 375.60119
L 229.985356 375.60119
z
" clip-path="url(#pac0bae293f)" style="fill: #d3d3d3"/>
   </g>
   <g id="patch_10">
    <path d="M 117.423132 418.398214
L 299.880753 418.398214
L 299.880753 404.13254
L 117.423132 404.13254
z
" clip-path="url(#pac0bae293f)" style="fill: #e41a1c"/>
   </g>
   <g id="patch_11">
    <path d="M 328.01627 418.398214
L 720.099618 418.398214
L 720.099618 404.13254
L 328.01627 404.13254
z
" clip-path="url(#pac0bae293f)" style="fill: #377eb8"/>
   </g>
   <g id="patch_12">
    <path d="M 299.900907 418.398214
L 327.996116 418.398214
L 327.996116 404.13254
L 299.900907 404.13254
z
" clip-path="url(#pac0bae293f)" style="fill: #d3d3d3"/>
   </g>
   <g id="patch_13">
    <path d="M 117.423132 446.929563
L 344.744407 446.929563
L 344.744407 432.663889
L 117.423132 432.663889
z
" clip-path="url(#pac0bae293f)" style="fill: #e41a1c"/>
   </g>
   <g id="patch_14">
    <path d="M 428.848643 446.929563
L 720.099618 446.929563
L 720.099618 432.663889
L 428.848643 432.663889
z
" clip-path="url(#pac0bae293f)" style="fill: #4daf4a"/>
   </g>
   <g id="patch_15">
    <path d="M 344.764561 446.929563
L 428.828489 446.929563
L 428.828489 432.663889
L 344.764561 432.663889
z
" clip-path="url(#pac0bae293f)" style="fill: #d3d3d3"/>
   </g>
   <g id="patch_16">
    <path d="M 117.423132 475.460913
L 504.790355 475.460913
L 504.790355 461.195238
L 117.423132 461.195238
z
" clip-path="url(#pac0bae293f)" style="fill: #e41a1c"/>
   </g>
   <g id="patch_17">
    <path d="M 557.715762 475.460913
L 720.099618 475.460913
L 720.099618 461.195238
L 557.715762 461.195238
z
" clip-path="url(#pac0bae293f)" style="fill: #377eb8"/>
   </g>
   <g id="patch_18">
    <path d="M 504.810509 475.460913
L 557.695608 475.460913
L 557.695608 461.195238
L 504.810509 461.195238
z
" clip-path="url(#pac0bae293f)" style="fill: #d3d3d3"/>
   </g>
   <g id="patch_19">
    <path d="M 117.423132 503.992262
L 553.120563 503.992262
L 553.120563 489.726587
L 117.423132 489.726587
z
" clip-path="url(#pac0bae293f)" style="fill: #e41a1c"/>
   </g>
   <g id="patch_20">
    <path d="M 556.022794 503.992262
L 720.099618 503.992262
L 720.099618 489.726587
L 556.022794 489.726587
z
" clip-path="url(#pac0bae293f)" style="fill: #377eb8"/>
   </g>
   <g id="patch_21">
    <path d="M 553.140717 503.992262
L 556.002639 503.992262
L 556.002639 489.726587
L 553.140717 489.726587
z
" clip-path="url(#pac0bae293f)" style="fill: #d3d3d3"/>
   </g>
   <g id="patch_22">
    <path d="M 117.423132 532.523611
L 553.120563 532.523611
L 553.120563 518.257937
L 117.423132 518.257937
z
" clip-path="url(#pac0bae293f)" style="fill: #e41a1c"/>
   </g>
   <g id="patch_23">
    <path d="M 556.022794 532.523611
L 720.099618 532.523611
L 720.099618 518.257937
L 556.022794 518.257937
z
" clip-path="url(#pac0bae293f)" style="fill: #4daf4a"/>
   </g>
   <g id="patch_24">
    <path d="M 553.140717 532.523611
L 556.002639 532.523611
L 556.002639 518.257937
L 553.140717 518.257937
z
" clip-path="url(#pac0bae293f)" style="fill: #d3d3d3"/>
   </g>
   <g id="patch_25">
    <path d="M 117.423132 561.05496
L 560.55753 561.05496
L 560.55753 546.789286
L 117.423132 546.789286
z
" clip-path="url(#pac0bae293f)" style="fill: #e41a1c"/>
   </g>
   <g id="patch_26">
    <path d="M 572.46877 561.05496
L 720.099618 561.05496
L 720.099618 546.789286
L 572.46877 546.789286
z
" clip-path="url(#pac0bae293f)" style="fill: #377eb8"/>
   </g>
   <g id="patch_27">
    <path d="M 560.577684 561.05496
L 572.448615 561.05496
L 572.448615 546.789286
L 560.577684 546.789286
z
" clip-path="url(#pac0bae293f)" style="fill: #d3d3d3"/>
   </g>
   <g id="patch_28">
    <path d="M 117.423132 589.58631
L 560.55753 589.58631
L 560.55753 575.320635
L 117.423132 575.320635
z
" clip-path="url(#pac0bae293f)" style="fill: #e41a1c"/>
   </g>
   <g id="patch_29">
    <path d="M 633.052842 589.58631
L 720.099618 589.58631
L 720.099618 575.320635
L 633.052842 575.320635
z
" clip-path="url(#pac0bae293f)" style="fill: #e41a1c"/>
   </g>
   <g id="patch_30">
    <path d="M 574.383436 589.58631
L 630.735088 589.58631
L 630.735088 575.320635
L 574.383436 575.320635
z
" clip-path="url(#pac0bae293f)" style="fill: #377eb8"/>
   </g>
   <g id="patch_31">
    <path d="M 560.577684 589.58631
L 574.363281 589.58631
L 574.363281 575.320635
L 560.577684 575.320635
z
" clip-path="url(#pac0bae293f)" style="fill: #d3d3d3"/>
   </g>
   <g id="patch_32">
    <path d="M 630.755242 589.58631
L 633.032688 589.58631
L 633.032688 575.320635
L 630.755242 575.320635
z
" clip-path="url(#pac0bae293f)" style="fill: #d3d3d3"/>
   </g>
   <g id="patch_33">
    <path d="M 117.423132 618.117659
L 174.520496 618.117659
L 174.520496 603.851984
L 117.423132 603.851984
z
" clip-path="url(#pac0bae293f)" style="fill: #377eb8"/>
   </g>
   <g id="patch_34">
    <path d="M 201.749066 618.117659
L 720.099618 618.117659
L 720.099618 603.851984
L 201.749066 603.851984
z
" clip-path="url(#pac0bae293f)" style="fill: #4daf4a"/>
   </g>
   <g id="patch_35">
    <path d="M 174.540651 618.117659
L 201.728912 618.117659
L 201.728912 603.851984
L 174.540651 603.851984
z
" clip-path="url(#pac0bae293f)" style="fill: #d3d3d3"/>
   </g>
   <g id="patch_36">
    <path d="M 117.423132 646.649008
L 174.520496 646.649008
L 174.520496 632.383333
L 117.423132 632.383333
z
" clip-path="url(#pac0bae293f)" style="fill: #377eb8"/>
   </g>
   <g id="patch_37">
    <path d="M 201.749066 646.649008
L 720.099618 646.649008
L 720.099618 632.383333
L 201.749066 632.383333
z
" clip-path="url(#pac0bae293f)" style="fill: #4daf4a"/>
   </g>
   <g id="patch_38">
    <path d="M 174.540651 646.649008
L 201.728912 646.649008
L 201.728912 632.383333
L 174.540651 632.383333
z
" clip-path="url(#pac0bae293f)" style="fill: #d3d3d3"/>
   </g>
   <g id="patch_39">
    <path d="M 117.423132 675.180357
L 204.510217 675.180357
L 204.510217 660.914683
L 117.423132 660.914683
z
" clip-path="url(#pac0bae293f)" style="fill: #377eb8"/>
   </g>
   <g id="patch_40">
    <path d="M 225.974634 675.180357
L 720.099618 675.180357
L 720.099618 660.914683
L 225.974634 660.914683
z
" clip-path="url(#pac0bae293f)" style="fill: #4daf4a"/>
   </g>
   <g id="patch_41">
    <path d="M 204.530371 675.180357
L 225.954479 675.180357
L 225.954479 660.914683
L 204.530371 660.914683
z
" clip-path="url(#pac0bae293f)" style="fill: #d3d3d3"/>
   </g>
   <g id="patch_42">
    <path d="M 117.423132 703.711706
L 204.510217 703.711706
L 204.510217 689.446032
L 117.423132 689.446032
z
" clip-path="url(#pac0bae293f)" style="fill: #377eb8"/>
   </g>
   <g id="patch_43">
    <path d="M 216.018369 703.711706
L 720.099618 703.711706
L 720.099618 689.446032
L 216.018369 689.446032
z
" clip-path="url(#pac0bae293f)" style="fill: #4daf4a"/>
   </g>
   <g id="patch_44">
    <path d="M 204.530371 703.711706
L 215.998215 703.711706
L 215.998215 689.446032
L 204.530371 689.446032
z
" clip-path="url(#pac0bae293f)" style="fill: #d3d3d3"/>
   </g>
   <g id="patch_45">
    <path d="M 117.423132 732.243056
L 225.974634 732.243056
L 225.974634 717.977381
L 117.423132 717.977381
z
" clip-path="url(#pac0bae293f)" style="fill: #377eb8"/>
   </g>
   <g id="patch_46">
    <path d="M 286.377317 732.243056
L 720.099618 732.243056
L 720.099618 717.977381
L 286.377317 717.977381
z
" clip-path="url(#pac0bae293f)" style="fill: #4daf4a"/>
   </g>
   <g id="patch_47">
    <path d="M 225.994788 732.243056
L 286.357162 732.243056
L 286.357162 717.977381
L 225.994788 717.977381
z
" clip-path="url(#pac0bae293f)" style="fill: #d3d3d3"/>
   </g>
   <g id="patch_48">
    <path d="M 117.423132 760.774405
L 225.974634 760.774405
L 225.974634 746.50873
L 117.423132 746.50873
z
" clip-path="url(#pac0bae293f)" style="fill: #377eb8"/>
   </g>
   <g id="patch_49">
    <path d="M 286.57886 760.774405
L 720.099618 760.774405
L 720.099618 746.50873
L 286.57886 746.50873
z
" clip-path="url(#pac0bae293f)" style="fill: #4daf4a"/>
   </g>
   <g id="patch_50">
    <path d="M 225.994788 760.774405
L 286.558706 760.774405
L 286.558706 746.50873
L 225.994788 746.50873
z
" clip-path="url(#pac0bae293f)" style="fill: #d3d3d3"/>
   </g>
   <g id="patch_51">
    <path d="M 117.423132 789.305754
L 248.728931 789.305754
L 248.728931 775.040079
L 117.423132 775.040079
z
" clip-path="url(#pac0bae293f)" style="fill: #377eb8"/>
   </g>
   <g id="patch_52">
    <path d="M 286.57886 789.305754
L 720.099618 789.305754
L 720.099618 775.040079
L 286.57886 775.040079
z
" clip-path="url(#pac0bae293f)" style="fill: #4daf4a"/>
   </g>
   <g id="patch_53">
    <path d="M 248.749085 789.305754
L 286.558706 789.305754
L 286.558706 775.040079
L 248.749085 775.040079
z
" clip-path="url(#pac0bae293f)" style="fill: #d3d3d3"/>
   </g>
   <g id="patch_54">
    <path d="M 117.423132 817.837103
L 248.76924 817.837103
L 248.76924 803.571429
L 117.423132 803.571429
z
" clip-path="url(#pac0bae293f)" style="fill: #377eb8"/>
   </g>
   <g id="patch_55">
    <path d="M 286.57886 817.837103
L 720.099618 817.837103
L 720.099618 803.571429
L 286.57886 803.571429
z
" clip-path="url(#pac0bae293f)" style="fill: #4daf4a"/>
   </g>
   <g id="patch_56">
    <path d="M 248.789394 817.837103
L 286.558706 817.837103
L 286.558706 803.571429
L 248.789394 803.571429
z
" clip-path="url(#pac0bae293f)" style="fill: #d3d3d3"/>
   </g>
   <g id="patch_57">
    <path d="M 117.423132 846.368452
L 248.76924 846.368452
L 248.76924 832.102778
L 117.423132 832.102778
z
" clip-path="url(#pac0bae293f)" style="fill: #377eb8"/>
   </g>
   <g id="patch_58">
    <path d="M 305.745678 846.368452
L 720.099618 846.368452
L 720.099618 832.102778
L 305.745678 832.102778
z
" clip-path="url(#pac0bae293f)" style="fill: #4daf4a"/>
   </g>
   <g id="patch_59">
    <path d="M 248.789394 846.368452
L 305.725523 846.368452
L 305.725523 832.102778
L 248.789394 832.102778
z
" clip-path="url(#pac0bae293f)" style="fill: #d3d3d3"/>
   </g>
   <g id="patch_60">
    <path d="M 117.423132 874.899802
L 286.558706 874.899802
L 286.558706 860.634127
L 117.423132 860.634127
z
" clip-path="url(#pac0bae293f)" style="fill: #377eb8"/>
   </g>
   <g id="patch_61">
    <path d="M 305.745678 874.899802
L 720.099618 874.899802
L 720.099618 860.634127
L 305.745678 860.634127
z
" clip-path="url(#pac0bae293f)" style="fill: #4daf4a"/>
   </g>
   <g id="patch_62">
    <path d="M 286.57886 874.899802
L 305.725523 874.899802
L 305.725523 860.634127
L 286.57886 860.634127
z
" clip-path="url(#pac0bae293f)" style="fill: #d3d3d3"/>
   </g>
   <g id="patch_63">
    <path d="M 117.423132 903.431151
L 303.004682 903.431151
L 303.004682 889.165476
L 117.423132 889.165476
z
" clip-path="url(#pac0bae293f)" style="fill: #377eb8"/>
   </g>
   <g id="patch_64">
    <path d="M 305.745678 903.431151
L 720.099618 903.431151
L 720.099618 889.165476
L 305.745678 889.165476
z
" clip-path="url(#pac0bae293f)" style="fill: #4daf4a"/>
   </g>
   <g id="patch_65">
    <path d="M 303.024836 903.431151
L 305.725523 903.431151
L 305.725523 889.165476
L 303.024836 889.165476
z
" clip-path="url(#pac0bae293f)" style="fill: #d3d3d3"/>
   </g>
   <g id="patch_66">
    <path d="M 117.423132 931.9625
L 309.554856 931.9625
L 309.554856 917.696825
L 117.423132 917.696825
z
" clip-path="url(#pac0bae293f)" style="fill: #377eb8"/>
   </g>
   <g id="patch_67">
    <path d="M 319.551429 931.9625
L 720.099618 931.9625
L 720.099618 917.696825
L 319.551429 917.696825
z
" clip-path="url(#pac0bae293f)" style="fill: #4daf4a"/>
   </g>
   <g id="patch_68">
    <path d="M 309.57501 931.9625
L 319.531275 931.9625
L 319.531275 917.696825
L 309.57501 917.696825
z
" clip-path="url(#pac0bae293f)" style="fill: #d3d3d3"/>
   </g>
   <g id="patch_69">
    <path d="M 117.423132 960.493849
L 327.975961 960.493849
L 327.975961 946.228175
L 117.423132 946.228175
z
" clip-path="url(#pac0bae293f)" style="fill: #377eb8"/>
   </g>
   <g id="patch_70">
    <path d="M 349.944238 960.493849
L 720.099618 960.493849
L 720.099618 946.228175
L 349.944238 946.228175
z
" clip-path="url(#pac0bae293f)" style="fill: #4daf4a"/>
   </g>
   <g id="patch_71">
    <path d="M 327.996116 960.493849
L 349.924083 960.493849
L 349.924083 946.228175
L 327.996116 946.228175
z
" clip-path="url(#pac0bae293f)" style="fill: #d3d3d3"/>
   </g>
   <g id="patch_72">
    <path d="M 117.423132 989.025198
L 327.975961 989.025198
L 327.975961 974.759524
L 117.423132 974.759524
z
" clip-path="url(#pac0bae293f)" style="fill: #377eb8"/>
   </g>
   <g id="patch_73">
    <path d="M 349.944238 989.025198
L 720.099618 989.025198
L 720.099618 974.759524
L 349.944238 974.759524
z
" clip-path="url(#pac0bae293f)" style="fill: #4daf4a"/>
   </g>
   <g id="patch_74">
    <path d="M 327.996116 989.025198
L 349.924083 989.025198
L 349.924083 974.759524
L 327.996116 974.759524
z
" clip-path="url(#pac0bae293f)" style="fill: #d3d3d3"/>
   </g>
   <g id="patch_75">
    <path d="M 117.423132 1017.556548
L 327.975961 1017.556548
L 327.975961 1003.290873
L 117.423132 1003.290873
z
" clip-path="url(#pac0bae293f)" style="fill: #377eb8"/>
   </g>
   <g id="patch_76">
    <path d="M 344.925796 1017.556548
L 720.099618 1017.556548
L 720.099618 1003.290873
L 344.925796 1003.290873
z
" clip-path="url(#pac0bae293f)" style="fill: #4daf4a"/>
   </g>
   <g id="patch_77">
    <path d="M 327.996116 1017.556548
L 344.905642 1017.556548
L 344.905642 1003.290873
L 327.996116 1003.290873
z
" clip-path="url(#pac0bae293f)" style="fill: #d3d3d3"/>
   </g>
   <g id="patch_78">
    <path d="M 117.423132 1046.087897
L 349.944238 1046.087897
L 349.944238 1031.822222
L 117.423132 1031.822222
z
" clip-path="url(#pac0bae293f)" style="fill: #377eb8"/>
   </g>
   <g id="patch_79">
    <path d="M 377.011573 1046.087897
L 720.099618 1046.087897
L 720.099618 1031.822222
L 377.011573 1031.822222
z
" clip-path="url(#pac0bae293f)" style="fill: #4daf4a"/>
   </g>
   <g id="patch_80">
    <path d="M 349.964392 1046.087897
L 376.991418 1046.087897
L 376.991418 1031.822222
L 349.964392 1031.822222
z
" clip-path="url(#pac0bae293f)" style="fill: #d3d3d3"/>
   </g>
   <g id="patch_81">
    <path d="M 117.423132 1074.619246
L 349.944238 1074.619246
L 349.944238 1060.353571
L 117.423132 1060.353571
z
" clip-path="url(#pac0bae293f)" style="fill: #377eb8"/>
   </g>
   <g id="patch_82">
    <path d="M 377.011573 1074.619246
L 720.099618 1074.619246
L 720.099618 1060.353571
L 377.011573 1060.353571
z
" clip-path="url(#pac0bae293f)" style="fill: #4daf4a"/>
   </g>
   <g id="patch_83">
    <path d="M 349.964392 1074.619246
L 376.991418 1074.619246
L 376.991418 1060.353571
L 349.964392 1060.353571
z
" clip-path="url(#pac0bae293f)" style="fill: #d3d3d3"/>
   </g>
   <g id="patch_84">
    <path d="M 117.423132 1103.150595
L 349.984546 1103.150595
L 349.984546 1088.884921
L 117.423132 1088.884921
z
" clip-path="url(#pac0bae293f)" style="fill: #377eb8"/>
   </g>
   <g id="patch_85">
    <path d="M 377.011573 1103.150595
L 720.099618 1103.150595
L 720.099618 1088.884921
L 377.011573 1088.884921
z
" clip-path="url(#pac0bae293f)" style="fill: #4daf4a"/>
   </g>
   <g id="patch_86">
    <path d="M 350.004701 1103.150595
L 376.991418 1103.150595
L 376.991418 1088.884921
L 350.004701 1088.884921
z
" clip-path="url(#pac0bae293f)" style="fill: #d3d3d3"/>
   </g>
   <g id="patch_87">
    <path d="M 117.423132 1131.681944
L 383.360203 1131.681944
L 383.360203 1117.41627
L 117.423132 1117.41627
z
" clip-path="url(#pac0bae293f)" style="fill: #377eb8"/>
   </g>
   <g id="patch_88">
    <path d="M 424.575914 1131.681944
L 720.099618 1131.681944
L 720.099618 1117.41627
L 424.575914 1117.41627
z
" clip-path="url(#pac0bae293f)" style="fill: #4daf4a"/>
   </g>
   <g id="patch_89">
    <path d="M 383.380357 1131.681944
L 424.55576 1131.681944
L 424.55576 1117.41627
L 383.380357 1117.41627
z
" clip-path="url(#pac0bae293f)" style="fill: #d3d3d3"/>
   </g>
   <g id="patch_90">
    <path d="M 117.423132 1160.213294
L 383.360203 1160.213294
L 383.360203 1145.947619
L 117.423132 1145.947619
z
" clip-path="url(#pac0bae293f)" style="fill: #377eb8"/>
   </g>
   <g id="patch_91">
    <path d="M 434.129091 1160.213294
L 720.099618 1160.213294
L 720.099618 1145.947619
L 434.129091 1145.947619
z
" clip-path="url(#pac0bae293f)" style="fill: #4daf4a"/>
   </g>
   <g id="patch_92">
    <path d="M 383.380357 1160.213294
L 434.108937 1160.213294
L 434.108937 1145.947619
L 383.380357 1145.947619
z
" clip-path="url(#pac0bae293f)" style="fill: #d3d3d3"/>
   </g>
   <g id="patch_93">
    <path d="M 117.423132 1188.744643
L 424.575914 1188.744643
L 424.575914 1174.478968
L 117.423132 1174.478968
z
" clip-path="url(#pac0bae293f)" style="fill: #377eb8"/>
   </g>
   <g id="patch_94">
    <path d="M 434.129091 1188.744643
L 720.099618 1188.744643
L 720.099618 1174.478968
L 434.129091 1174.478968
z
" clip-path="url(#pac0bae293f)" style="fill: #4daf4a"/>
   </g>
   <g id="patch_95">
    <path d="M 424.596069 1188.744643
L 434.108937 1188.744643
L 434.108937 1174.478968
L 424.596069 1174.478968
z
" clip-path="url(#pac0bae293f)" style="fill: #d3d3d3"/>
   </g>
   <g id="patch_96">
    <path d="M 117.423132 1217.275992
L 434.108937 1217.275992
L 434.108937 1203.010317
L 117.423132 1203.010317
z
" clip-path="url(#pac0bae293f)" style="fill: #377eb8"/>
   </g>
   <g id="patch_97">
    <path d="M 468.331078 1217.275992
L 720.099618 1217.275992
L 720.099618 1203.010317
L 468.331078 1203.010317
z
" clip-path="url(#pac0bae293f)" style="fill: #4daf4a"/>
   </g>
   <g id="patch_98">
    <path d="M 434.129091 1217.275992
L 468.310923 1217.275992
L 468.310923 1203.010317
L 434.129091 1203.010317
z
" clip-path="url(#pac0bae293f)" style="fill: #d3d3d3"/>
   </g>
   <g id="patch_99">
    <path d="M 117.423132 1245.807341
L 468.310923 1245.807341
L 468.310923 1231.541667
L 117.423132 1231.541667
z
" clip-path="url(#pac0bae293f)" style="fill: #377eb8"/>
   </g>
   <g id="patch_100">
    <path d="M 519.603826 1245.807341
L 720.099618 1245.807341
L 720.099618 1231.541667
L 519.603826 1231.541667
z
" clip-path="url(#pac0bae293f)" style="fill: #4daf4a"/>
   </g>
   <g id="patch_101">
    <path d="M 468.331078 1245.807341
L 519.583671 1245.807341
L 519.583671 1231.541667
L 468.331078 1231.541667
z
" clip-path="url(#pac0bae293f)" style="fill: #d3d3d3"/>
   </g>
   <g id="patch_102">
    <path d="M 117.423132 1274.33869
L 468.310923 1274.33869
L 468.310923 1260.073016
L 117.423132 1260.073016
z
" clip-path="url(#pac0bae293f)" style="fill: #377eb8"/>
   </g>
   <g id="patch_103">
    <path d="M 519.603826 1274.33869
L 720.099618 1274.33869
L 720.099618 1260.073016
L 519.603826 1260.073016
z
" clip-path="url(#pac0bae293f)" style="fill: #4daf4a"/>
   </g>
   <g id="patch_104">
    <path d="M 468.331078 1274.33869
L 519.583671 1274.33869
L 519.583671 1260.073016
L 468.331078 1260.073016
z
" clip-path="url(#pac0bae293f)" style="fill: #d3d3d3"/>
   </g>
   <g id="patch_105">
    <path d="M 117.423132 1302.87004
L 468.310923 1302.87004
L 468.310923 1288.604365
L 117.423132 1288.604365
z
" clip-path="url(#pac0bae293f)" style="fill: #377eb8"/>
   </g>
   <g id="patch_106">
    <path d="M 519.603826 1302.87004
L 720.099618 1302.87004
L 720.099618 1288.604365
L 519.603826 1288.604365
z
" clip-path="url(#pac0bae293f)" style="fill: #4daf4a"/>
   </g>
   <g id="patch_107">
    <path d="M 468.331078 1302.87004
L 519.583671 1302.87004
L 519.583671 1288.604365
L 468.331078 1288.604365
z
" clip-path="url(#pac0bae293f)" style="fill: #d3d3d3"/>
   </g>
   <g id="patch_108">
    <path d="M 117.423132 1331.401389
L 468.310923 1331.401389
L 468.310923 1317.135714
L 117.423132 1317.135714
z
" clip-path="url(#pac0bae293f)" style="fill: #377eb8"/>
   </g>
   <g id="patch_109">
    <path d="M 519.603826 1331.401389
L 720.099618 1331.401389
L 720.099618 1317.135714
L 519.603826 1317.135714
z
" clip-path="url(#pac0bae293f)" style="fill: #4daf4a"/>
   </g>
   <g id="patch_110">
    <path d="M 468.331078 1331.401389
L 519.583671 1331.401389
L 519.583671 1317.135714
L 468.331078 1317.135714
z
" clip-path="url(#pac0bae293f)" style="fill: #d3d3d3"/>
   </g>
   <g id="patch_111">
    <path d="M 117.423132 1359.932738
L 468.351232 1359.932738
L 468.351232 1345.667063
L 117.423132 1345.667063
z
" clip-path="url(#pac0bae293f)" style="fill: #377eb8"/>
   </g>
   <g id="patch_112">
    <path d="M 519.583671 1359.932738
L 720.099618 1359.932738
L 720.099618 1345.667063
L 519.583671 1345.667063
z
" clip-path="url(#pac0bae293f)" style="fill: #4daf4a"/>
   </g>
   <g id="patch_113">
    <path d="M 468.371386 1359.932738
L 519.563517 1359.932738
L 519.563517 1345.667063
L 468.371386 1345.667063
z
" clip-path="url(#pac0bae293f)" style="fill: #d3d3d3"/>
   </g>
   <g id="patch_114">
    <path d="M 117.423132 1388.464087
L 521.599109 1388.464087
L 521.599109 1374.198413
L 117.423132 1374.198413
z
" clip-path="url(#pac0bae293f)" style="fill: #377eb8"/>
   </g>
   <g id="patch_115">
    <path d="M 553.140717 1388.464087
L 720.099618 1388.464087
L 720.099618 1374.198413
L 553.140717 1374.198413
z
" clip-path="url(#pac0bae293f)" style="fill: #4daf4a"/>
   </g>
   <g id="patch_116">
    <path d="M 521.619264 1388.464087
L 553.120563 1388.464087
L 553.120563 1374.198413
L 521.619264 1374.198413
z
" clip-path="url(#pac0bae293f)" style="fill: #d3d3d3"/>
   </g>
   <g id="patch_117">
    <path d="M 117.423132 1416.995437
L 521.619264 1416.995437
L 521.619264 1402.729762
L 117.423132 1402.729762
z
" clip-path="url(#pac0bae293f)" style="fill: #377eb8"/>
   </g>
   <g id="patch_118">
    <path d="M 553.120563 1416.995437
L 720.099618 1416.995437
L 720.099618 1402.729762
L 553.120563 1402.729762
z
" clip-path="url(#pac0bae293f)" style="fill: #4daf4a"/>
   </g>
   <g id="patch_119">
    <path d="M 521.639418 1416.995437
L 553.100408 1416.995437
L 553.100408 1402.729762
L 521.639418 1402.729762
z
" clip-path="url(#pac0bae293f)" style="fill: #d3d3d3"/>
   </g>
   <g id="patch_120">
    <path d="M 117.423132 1445.526786
L 669.33073 1445.526786
L 669.33073 1431.261111
L 117.423132 1431.261111
z
" clip-path="url(#pac0bae293f)" style="fill: #377eb8"/>
   </g>
   <g id="patch_121">
    <path d="M 712.178946 1445.526786
L 720.099618 1445.526786
L 720.099618 1431.261111
L 712.178946 1431.261111
z
" clip-path="url(#pac0bae293f)" style="fill: #4daf4a"/>
   </g>
   <g id="patch_122">
    <path d="M 669.350884 1445.526786
L 712.158791 1445.526786
L 712.158791 1431.261111
L 669.350884 1431.261111
z
" clip-path="url(#pac0bae293f)" style="fill: #d3d3d3"/>
   </g>
   <g id="patch_123">
    <path d="M 286.57886 1474.058135
L 720.099618 1474.058135
L 720.099618 1459.79246
L 286.57886 1459.79246
z
" clip-path="url(#pac0bae293f)" style="fill: #377eb8"/>
   </g>
   <g id="patch_124">
    <path d="M 117.423132 1474.058135
L 248.728931 1474.058135
L 248.728931 1459.79246
L 117.423132 1459.79246
z
" clip-path="url(#pac0bae293f)" style="fill: #4daf4a"/>
   </g>
   <g id="patch_125">
    <path d="M 248.749085 1474.058135
L 286.558706 1474.058135
L 286.558706 1459.79246
L 248.749085 1459.79246
z
" clip-path="url(#pac0bae293f)" style="fill: #d3d3d3"/>
   </g>
   <g id="patch_126">
    <path d="M 377.011573 1502.589484
L 720.099618 1502.589484
L 720.099618 1488.32381
L 377.011573 1488.32381
z
" clip-path="url(#pac0bae293f)" style="fill: #377eb8"/>
   </g>
   <g id="patch_127">
    <path d="M 117.423132 1502.589484
L 349.944238 1502.589484
L 349.944238 1488.32381
L 117.423132 1488.32381
z
" clip-path="url(#pac0bae293f)" style="fill: #4daf4a"/>
   </g>
   <g id="patch_128">
    <path d="M 349.964392 1502.589484
L 376.991418 1502.589484
L 376.991418 1488.32381
L 349.964392 1488.32381
z
" clip-path="url(#pac0bae293f)" style="fill: #d3d3d3"/>
   </g>
   <g id="patch_129">
    <path d="M 483.507327 1531.120833
L 603.728216 1531.120833
L 603.728216 1516.855159
L 483.507327 1516.855159
z
" clip-path="url(#pac0bae293f)" style="fill: #377eb8"/>
   </g>
   <g id="patch_130">
    <path d="M 117.423132 1531.120833
L 468.290769 1531.120833
L 468.290769 1516.855159
L 117.423132 1516.855159
z
" clip-path="url(#pac0bae293f)" style="fill: #4daf4a"/>
   </g>
   <g id="patch_131">
    <path d="M 611.286109 1531.120833
L 720.099618 1531.120833
L 720.099618 1516.855159
L 611.286109 1516.855159
z
" clip-path="url(#pac0bae293f)" style="fill: #4daf4a"/>
   </g>
   <g id="patch_132">
    <path d="M 468.310923 1531.120833
L 483.487173 1531.120833
L 483.487173 1516.855159
L 468.310923 1516.855159
z
" clip-path="url(#pac0bae293f)" style="fill: #d3d3d3"/>
   </g>
   <g id="patch_133">
    <path d="M 603.74837 1531.120833
L 611.265955 1531.120833
L 611.265955 1516.855159
L 603.74837 1516.855159
z
" clip-path="url(#pac0bae293f)" style="fill: #d3d3d3"/>
   </g>
   <g id="patch_134">
    <path d="M 642.42463 1559.652183
L 720.099618 1559.652183
L 720.099618 1545.386508
L 642.42463 1545.386508
z
" clip-path="url(#pac0bae293f)" style="fill: #377eb8"/>
   </g>
   <g id="patch_135">
    <path d="M 117.423132 1559.652183
L 611.306264 1559.652183
L 611.306264 1545.386508
L 117.423132 1545.386508
z
" clip-path="url(#pac0bae293f)" style="fill: #4daf4a"/>
   </g>
   <g id="patch_136">
    <path d="M 611.326418 1559.652183
L 642.404475 1559.652183
L 642.404475 1545.386508
L 611.326418 1545.386508
z
" clip-path="url(#pac0bae293f)" style="fill: #d3d3d3"/>
   </g>
   <g id="patch_137">
    <path d="M 642.646328 1588.183532
L 720.099618 1588.183532
L 720.099618 1573.917857
L 642.646328 1573.917857
z
" clip-path="url(#pac0bae293f)" style="fill: #377eb8"/>
   </g>
   <g id="patch_138">
    <path d="M 117.423132 1588.183532
L 611.265955 1588.183532
L 611.265955 1573.917857
L 117.423132 1573.917857
z
" clip-path="url(#pac0bae293f)" style="fill: #4daf4a"/>
   </g>
   <g id="patch_139">
    <path d="M 611.286109 1588.183532
L 642.626173 1588.183532
L 642.626173 1573.917857
L 611.286109 1573.917857
z
" clip-path="url(#pac0bae293f)" style="fill: #d3d3d3"/>
   </g>
   <g id="patch_140">
    <path d="M 642.646328 1616.714881
L 720.099618 1616.714881
L 720.099618 1602.449206
L 642.646328 1602.449206
z
" clip-path="url(#pac0bae293f)" style="fill: #377eb8"/>
   </g>
   <g id="patch_141">
    <path d="M 117.423132 1616.714881
L 611.265955 1616.714881
L 611.265955 1602.449206
L 117.423132 1602.449206
z
" clip-path="url(#pac0bae293f)" style="fill: #4daf4a"/>
   </g>
   <g id="patch_142">
    <path d="M 611.286109 1616.714881
L 642.626173 1616.714881
L 642.626173 1602.449206
L 611.286109 1602.449206
z
" clip-path="url(#pac0bae293f)" style="fill: #d3d3d3"/>
   </g>
   <g id="patch_143">
    <path d="M 652.098733 1645.24623
L 720.099618 1645.24623
L 720.099618 1630.980556
L 652.098733 1630.980556
z
" clip-path="url(#pac0bae293f)" style="fill: #377eb8"/>
   </g>
   <g id="patch_144">
    <path d="M 117.423132 1645.24623
L 642.666482 1645.24623
L 642.666482 1630.980556
L 117.423132 1630.980556
z
" clip-path="url(#pac0bae293f)" style="fill: #4daf4a"/>
   </g>
   <g id="patch_145">
    <path d="M 642.686637 1645.24623
L 652.078579 1645.24623
L 652.078579 1630.980556
L 642.686637 1630.980556
z
" clip-path="url(#pac0bae293f)" style="fill: #d3d3d3"/>
   </g>
   <g id="patch_146">
    <path d="M 652.098733 1673.777579
L 720.099618 1673.777579
L 720.099618 1659.511905
L 652.098733 1659.511905
z
" clip-path="url(#pac0bae293f)" style="fill: #377eb8"/>
   </g>
   <g id="patch_147">
    <path d="M 117.423132 1673.777579
L 642.666482 1673.777579
L 642.666482 1659.511905
L 117.423132 1659.511905
z
" clip-path="url(#pac0bae293f)" style="fill: #4daf4a"/>
   </g>
   <g id="patch_148">
    <path d="M 642.686637 1673.777579
L 652.078579 1673.777579
L 652.078579 1659.511905
L 642.686637 1659.511905
z
" clip-path="url(#pac0bae293f)" style="fill: #d3d3d3"/>
   </g>
   <g id="patch_149">
    <path d="M 652.098733 1702.308929
L 720.099618 1702.308929
L 720.099618 1688.043254
L 652.098733 1688.043254
z
" clip-path="url(#pac0bae293f)" style="fill: #377eb8"/>
   </g>
   <g id="patch_150">
    <path d="M 117.423132 1702.308929
L 642.686637 1702.308929
L 642.686637 1688.043254
L 117.423132 1688.043254
z
" clip-path="url(#pac0bae293f)" style="fill: #4daf4a"/>
   </g>
   <g id="patch_151">
    <path d="M 642.706791 1702.308929
L 652.078579 1702.308929
L 652.078579 1688.043254
L 642.706791 1688.043254
z
" clip-path="url(#pac0bae293f)" style="fill: #d3d3d3"/>
   </g>
   <g id="patch_152">
    <path d="M 652.098733 1730.840278
L 720.099618 1730.840278
L 720.099618 1716.574603
L 652.098733 1716.574603
z
" clip-path="url(#pac0bae293f)" style="fill: #377eb8"/>
   </g>
   <g id="patch_153">
    <path d="M 117.423132 1730.840278
L 642.686637 1730.840278
L 642.686637 1716.574603
L 117.423132 1716.574603
z
" clip-path="url(#pac0bae293f)" style="fill: #4daf4a"/>
   </g>
   <g id="patch_154">
    <path d="M 642.706791 1730.840278
L 652.078579 1730.840278
L 652.078579 1716.574603
L 642.706791 1716.574603
z
" clip-path="url(#pac0bae293f)" style="fill: #d3d3d3"/>
   </g>
   <g id="patch_155">
    <path d="M 652.118887 1759.371627
L 720.099618 1759.371627
L 720.099618 1745.105952
L 652.118887 1745.105952
z
" clip-path="url(#pac0bae293f)" style="fill: #377eb8"/>
   </g>
   <g id="patch_156">
    <path d="M 117.423132 1759.371627
L 642.646328 1759.371627
L 642.646328 1745.105952
L 117.423132 1745.105952
z
" clip-path="url(#pac0bae293f)" style="fill: #4daf4a"/>
   </g>
   <g id="patch_157">
    <path d="M 642.666482 1759.371627
L 652.098733 1759.371627
L 652.098733 1745.105952
L 642.666482 1745.105952
z
" clip-path="url(#pac0bae293f)" style="fill: #d3d3d3"/>
   </g>
   <g id="patch_158">
    <path d="M 669.290421 1787.902976
L 720.099618 1787.902976
L 720.099618 1773.637302
L 669.290421 1773.637302
z
" clip-path="url(#pac0bae293f)" style="fill: #377eb8"/>
   </g>
   <g id="patch_159">
    <path d="M 117.423132 1787.902976
L 658.729525 1787.902976
L 658.729525 1773.637302
L 117.423132 1773.637302
z
" clip-path="url(#pac0bae293f)" style="fill: #4daf4a"/>
   </g>
   <g id="patch_160">
    <path d="M 658.749679 1787.902976
L 669.270266 1787.902976
L 669.270266 1773.637302
L 658.749679 1773.637302
z
" clip-path="url(#pac0bae293f)" style="fill: #d3d3d3"/>
   </g>
   <g id="patch_161">
    <path d="M 117.423132 1816.434325
L 483.467019 1816.434325
L 483.467019 1802.168651
L 117.423132 1802.168651
z
" clip-path="url(#pac0bae293f)" style="fill: #4daf4a"/>
   </g>
   <g id="patch_162">
    <path d="M 517.749622 1816.434325
L 720.099618 1816.434325
L 720.099618 1802.168651
L 517.749622 1802.168651
z
" clip-path="url(#pac0bae293f)" style="fill: #984ea3"/>
   </g>
   <g id="patch_163">
    <path d="M 483.487173 1816.434325
L 517.729468 1816.434325
L 517.729468 1802.168651
L 483.487173 1802.168651
z
" clip-path="url(#pac0bae293f)" style="fill: #d3d3d3"/>
   </g>
   <g id="matplotlib.axis_3">
    <g id="xtick_8">
     <g id="line2d_8">
      <g>
       <use xlink:href="#m7dd73bbe1b" x="117.423132" y="1830.7" style="stroke: #000000; stroke-width: 0.8"/>
      </g>
     </g>
     <g id="text_1">
      <text style="font: 10px 'sans-serif'; text-anchor: middle" x="117.423132" y="1845.298438" transform="rotate(-0, 117.423132, 1845.298438)">0</text>
     </g>
    </g>
    <g id="xtick_9">
     <g id="line2d_9">
      <g>
       <use xlink:href="#m7dd73bbe1b" x="218.195042" y="1830.7" style="stroke: #000000; stroke-width: 0.8"/>
      </g>
     </g>
     <g id="text_2">
      <text style="font: 10px 'sans-serif'; text-anchor: middle" x="218.195042" y="1845.298438" transform="rotate(-0, 218.195042, 1845.298438)">5000</text>
     </g>
    </g>
    <g id="xtick_10">
     <g id="line2d_10">
      <g>
       <use xlink:href="#m7dd73bbe1b" x="318.966952" y="1830.7" style="stroke: #000000; stroke-width: 0.8"/>
      </g>
     </g>
     <g id="text_3">
      <text style="font: 10px 'sans-serif'; text-anchor: middle" x="318.966952" y="1845.298438" transform="rotate(-0, 318.966952, 1845.298438)">10000</text>
     </g>
    </g>
    <g id="xtick_11">
     <g id="line2d_11">
      <g>
       <use xlink:href="#m7dd73bbe1b" x="419.738863" y="1830.7" style="stroke: #000000; stroke-width: 0.8"/>
      </g>
     </g>
     <g id="text_4">
      <text style="font: 10px 'sans-serif'; text-anchor: middle" x="419.738863" y="1845.298438" transform="rotate(-0, 419.738863, 1845.298438)">15000</text>
     </g>
    </g>
    <g id="xtick_12">
     <g id="line2d_12">
      <g>
       <use xlink:href="#m7dd73bbe1b" x="520.510773" y="1830.7" style="stroke: #000000; stroke-width: 0.8"/>
      </g>
     </g>
     <g id="text_5">
      <text style="font: 10px 'sans-serif'; text-anchor: middle" x="520.510773" y="1845.298438" transform="rotate(-0, 520.510773, 1845.298438)">20000</text>
     </g>
    </g>
    <g id="xtick_13">
     <g id="line2d_13">
      <g>
       <use xlink:href="#m7dd73bbe1b" x="621.282683" y="1830.7" style="stroke: #000000; stroke-width: 0.8"/>
      </g>
     </g>
     <g id="text_6">
      <text style="font: 10px 'sans-serif'; text-anchor: middle" x="621.282683" y="1845.298438" transform="rotate(-0, 621.282683, 1845.298438)">25000</text>
     </g>
    </g>
    <g id="xtick_14">
     <g id="line2d_14">
      <g>
       <use xlink:href="#m7dd73bbe1b" x="722.054593" y="1830.7" style="stroke: #000000; stroke-width: 0.8"/>
      </g>
     </g>
     <g id="text_7">
      <text style="font: 10px 'sans-serif'; text-anchor: middle" x="722.054593" y="1845.298438" transform="rotate(-0, 722.054593, 1845.298438)">30000</text>
     </g>
    </g>
    <g id="text_8">
     <text style="font: 10px 'sans-serif'; text-anchor: middle" x="418.761375" y="1858.976563" transform="rotate(-0, 418.761375, 1858.976563)">Genomic Coordinate</text>
    </g>
   </g>
   <g id="matplotlib.axis_4">
    <g id="ytick_1">
     <g id="line2d_15">
      <defs>
       <path id="mf1e38e87fe" d="M 0 0
L -3.5 0
" style="stroke: #000000; stroke-width: 0.8"/>
      </defs>
      <g>
       <use xlink:href="#mf1e38e87fe" x="97.26875" y="354.202679" style="stroke: #000000; stroke-width: 0.8"/>
      </g>
     </g>
     <g id="text_9">
      <text style="font: 10px 'sans-serif'; text-anchor: end" x="90.26875" y="358.001897" transform="rotate(-0, 90.26875, 358.001897)">XF</text>
     </g>
    </g>
    <g id="ytick_2">
     <g id="line2d_16">
      <g>
       <use xlink:href="#mf1e38e87fe" x="97.26875" y="382.734028" style="stroke: #000000; stroke-width: 0.8"/>
      </g>
     </g>
     <g id="text_10">
      <text style="font: 10px 'sans-serif'; text-anchor: end" x="90.26875" y="386.533247" transform="rotate(-0, 90.26875, 386.533247)">proposed446</text>
     </g>
    </g>
    <g id="ytick_3">
     <g id="line2d_17">
      <g>
       <use xlink:href="#mf1e38e87fe" x="97.26875" y="411.265377" style="stroke: #000000; stroke-width: 0.8"/>
      </g>
     </g>
     <g id="text_11">
      <text style="font: 10px 'sans-serif'; text-anchor: end" x="90.26875" y="415.064596" transform="rotate(-0, 90.26875, 415.064596)">XS</text>
     </g>
    </g>
    <g id="ytick_4">
     <g id="line2d_18">
      <g>
       <use xlink:href="#mf1e38e87fe" x="97.26875" y="439.796726" style="stroke: #000000; stroke-width: 0.8"/>
      </g>
     </g>
     <g id="text_12">
      <text style="font: 10px 'sans-serif'; text-anchor: end" x="90.26875" y="443.595945" transform="rotate(-0, 90.26875, 443.595945)">proposed519</text>
     </g>
    </g>
    <g id="ytick_5">
     <g id="line2d_19">
      <g>
       <use xlink:href="#mf1e38e87fe" x="97.26875" y="468.328075" style="stroke: #000000; stroke-width: 0.8"/>
      </g>
     </g>
     <g id="text_13">
      <text style="font: 10px 'sans-serif'; text-anchor: end" x="90.26875" y="472.127294" transform="rotate(-0, 90.26875, 472.127294)">proposed476</text>
     </g>
    </g>
    <g id="ytick_6">
     <g id="line2d_20">
      <g>
       <use xlink:href="#mf1e38e87fe" x="97.26875" y="496.859425" style="stroke: #000000; stroke-width: 0.8"/>
      </g>
     </g>
     <g id="text_14">
      <text style="font: 10px 'sans-serif'; text-anchor: end" x="90.26875" y="500.658643" transform="rotate(-0, 90.26875, 500.658643)">proposed441</text>
     </g>
    </g>
    <g id="ytick_7">
     <g id="line2d_21">
      <g>
       <use xlink:href="#mf1e38e87fe" x="97.26875" y="525.390774" style="stroke: #000000; stroke-width: 0.8"/>
      </g>
     </g>
     <g id="text_15">
      <text style="font: 10px 'sans-serif'; text-anchor: end" x="90.26875" y="529.189993" transform="rotate(-0, 90.26875, 529.189993)">proposed484</text>
     </g>
    </g>
    <g id="ytick_8">
     <g id="line2d_22">
      <g>
       <use xlink:href="#mf1e38e87fe" x="97.26875" y="553.922123" style="stroke: #000000; stroke-width: 0.8"/>
      </g>
     </g>
     <g id="text_16">
      <text style="font: 10px 'sans-serif'; text-anchor: end" x="90.26875" y="557.721342" transform="rotate(-0, 90.26875, 557.721342)">proposed439</text>
     </g>
    </g>
    <g id="ytick_9">
     <g id="line2d_23">
      <g>
       <use xlink:href="#mf1e38e87fe" x="97.26875" y="582.453472" style="stroke: #000000; stroke-width: 0.8"/>
      </g>
     </g>
     <g id="text_17">
      <text style="font: 10px 'sans-serif'; text-anchor: end" x="90.26875" y="586.252691" transform="rotate(-0, 90.26875, 586.252691)">XD</text>
     </g>
    </g>
    <g id="ytick_10">
     <g id="line2d_24">
      <g>
       <use xlink:href="#mf1e38e87fe" x="97.26875" y="610.984821" style="stroke: #000000; stroke-width: 0.8"/>
      </g>
     </g>
     <g id="text_18">
      <text style="font: 10px 'sans-serif'; text-anchor: end" x="90.26875" y="614.78404" transform="rotate(-0, 90.26875, 614.78404)">XN</text>
     </g>
    </g>
    <g id="ytick_11">
     <g id="line2d_25">
      <g>
       <use xlink:href="#mf1e38e87fe" x="97.26875" y="639.516171" style="stroke: #000000; stroke-width: 0.8"/>
      </g>
     </g>
     <g id="text_19">
      <text style="font: 10px 'sans-serif'; text-anchor: end" x="90.26875" y="643.315389" transform="rotate(-0, 90.26875, 643.315389)">proposed591</text>
     </g>
    </g>
    <g id="ytick_12">
     <g id="line2d_26">
      <g>
       <use xlink:href="#mf1e38e87fe" x="97.26875" y="668.04752" style="stroke: #000000; stroke-width: 0.8"/>
      </g>
     </g>
     <g id="text_20">
      <text style="font: 10px 'sans-serif'; text-anchor: end" x="90.26875" y="671.846739" transform="rotate(-0, 90.26875, 671.846739)">XQ</text>
     </g>
    </g>
    <g id="ytick_13">
     <g id="line2d_27">
      <g>
       <use xlink:href="#mf1e38e87fe" x="97.26875" y="696.578869" style="stroke: #000000; stroke-width: 0.8"/>
      </g>
     </g>
     <g id="text_21">
      <text style="font: 10px 'sans-serif'; text-anchor: end" x="90.26875" y="700.378088" transform="rotate(-0, 90.26875, 700.378088)">XR</text>
     </g>
    </g>
    <g id="ytick_14">
     <g id="line2d_28">
      <g>
       <use xlink:href="#mf1e38e87fe" x="97.26875" y="725.110218" style="stroke: #000000; stroke-width: 0.8"/>
      </g>
     </g>
     <g id="text_22">
      <text style="font: 10px 'sans-serif'; text-anchor: end" x="90.26875" y="728.909437" transform="rotate(-0, 90.26875, 728.909437)">XG</text>
     </g>
    </g>
    <g id="ytick_15">
     <g id="line2d_29">
      <g>
       <use xlink:href="#mf1e38e87fe" x="97.26875" y="753.641567" style="stroke: #000000; stroke-width: 0.8"/>
      </g>
     </g>
     <g id="text_23">
      <text style="font: 10px 'sans-serif'; text-anchor: end" x="90.26875" y="757.440786" transform="rotate(-0, 90.26875, 757.440786)">proposed759</text>
     </g>
    </g>
    <g id="ytick_16">
     <g id="line2d_30">
      <g>
       <use xlink:href="#mf1e38e87fe" x="97.26875" y="782.172917" style="stroke: #000000; stroke-width: 0.8"/>
      </g>
     </g>
     <g id="text_24">
      <text style="font: 10px 'sans-serif'; text-anchor: end" x="90.26875" y="785.972135" transform="rotate(-0, 90.26875, 785.972135)">XAB</text>
     </g>
    </g>
    <g id="ytick_17">
     <g id="line2d_31">
      <g>
       <use xlink:href="#mf1e38e87fe" x="97.26875" y="810.704266" style="stroke: #000000; stroke-width: 0.8"/>
      </g>
     </g>
     <g id="text_25">
      <text style="font: 10px 'sans-serif'; text-anchor: end" x="90.26875" y="814.503485" transform="rotate(-0, 90.26875, 814.503485)">XL</text>
     </g>
    </g>
    <g id="ytick_18">
     <g id="line2d_32">
      <g>
       <use xlink:href="#mf1e38e87fe" x="97.26875" y="839.235615" style="stroke: #000000; stroke-width: 0.8"/>
      </g>
     </g>
     <g id="text_26">
      <text style="font: 10px 'sans-serif'; text-anchor: end" x="90.26875" y="843.034834" transform="rotate(-0, 90.26875, 843.034834)">XU</text>
     </g>
    </g>
    <g id="ytick_19">
     <g id="line2d_33">
      <g>
       <use xlink:href="#mf1e38e87fe" x="97.26875" y="867.766964" style="stroke: #000000; stroke-width: 0.8"/>
      </g>
     </g>
     <g id="text_27">
      <text style="font: 10px 'sans-serif'; text-anchor: end" x="90.26875" y="871.566183" transform="rotate(-0, 90.26875, 871.566183)">XAA</text>
     </g>
    </g>
    <g id="ytick_20">
     <g id="line2d_34">
      <g>
       <use xlink:href="#mf1e38e87fe" x="97.26875" y="896.298313" style="stroke: #000000; stroke-width: 0.8"/>
      </g>
     </g>
     <g id="text_28">
      <text style="font: 10px 'sans-serif'; text-anchor: end" x="90.26875" y="900.097532" transform="rotate(-0, 90.26875, 900.097532)">proposed470</text>
     </g>
    </g>
    <g id="ytick_21">
     <g id="line2d_35">
      <g>
       <use xlink:href="#mf1e38e87fe" x="97.26875" y="924.829663" style="stroke: #000000; stroke-width: 0.8"/>
      </g>
     </g>
     <g id="text_29">
      <text style="font: 10px 'sans-serif'; text-anchor: end" x="90.26875" y="928.628881" transform="rotate(-0, 90.26875, 928.628881)">proposed479</text>
     </g>
    </g>
    <g id="ytick_22">
     <g id="line2d_36">
      <g>
       <use xlink:href="#mf1e38e87fe" x="97.26875" y="953.361012" style="stroke: #000000; stroke-width: 0.8"/>
      </g>
     </g>
     <g id="text_30">
      <text style="font: 10px 'sans-serif'; text-anchor: end" x="90.26875" y="957.160231" transform="rotate(-0, 90.26875, 957.160231)">XH</text>
     </g>
    </g>
    <g id="ytick_23">
     <g id="line2d_37">
      <g>
       <use xlink:href="#mf1e38e87fe" x="97.26875" y="981.892361" style="stroke: #000000; stroke-width: 0.8"/>
      </g>
     </g>
     <g id="text_31">
      <text style="font: 10px 'sans-serif'; text-anchor: end" x="90.26875" y="985.69158" transform="rotate(-0, 90.26875, 985.69158)">XE</text>
     </g>
    </g>
    <g id="ytick_24">
     <g id="line2d_38">
      <g>
       <use xlink:href="#mf1e38e87fe" x="97.26875" y="1010.42371" style="stroke: #000000; stroke-width: 0.8"/>
      </g>
     </g>
     <g id="text_32">
      <text style="font: 10px 'sans-serif'; text-anchor: end" x="90.26875" y="1014.222929" transform="rotate(-0, 90.26875, 1014.222929)">XAF</text>
     </g>
    </g>
    <g id="ytick_25">
     <g id="line2d_39">
      <g>
       <use xlink:href="#mf1e38e87fe" x="97.26875" y="1038.95506" style="stroke: #000000; stroke-width: 0.8"/>
      </g>
     </g>
     <g id="text_33">
      <text style="font: 10px 'sans-serif'; text-anchor: end" x="90.26875" y="1042.754278" transform="rotate(-0, 90.26875, 1042.754278)">proposed518</text>
     </g>
    </g>
    <g id="ytick_26">
     <g id="line2d_40">
      <g>
       <use xlink:href="#mf1e38e87fe" x="97.26875" y="1067.486409" style="stroke: #000000; stroke-width: 0.8"/>
      </g>
     </g>
     <g id="text_34">
      <text style="font: 10px 'sans-serif'; text-anchor: end" x="90.26875" y="1071.285627" transform="rotate(-0, 90.26875, 1071.285627)">proposed557</text>
     </g>
    </g>
    <g id="ytick_27">
     <g id="line2d_41">
      <g>
       <use xlink:href="#mf1e38e87fe" x="97.26875" y="1096.017758" style="stroke: #000000; stroke-width: 0.8"/>
      </g>
     </g>
     <g id="text_35">
      <text style="font: 10px 'sans-serif'; text-anchor: end" x="90.26875" y="1099.816977" transform="rotate(-0, 90.26875, 1099.816977)">XY</text>
     </g>
    </g>
    <g id="ytick_28">
     <g id="line2d_42">
      <g>
       <use xlink:href="#mf1e38e87fe" x="97.26875" y="1124.549107" style="stroke: #000000; stroke-width: 0.8"/>
      </g>
     </g>
     <g id="text_36">
      <text style="font: 10px 'sans-serif'; text-anchor: end" x="90.26875" y="1128.348326" transform="rotate(-0, 90.26875, 1128.348326)">XJ</text>
     </g>
    </g>
    <g id="ytick_29">
     <g id="line2d_43">
      <g>
       <use xlink:href="#mf1e38e87fe" x="97.26875" y="1153.080456" style="stroke: #000000; stroke-width: 0.8"/>
      </g>
     </g>
     <g id="text_37">
      <text style="font: 10px 'sans-serif'; text-anchor: end" x="90.26875" y="1156.879675" transform="rotate(-0, 90.26875, 1156.879675)">proposed463</text>
     </g>
    </g>
    <g id="ytick_30">
     <g id="line2d_44">
      <g>
       <use xlink:href="#mf1e38e87fe" x="97.26875" y="1181.611806" style="stroke: #000000; stroke-width: 0.8"/>
      </g>
     </g>
     <g id="text_38">
      <text style="font: 10px 'sans-serif'; text-anchor: end" x="90.26875" y="1185.411024" transform="rotate(-0, 90.26875, 1185.411024)">proposed467</text>
     </g>
    </g>
    <g id="ytick_31">
     <g id="line2d_45">
      <g>
       <use xlink:href="#mf1e38e87fe" x="97.26875" y="1210.143155" style="stroke: #000000; stroke-width: 0.8"/>
      </g>
     </g>
     <g id="text_39">
      <text style="font: 10px 'sans-serif'; text-anchor: end" x="90.26875" y="1213.942374" transform="rotate(-0, 90.26875, 1213.942374)">proposed559</text>
     </g>
    </g>
    <g id="ytick_32">
     <g id="line2d_46">
      <g>
       <use xlink:href="#mf1e38e87fe" x="97.26875" y="1238.674504" style="stroke: #000000; stroke-width: 0.8"/>
      </g>
     </g>
     <g id="text_40">
      <text style="font: 10px 'sans-serif'; text-anchor: end" x="90.26875" y="1242.473723" transform="rotate(-0, 90.26875, 1242.473723)">XK</text>
     </g>
    </g>
    <g id="ytick_33">
     <g id="line2d_47">
      <g>
       <use xlink:href="#mf1e38e87fe" x="97.26875" y="1267.205853" style="stroke: #000000; stroke-width: 0.8"/>
      </g>
     </g>
     <g id="text_41">
      <text style="font: 10px 'sans-serif'; text-anchor: end" x="90.26875" y="1271.005072" transform="rotate(-0, 90.26875, 1271.005072)">XM</text>
     </g>
    </g>
    <g id="ytick_34">
     <g id="line2d_48">
      <g>
       <use xlink:href="#mf1e38e87fe" x="97.26875" y="1295.737202" style="stroke: #000000; stroke-width: 0.8"/>
      </g>
     </g>
     <g id="text_42">
      <text style="font: 10px 'sans-serif'; text-anchor: end" x="90.26875" y="1299.536421" transform="rotate(-0, 90.26875, 1299.536421)">proposed781</text>
     </g>
    </g>
    <g id="ytick_35">
     <g id="line2d_49">
      <g>
       <use xlink:href="#mf1e38e87fe" x="97.26875" y="1324.268552" style="stroke: #000000; stroke-width: 0.8"/>
      </g>
     </g>
     <g id="text_43">
      <text style="font: 10px 'sans-serif'; text-anchor: end" x="90.26875" y="1328.06777" transform="rotate(-0, 90.26875, 1328.06777)">proposed798</text>
     </g>
    </g>
    <g id="ytick_36">
     <g id="line2d_50">
      <g>
       <use xlink:href="#mf1e38e87fe" x="97.26875" y="1352.799901" style="stroke: #000000; stroke-width: 0.8"/>
      </g>
     </g>
     <g id="text_44">
      <text style="font: 10px 'sans-serif'; text-anchor: end" x="90.26875" y="1356.59912" transform="rotate(-0, 90.26875, 1356.59912)">proposed757</text>
     </g>
    </g>
    <g id="ytick_37">
     <g id="line2d_51">
      <g>
       <use xlink:href="#mf1e38e87fe" x="97.26875" y="1381.33125" style="stroke: #000000; stroke-width: 0.8"/>
      </g>
     </g>
     <g id="text_45">
      <text style="font: 10px 'sans-serif'; text-anchor: end" x="90.26875" y="1385.130469" transform="rotate(-0, 90.26875, 1385.130469)">proposed514</text>
     </g>
    </g>
    <g id="ytick_38">
     <g id="line2d_52">
      <g>
       <use xlink:href="#mf1e38e87fe" x="97.26875" y="1409.862599" style="stroke: #000000; stroke-width: 0.8"/>
      </g>
     </g>
     <g id="text_46">
      <text style="font: 10px 'sans-serif'; text-anchor: end" x="90.26875" y="1413.661818" transform="rotate(-0, 90.26875, 1413.661818)">proposed477</text>
     </g>
    </g>
    <g id="ytick_39">
     <g id="line2d_53">
      <g>
       <use xlink:href="#mf1e38e87fe" x="97.26875" y="1438.393948" style="stroke: #000000; stroke-width: 0.8"/>
      </g>
     </g>
     <g id="text_47">
      <text style="font: 10px 'sans-serif'; text-anchor: end" x="90.26875" y="1442.193167" transform="rotate(-0, 90.26875, 1442.193167)">XP</text>
     </g>
    </g>
    <g id="ytick_40">
     <g id="line2d_54">
      <g>
       <use xlink:href="#mf1e38e87fe" x="97.26875" y="1466.925298" style="stroke: #000000; stroke-width: 0.8"/>
      </g>
     </g>
     <g id="text_48">
      <text style="font: 10px 'sans-serif'; text-anchor: end" x="90.26875" y="1470.724516" transform="rotate(-0, 90.26875, 1470.724516)">XAG</text>
     </g>
    </g>
    <g id="ytick_41">
     <g id="line2d_55">
      <g>
       <use xlink:href="#mf1e38e87fe" x="97.26875" y="1495.456647" style="stroke: #000000; stroke-width: 0.8"/>
      </g>
     </g>
     <g id="text_49">
      <text style="font: 10px 'sans-serif'; text-anchor: end" x="90.26875" y="1499.255866" transform="rotate(-0, 90.26875, 1499.255866)">proposed513</text>
     </g>
    </g>
    <g id="ytick_42">
     <g id="line2d_56">
      <g>
       <use xlink:href="#mf1e38e87fe" x="97.26875" y="1523.987996" style="stroke: #000000; stroke-width: 0.8"/>
      </g>
     </g>
     <g id="text_50">
      <text style="font: 10px 'sans-serif'; text-anchor: end" x="90.26875" y="1527.787215" transform="rotate(-0, 90.26875, 1527.787215)">proposed498</text>
     </g>
    </g>
    <g id="ytick_43">
     <g id="line2d_57">
      <g>
       <use xlink:href="#mf1e38e87fe" x="97.26875" y="1552.519345" style="stroke: #000000; stroke-width: 0.8"/>
      </g>
     </g>
     <g id="text_51">
      <text style="font: 10px 'sans-serif'; text-anchor: end" x="90.26875" y="1556.318564" transform="rotate(-0, 90.26875, 1556.318564)">XAE</text>
     </g>
    </g>
    <g id="ytick_44">
     <g id="line2d_58">
      <g>
       <use xlink:href="#mf1e38e87fe" x="97.26875" y="1581.050694" style="stroke: #000000; stroke-width: 0.8"/>
      </g>
     </g>
     <g id="text_52">
      <text style="font: 10px 'sans-serif'; text-anchor: end" x="90.26875" y="1584.849913" transform="rotate(-0, 90.26875, 1584.849913)">XAC</text>
     </g>
    </g>
    <g id="ytick_45">
     <g id="line2d_59">
      <g>
       <use xlink:href="#mf1e38e87fe" x="97.26875" y="1609.582044" style="stroke: #000000; stroke-width: 0.8"/>
      </g>
     </g>
     <g id="text_53">
      <text style="font: 10px 'sans-serif'; text-anchor: end" x="90.26875" y="1613.381262" transform="rotate(-0, 90.26875, 1613.381262)">proposed608</text>
     </g>
    </g>
    <g id="ytick_46">
     <g id="line2d_60">
      <g>
       <use xlink:href="#mf1e38e87fe" x="97.26875" y="1638.113393" style="stroke: #000000; stroke-width: 0.8"/>
      </g>
     </g>
     <g id="text_54">
      <text style="font: 10px 'sans-serif'; text-anchor: end" x="90.26875" y="1641.912612" transform="rotate(-0, 90.26875, 1641.912612)">XT</text>
     </g>
    </g>
    <g id="ytick_47">
     <g id="line2d_61">
      <g>
       <use xlink:href="#mf1e38e87fe" x="97.26875" y="1666.644742" style="stroke: #000000; stroke-width: 0.8"/>
      </g>
     </g>
     <g id="text_55">
      <text style="font: 10px 'sans-serif'; text-anchor: end" x="90.26875" y="1670.443961" transform="rotate(-0, 90.26875, 1670.443961)">proposed482</text>
     </g>
    </g>
    <g id="ytick_48">
     <g id="line2d_62">
      <g>
       <use xlink:href="#mf1e38e87fe" x="97.26875" y="1695.176091" style="stroke: #000000; stroke-width: 0.8"/>
      </g>
     </g>
     <g id="text_56">
      <text style="font: 10px 'sans-serif'; text-anchor: end" x="90.26875" y="1698.97531" transform="rotate(-0, 90.26875, 1698.97531)">XAD</text>
     </g>
    </g>
    <g id="ytick_49">
     <g id="line2d_63">
      <g>
       <use xlink:href="#mf1e38e87fe" x="97.26875" y="1723.70744" style="stroke: #000000; stroke-width: 0.8"/>
      </g>
     </g>
     <g id="text_57">
      <text style="font: 10px 'sans-serif'; text-anchor: end" x="90.26875" y="1727.506659" transform="rotate(-0, 90.26875, 1727.506659)">proposed789</text>
     </g>
    </g>
    <g id="ytick_50">
     <g id="line2d_64">
      <g>
       <use xlink:href="#mf1e38e87fe" x="97.26875" y="1752.23879" style="stroke: #000000; stroke-width: 0.8"/>
      </g>
     </g>
     <g id="text_58">
      <text style="font: 10px 'sans-serif'; text-anchor: end" x="90.26875" y="1756.038008" transform="rotate(-0, 90.26875, 1756.038008)">XZ</text>
     </g>
    </g>
    <g id="ytick_51">
     <g id="line2d_65">
      <g>
       <use xlink:href="#mf1e38e87fe" x="97.26875" y="1780.770139" style="stroke: #000000; stroke-width: 0.8"/>
      </g>
     </g>
     <g id="text_59">
      <text style="font: 10px 'sans-serif'; text-anchor: end" x="90.26875" y="1784.569358" transform="rotate(-0, 90.26875, 1784.569358)">XAH</text>
     </g>
    </g>
    <g id="ytick_52">
     <g id="line2d_66">
      <g>
       <use xlink:href="#mf1e38e87fe" x="97.26875" y="1809.301488" style="stroke: #000000; stroke-width: 0.8"/>
      </g>
     </g>
     <g id="text_60">
      <text style="font: 10px 'sans-serif'; text-anchor: end" x="90.26875" y="1813.100707" transform="rotate(-0, 90.26875, 1813.100707)">proposed771</text>
     </g>
    </g>
    <g id="text_61">
     <text style="font: 10px 'sans-serif'; text-anchor: middle" x="18.570313" y="1081.752083" transform="rotate(-90, 18.570313, 1081.752083)">Lineage</text>
    </g>
   </g>
   <g id="patch_164">
    <path d="M 97.26875 1830.7
L 97.26875 332.804167
" style="fill: none; stroke: #000000; stroke-width: 0.8; stroke-linejoin: miter; stroke-linecap: square"/>
   </g>
   <g id="patch_165">
    <path d="M 740.254 1830.7
L 740.254 332.804167
" style="fill: none; stroke: #000000; stroke-width: 0.8; stroke-linejoin: miter; stroke-linecap: square"/>
   </g>
   <g id="patch_166">
    <path d="M 97.26875 1830.7
L 740.254 1830.7
" style="fill: none; stroke: #000000; stroke-width: 0.8; stroke-linejoin: miter; stroke-linecap: square"/>
   </g>
   <g id="patch_167">
    <path d="M 97.26875 332.804167
L 740.254 332.804167
" style="fill: none; stroke: #000000; stroke-width: 0.8; stroke-linejoin: miter; stroke-linecap: square"/>
   </g>
   <g id="legend_1">
    <g id="patch_168">
     <path d="M 749.683853 430.872917
L 854.86979 430.872917
L 854.86979 335.804167
L 749.683853 335.804167
z
" style="fill: #ffffff; opacity: 0.8; stroke: #000000; stroke-linejoin: miter"/>
    </g>
    <g id="text_62">
     <text style="font: 10px 'sans-serif'; text-anchor: start" x="786.274478" y="349.402604" transform="rotate(-0, 786.274478, 349.402604)">Parent</text>
    </g>
    <g id="line2d_67">
     <path d="M 755.683853 360.580729
L 765.683853 360.580729
L 775.683853 360.580729
" style="fill: none; stroke: #e41a1c; stroke-width: 4; stroke-linecap: square"/>
    </g>
    <g id="text_63">
     <text style="font: 10px 'sans-serif'; text-anchor: start" x="783.683853" y="364.080729" transform="rotate(-0, 783.683853, 364.080729)">Delta/21J</text>
    </g>
    <g id="line2d_68">
     <path d="M 755.683853 375.258854
L 765.683853 375.258854
L 775.683853 375.258854
" style="fill: none; stroke: #377eb8; stroke-width: 4; stroke-linecap: square"/>
    </g>
    <g id="text_64">
     <text style="font: 10px 'sans-serif'; text-anchor: start" x="783.683853" y="378.758854" transform="rotate(-0, 783.683853, 378.758854)">Omicron/21K</text>
    </g>
    <g id="line2d_69">
     <path d="M 755.683853 389.936979
L 765.683853 389.936979
L 775.683853 389.936979
" style="fill: none; stroke: #4daf4a; stroke-width: 4; stroke-linecap: square"/>
    </g>
    <g id="text_65">
     <text style="font: 10px 'sans-serif'; text-anchor: start" x="783.683853" y="393.436979" transform="rotate(-0, 783.683853, 393.436979)">Omicron/21L</text>
    </g>
    <g id="line2d_70">
     <path d="M 755.683853 404.615104
L 765.683853 404.615104
L 775.683853 404.615104
" style="fill: none; stroke: #984ea3; stroke-width: 4; stroke-linecap: square"/>
    </g>
    <g id="text_66">
     <text style="font: 10px 'sans-serif'; text-anchor: start" x="783.683853" y="408.115104" transform="rotate(-0, 783.683853, 408.115104)">Omicron/22B</text>
    </g>
    <g id="line2d_71">
     <path d="M 755.683853 419.293229
L 765.683853 419.293229
L 775.683853 419.293229
" style="fill: none; stroke: #d3d3d3; stroke-width: 4; stroke-linecap: square"/>
    </g>
    <g id="text_67">
     <text style="font: 10px 'sans-serif'; text-anchor: start" x="783.683853" y="422.793229" transform="rotate(-0, 783.683853, 422.793229)">Breakpoint</text>
    </g>
   </g>
  </g>
  <g id="text_68">
   <text style="font: 12px 'sans-serif'; text-anchor: middle" x="432" y="46.558125" transform="rotate(-0, 432, 46.558125)">Recombination Breakpoints by Lineage</text>
  </g>
 </g>
 <defs>
  <clipPath id="p896ebf1af8">
   <rect x="97.26875" y="33.225" width="642.98525" height="299.579167"/>
  </clipPath>
  <clipPath id="pac0bae293f">
   <rect x="97.26875" y="332.804167" width="642.98525" height="1497.895833"/>
  </clipPath>
 </defs>
</svg>
