<?xml version="1.0" encoding="utf-8" standalone="no"?>
<!DOCTYPE svg PUBLIC "-//W3C//DTD SVG 1.1//EN"
  "http://www.w3.org/Graphics/SVG/1.1/DTD/svg11.dtd">
<svg xmlns:xlink="http://www.w3.org/1999/xlink" width="864pt" height="1872pt" viewBox="0 0 864 1872" xmlns="http://www.w3.org/2000/svg" version="1.1">
 <metadata>
  <rdf:RDF xmlns:dc="http://purl.org/dc/elements/1.1/" xmlns:cc="http://creativecommons.org/ns#" xmlns:rdf="http://www.w3.org/1999/02/22-rdf-syntax-ns#">
   <cc:Work>
    <dc:type rdf:resource="http://purl.org/dc/dcmitype/StillImage"/>
    <dc:date>2022-07-07T16:50:34.422497</dc:date>
    <dc:format>image/svg+xml</dc:format>
    <dc:creator>
     <cc:Agent>
      <dc:title>Matplotlib v3.5.1, https://matplotlib.org/</dc:title>
     </cc:Agent>
    </dc:creator>
   </cc:Work>
  </rdf:RDF>
 </metadata>
 <defs>
  <style type="text/css">*{stroke-linejoin: round; stroke-linecap: butt}</style>
 </defs>
 <g id="figure_1">
  <g id="patch_1">
   <path d="M 0 1872
L 864 1872
L 864 0
L 0 0
z
" style="fill: #ffffff"/>
  </g>
  <g id="axes_1">
   <g id="patch_2">
    <path d="M 97.26875 332.804167
L 714.379 332.804167
L 714.379 33.225
L 97.26875 33.225
z
" style="fill: #ffffff"/>
   </g>
   <g id="PolyCollection_1">
    <defs>
     <path id="mc4be43cb5a" d="M 133.152005 -1540.563225
L 133.152005 -1539.195833
L 136.091885 -1539.195833
L 139.031766 -1539.195833
L 141.971647 -1539.195833
L 144.911527 -1539.195833
L 147.851408 -1539.195833
L 150.791289 -1539.195833
L 153.731169 -1539.195833
L 156.67105 -1539.195833
L 159.610931 -1539.195833
L 162.550811 -1539.195833
L 165.490692 -1539.195833
L 168.430573 -1539.195833
L 171.370453 -1539.195833
L 174.310334 -1539.195833
L 177.250215 -1539.195833
L 180.190095 -1539.195833
L 183.129976 -1539.195833
L 186.069857 -1539.195833
L 189.009737 -1539.195833
L 191.949618 -1539.195833
L 194.889499 -1539.195833
L 197.829379 -1539.195833
L 200.76926 -1539.195833
L 203.709141 -1539.195833
L 206.649021 -1539.195833
L 209.588902 -1539.195833
L 212.528783 -1539.195833
L 215.468663 -1539.195833
L 218.408544 -1539.195833
L 221.348425 -1539.195833
L 224.288305 -1539.195833
L 227.228186 -1539.195833
L 230.168067 -1539.195833
L 233.107947 -1539.195833
L 236.047828 -1539.195833
L 238.987709 -1539.195833
L 241.92759 -1539.195833
L 244.86747 -1539.195833
L 247.807351 -1539.195833
L 250.747232 -1539.195833
L 253.687112 -1539.195833
L 256.626993 -1539.195833
L 259.566874 -1539.195833
L 262.506754 -1539.195833
L 265.446635 -1539.195833
L 268.386516 -1539.195833
L 271.326396 -1539.195833
L 274.266277 -1539.195833
L 277.206158 -1539.195833
L 280.146038 -1539.195833
L 283.085919 -1539.195833
L 286.0258 -1539.195833
L 288.96568 -1539.195833
L 291.905561 -1539.195833
L 294.845442 -1539.195833
L 297.785322 -1539.195833
L 300.725203 -1539.195833
L 303.665084 -1539.195833
L 306.604964 -1539.195833
L 309.544845 -1539.195833
L 312.484726 -1539.195833
L 315.424606 -1539.195833
L 318.364487 -1539.195833
L 321.304368 -1539.195833
L 324.244248 -1539.195833
L 327.184129 -1539.195833
L 330.12401 -1539.195833
L 333.06389 -1539.195833
L 336.003771 -1539.195833
L 338.943652 -1539.195833
L 341.883532 -1539.195833
L 344.823413 -1539.195833
L 347.763294 -1539.195833
L 350.703174 -1539.195833
L 353.643055 -1539.195833
L 356.582936 -1539.195833
L 359.522816 -1539.195833
L 362.462697 -1539.195833
L 365.402578 -1539.195833
L 368.342458 -1539.195833
L 371.282339 -1539.195833
L 374.22222 -1539.195833
L 377.1621 -1539.195833
L 380.101981 -1539.195833
L 383.041862 -1539.195833
L 385.981742 -1539.195833
L 388.921623 -1539.195833
L 391.861504 -1539.195833
L 394.801384 -1539.195833
L 397.741265 -1539.195833
L 400.681146 -1539.195833
L 403.621026 -1539.195833
L 406.560907 -1539.195833
L 409.500788 -1539.195833
L 412.440668 -1539.195833
L 415.380549 -1539.195833
L 418.32043 -1539.195833
L 421.26031 -1539.195833
L 424.200191 -1539.195833
L 427.140072 -1539.195833
L 430.079952 -1539.195833
L 433.019833 -1539.195833
L 435.959714 -1539.195833
L 438.899594 -1539.195833
L 441.839475 -1539.195833
L 444.779356 -1539.195833
L 447.719236 -1539.195833
L 450.659117 -1539.195833
L 453.598998 -1539.195833
L 456.538878 -1539.195833
L 459.478759 -1539.195833
L 462.41864 -1539.195833
L 465.35852 -1539.195833
L 468.298401 -1539.195833
L 471.238282 -1539.195833
L 474.178162 -1539.195833
L 477.118043 -1539.195833
L 480.057924 -1539.195833
L 482.997804 -1539.195833
L 485.937685 -1539.195833
L 488.877566 -1539.195833
L 491.817446 -1539.195833
L 494.757327 -1539.195833
L 497.697208 -1539.195833
L 500.637088 -1539.195833
L 503.576969 -1539.195833
L 506.51685 -1539.195833
L 509.45673 -1539.195833
L 512.396611 -1539.195833
L 515.336492 -1539.195833
L 518.276372 -1539.195833
L 521.216253 -1539.195833
L 524.156134 -1539.195833
L 527.096014 -1539.195833
L 530.035895 -1539.195833
L 532.975776 -1539.195833
L 535.915656 -1539.195833
L 538.855537 -1539.195833
L 541.795418 -1539.195833
L 544.735298 -1539.195833
L 547.675179 -1539.195833
L 550.61506 -1539.195833
L 553.55494 -1539.195833
L 556.494821 -1539.195833
L 559.434702 -1539.195833
L 562.374582 -1539.195833
L 565.314463 -1539.195833
L 568.254344 -1539.195833
L 571.194225 -1539.195833
L 574.134105 -1539.195833
L 577.073986 -1539.195833
L 580.013867 -1539.195833
L 582.953747 -1539.195833
L 585.893628 -1539.195833
L 588.833509 -1539.195833
L 591.773389 -1539.195833
L 594.71327 -1539.195833
L 597.653151 -1539.195833
L 600.593031 -1539.195833
L 603.532912 -1539.195833
L 606.472793 -1539.195833
L 609.412673 -1539.195833
L 612.352554 -1539.195833
L 615.292435 -1539.195833
L 618.232315 -1539.195833
L 621.172196 -1539.195833
L 624.112077 -1539.195833
L 627.051957 -1539.195833
L 629.991838 -1539.195833
L 632.931719 -1539.195833
L 635.871599 -1539.195833
L 638.81148 -1539.195833
L 641.751361 -1539.195833
L 644.691241 -1539.195833
L 647.631122 -1539.195833
L 650.571003 -1539.195833
L 653.510883 -1539.195833
L 656.450764 -1539.195833
L 659.390645 -1539.195833
L 662.330525 -1539.195833
L 665.270406 -1539.195833
L 668.210287 -1539.195833
L 671.150167 -1539.195833
L 674.090048 -1539.195833
L 677.029929 -1539.195833
L 679.969809 -1539.195833
L 682.90969 -1539.195833
L 685.849571 -1539.195833
L 688.789451 -1539.195833
L 691.729332 -1539.195833
L 694.669213 -1539.195833
L 697.609093 -1539.195833
L 700.548974 -1539.195833
L 703.488855 -1539.195833
L 706.428735 -1539.195833
L 709.368616 -1539.195833
L 712.308497 -1539.195833
L 715.248377 -1539.195833
L 718.188258 -1539.195833
L 718.188258 -1539.874683
L 718.188258 -1539.874683
L 715.248377 -1540.167641
L 712.308497 -1540.559804
L 709.368616 -1541.073263
L 706.428735 -1541.730957
L 703.488855 -1542.55544
L 700.548974 -1543.567535
L 697.609093 -1544.785087
L 694.669213 -1546.222119
L 691.729332 -1547.888666
L 688.789451 -1549.791546
L 685.849571 -1551.936177
L 682.90969 -1554.329364
L 679.969809 -1556.982735
L 677.029929 -1559.916245
L 674.090048 -1563.160972
L 671.150167 -1566.76033
L 668.210287 -1570.768883
L 665.270406 -1575.2482
L 662.330525 -1580.259579
L 659.390645 -1585.85403
L 656.450764 -1592.060465
L 653.510883 -1598.873555
L 650.571003 -1606.243031
L 647.631122 -1614.066266
L 644.691241 -1622.185715
L 641.751361 -1630.39224
L 638.81148 -1638.434547
L 635.871599 -1646.034094
L 632.931719 -1652.904016
L 629.991838 -1658.769967
L 627.051957 -1663.390494
L 624.112077 -1666.574658
L 621.172196 -1668.195004
L 618.232315 -1668.194723
L 615.292435 -1666.588659
L 612.352554 -1663.458619
L 609.412673 -1658.944121
L 606.472793 -1653.230077
L 603.532912 -1646.533076
L 600.593031 -1639.087771
L 597.653151 -1631.134551
L 594.71327 -1622.909283
L 591.773389 -1614.635439
L 588.833509 -1606.5186
L 585.893628 -1598.74301
L 582.953747 -1591.469727
L 580.013867 -1584.835858
L 577.073986 -1578.954394
L 574.134105 -1573.914242
L 571.194225 -1569.780191
L 568.254344 -1566.592647
L 565.314463 -1564.367164
L 562.374582 -1563.093864
L 559.434702 -1562.737016
L 556.494821 -1563.235108
L 553.55494 -1564.501813
L 550.61506 -1566.428279
L 547.675179 -1568.887103
L 544.735298 -1571.738262
L 541.795418 -1574.837025
L 538.855537 -1578.043615
L 535.915656 -1581.234055
L 532.975776 -1584.311218
L 530.035895 -1587.214863
L 527.096014 -1589.929138
L 524.156134 -1592.486084
L 521.216253 -1594.963836
L 518.276372 -1597.478759
L 515.336492 -1600.171451
L 512.396611 -1603.18751
L 509.45673 -1606.654898
L 506.51685 -1610.660578
L 503.576969 -1615.229632
L 500.637088 -1620.310145
L 497.697208 -1625.766669
L 494.757327 -1631.384092
L 491.817446 -1636.88232
L 488.877566 -1641.940586
L 485.937685 -1646.228659
L 482.997804 -1649.441053
L 480.057924 -1651.329739
L 477.118043 -1651.731013
L 474.178162 -1650.582965
L 471.238282 -1647.931426
L 468.298401 -1643.92397
L 465.35852 -1638.793251
L 462.41864 -1632.832409
L 459.478759 -1626.366179
L 456.538878 -1619.721596
L 453.598998 -1613.201863
L 450.659117 -1607.066075
L 447.719236 -1601.516311
L 444.779356 -1596.692427
L 441.839475 -1592.673713
L 438.899594 -1589.485861
L 435.959714 -1587.111223
L 433.019833 -1585.500346
L 430.079952 -1584.583056
L 427.140072 -1584.277865
L 424.200191 -1584.499101
L 421.26031 -1585.161702
L 418.32043 -1586.184122
L 415.380549 -1587.490006
L 412.440668 -1589.009434
L 409.500788 -1590.680335
L 406.560907 -1592.450476
L 403.621026 -1594.279987
L 400.681146 -1596.144094
L 397.741265 -1598.035383
L 394.801384 -1599.964803
L 391.861504 -1601.960652
L 388.921623 -1604.065029
L 385.981742 -1606.327673
L 383.041862 -1608.797598
L 380.101981 -1611.51347
L 377.1621 -1614.49405
L 374.22222 -1617.730215
L 371.282339 -1621.179977
L 368.342458 -1624.76753
L 365.402578 -1628.386763
L 362.462697 -1631.908955
L 359.522816 -1635.193702
L 356.582936 -1638.101578
L 353.643055 -1640.506835
L 350.703174 -1642.308478
L 347.763294 -1643.438452
L 344.823413 -1643.866192
L 341.883532 -1643.599421
L 338.943652 -1642.681611
L 336.003771 -1641.186879
L 333.06389 -1639.213273
L 330.12401 -1636.875357
L 327.184129 -1634.296836
L 324.244248 -1631.603783
L 321.304368 -1628.918801
L 318.364487 -1626.356343
L 315.424606 -1624.019289
L 312.484726 -1621.996814
L 309.544845 -1620.363453
L 306.604964 -1619.179127
L 303.665084 -1618.489689
L 300.725203 -1618.32742
L 297.785322 -1618.71082
L 294.845442 -1619.643133
L 291.905561 -1621.109348
L 288.96568 -1623.071828
L 286.0258 -1625.465272
L 283.085919 -1628.192173
L 280.146038 -1631.120251
L 277.206158 -1634.083331
L 274.266277 -1636.886823
L 271.326396 -1639.31829
L 268.386516 -1641.162733
L 265.446635 -1642.221277
L 262.506754 -1642.331169
L 259.566874 -1641.384466
L 256.626993 -1639.342753
L 253.687112 -1636.245546
L 250.747232 -1632.210878
L 247.807351 -1627.427555
L 244.86747 -1622.139762
L 241.92759 -1616.62574
L 238.987709 -1611.173039
L 236.047828 -1606.053276
L 233.107947 -1601.49927
L 230.168067 -1597.687018
L 227.228186 -1594.724177
L 224.288305 -1592.645825
L 221.348425 -1591.417272
L 218.408544 -1590.942868
L 215.468663 -1591.079181
L 212.528783 -1591.650596
L 209.588902 -1592.465455
L 206.649021 -1593.331134
L 203.709141 -1594.066935
L 200.76926 -1594.514186
L 197.829379 -1594.543444
L 194.889499 -1594.059003
L 191.949618 -1593.001117
L 189.009737 -1591.346325
L 186.069857 -1589.106183
L 183.129976 -1586.324575
L 180.190095 -1583.073647
L 177.250215 -1579.448435
L 174.310334 -1575.560306
L 171.370453 -1571.529501
L 168.430573 -1567.477272
L 165.490692 -1563.518209
L 162.550811 -1559.753444
L 159.610931 -1556.265348
L 156.67105 -1553.114164
L 153.731169 -1550.336773
L 150.791289 -1547.947519
L 147.851408 -1545.940771
L 144.911527 -1544.29472
L 141.971647 -1542.97583
L 139.031766 -1541.94338
L 136.091885 -1541.153623
L 133.152005 -1540.563225
z
" style="stroke: #000000"/>
    </defs>
    <g clip-path="url(#pde21a9947e)">
     <use xlink:href="#mc4be43cb5a" x="0" y="1872" style="fill: #4daf4a; fill-opacity: 0.75; stroke: #000000"/>
    </g>
   </g>
   <g id="PolyCollection_2">
    <defs>
     <path id="mba073d4d86" d="M 133.152005 -1541.945155
L 133.152005 -1540.563225
L 136.091885 -1541.153623
L 139.031766 -1541.94338
L 141.971647 -1542.97583
L 144.911527 -1544.29472
L 147.851408 -1545.940771
L 150.791289 -1547.947519
L 153.731169 -1550.336773
L 156.67105 -1553.114164
L 159.610931 -1556.265348
L 162.550811 -1559.753444
L 165.490692 -1563.518209
L 168.430573 -1567.477272
L 171.370453 -1571.529501
L 174.310334 -1575.560306
L 177.250215 -1579.448435
L 180.190095 -1583.073647
L 183.129976 -1586.324575
L 186.069857 -1589.106183
L 189.009737 -1591.346325
L 191.949618 -1593.001117
L 194.889499 -1594.059003
L 197.829379 -1594.543444
L 200.76926 -1594.514186
L 203.709141 -1594.066935
L 206.649021 -1593.331134
L 209.588902 -1592.465455
L 212.528783 -1591.650596
L 215.468663 -1591.079181
L 218.408544 -1590.942868
L 221.348425 -1591.417272
L 224.288305 -1592.645825
L 227.228186 -1594.724177
L 230.168067 -1597.687018
L 233.107947 -1601.49927
L 236.047828 -1606.053276
L 238.987709 -1611.173039
L 241.92759 -1616.62574
L 244.86747 -1622.139762
L 247.807351 -1627.427555
L 250.747232 -1632.210878
L 253.687112 -1636.245546
L 256.626993 -1639.342753
L 259.566874 -1641.384466
L 262.506754 -1642.331169
L 265.446635 -1642.221277
L 268.386516 -1641.162733
L 271.326396 -1639.31829
L 274.266277 -1636.886823
L 277.206158 -1634.083331
L 280.146038 -1631.120251
L 283.085919 -1628.192173
L 286.0258 -1625.465272
L 288.96568 -1623.071828
L 291.905561 -1621.109348
L 294.845442 -1619.643133
L 297.785322 -1618.71082
L 300.725203 -1618.32742
L 303.665084 -1618.489689
L 306.604964 -1619.179127
L 309.544845 -1620.363453
L 312.484726 -1621.996814
L 315.424606 -1624.019289
L 318.364487 -1626.356343
L 321.304368 -1628.918801
L 324.244248 -1631.603783
L 327.184129 -1634.296836
L 330.12401 -1636.875357
L 333.06389 -1639.213273
L 336.003771 -1641.186879
L 338.943652 -1642.681611
L 341.883532 -1643.599421
L 344.823413 -1643.866192
L 347.763294 -1643.438452
L 350.703174 -1642.308478
L 353.643055 -1640.506835
L 356.582936 -1638.101578
L 359.522816 -1635.193702
L 362.462697 -1631.908955
L 365.402578 -1628.386763
L 368.342458 -1624.76753
L 371.282339 -1621.179977
L 374.22222 -1617.730215
L 377.1621 -1614.49405
L 380.101981 -1611.51347
L 383.041862 -1608.797598
L 385.981742 -1606.327673
L 388.921623 -1604.065029
L 391.861504 -1601.960652
L 394.801384 -1599.964803
L 397.741265 -1598.035383
L 400.681146 -1596.144094
L 403.621026 -1594.279987
L 406.560907 -1592.450476
L 409.500788 -1590.680335
L 412.440668 -1589.009434
L 415.380549 -1587.490006
L 418.32043 -1586.184122
L 421.26031 -1585.161702
L 424.200191 -1584.499101
L 427.140072 -1584.277865
L 430.079952 -1584.583056
L 433.019833 -1585.500346
L 435.959714 -1587.111223
L 438.899594 -1589.485861
L 441.839475 -1592.673713
L 444.779356 -1596.692427
L 447.719236 -1601.516311
L 450.659117 -1607.066075
L 453.598998 -1613.201863
L 456.538878 -1619.721596
L 459.478759 -1626.366179
L 462.41864 -1632.832409
L 465.35852 -1638.793251
L 468.298401 -1643.92397
L 471.238282 -1647.931426
L 474.178162 -1650.582965
L 477.118043 -1651.731013
L 480.057924 -1651.329739
L 482.997804 -1649.441053
L 485.937685 -1646.228659
L 488.877566 -1641.940586
L 491.817446 -1636.88232
L 494.757327 -1631.384092
L 497.697208 -1625.766669
L 500.637088 -1620.310145
L 503.576969 -1615.229632
L 506.51685 -1610.660578
L 509.45673 -1606.654898
L 512.396611 -1603.18751
L 515.336492 -1600.171451
L 518.276372 -1597.478759
L 521.216253 -1594.963836
L 524.156134 -1592.486084
L 527.096014 -1589.929138
L 530.035895 -1587.214863
L 532.975776 -1584.311218
L 535.915656 -1581.234055
L 538.855537 -1578.043615
L 541.795418 -1574.837025
L 544.735298 -1571.738262
L 547.675179 -1568.887103
L 550.61506 -1566.428279
L 553.55494 -1564.501813
L 556.494821 -1563.235108
L 559.434702 -1562.737016
L 562.374582 -1563.093864
L 565.314463 -1564.367164
L 568.254344 -1566.592647
L 571.194225 -1569.780191
L 574.134105 -1573.914242
L 577.073986 -1578.954394
L 580.013867 -1584.835858
L 582.953747 -1591.469727
L 585.893628 -1598.74301
L 588.833509 -1606.5186
L 591.773389 -1614.635439
L 594.71327 -1622.909283
L 597.653151 -1631.134551
L 600.593031 -1639.087771
L 603.532912 -1646.533076
L 606.472793 -1653.230077
L 609.412673 -1658.944121
L 612.352554 -1663.458619
L 615.292435 -1666.588659
L 618.232315 -1668.194723
L 621.172196 -1668.195004
L 624.112077 -1666.574658
L 627.051957 -1663.390494
L 629.991838 -1658.769967
L 632.931719 -1652.904016
L 635.871599 -1646.034094
L 638.81148 -1638.434547
L 641.751361 -1630.39224
L 644.691241 -1622.185715
L 647.631122 -1614.066266
L 650.571003 -1606.243031
L 653.510883 -1598.873555
L 656.450764 -1592.060465
L 659.390645 -1585.85403
L 662.330525 -1580.259579
L 665.270406 -1575.2482
L 668.210287 -1570.768883
L 671.150167 -1566.76033
L 674.090048 -1563.160972
L 677.029929 -1559.916245
L 679.969809 -1556.982735
L 682.90969 -1554.329364
L 685.849571 -1551.936177
L 688.789451 -1549.791546
L 691.729332 -1547.888666
L 694.669213 -1546.222119
L 697.609093 -1544.785087
L 700.548974 -1543.567535
L 703.488855 -1542.55544
L 706.428735 -1541.730957
L 709.368616 -1541.073263
L 712.308497 -1540.559804
L 715.248377 -1540.167641
L 718.188258 -1539.874683
L 718.188258 -1540.560636
L 718.188258 -1540.560636
L 715.248377 -1541.148391
L 712.308497 -1541.934738
L 709.368616 -1542.963784
L 706.428735 -1544.281324
L 703.488855 -1545.932397
L 700.548974 -1547.958623
L 697.609093 -1550.395773
L 694.669213 -1553.272141
L 691.729332 -1556.608302
L 688.789451 -1560.418754
L 685.849571 -1564.715675
L 682.90969 -1569.514653
L 679.969809 -1574.841725
L 677.029929 -1580.740598
L 674.090048 -1587.278483
L 671.150167 -1594.548791
L 668.210287 -1602.66903
L 665.270406 -1611.772725
L 662.330525 -1621.994966
L 659.390645 -1633.452264
L 656.450764 -1646.21849
L 653.510883 -1660.299753
L 650.571003 -1675.611669
L 647.631122 -1691.962729
L 644.691241 -1709.046983
L 641.751361 -1726.448276
L 638.81148 -1743.656818
L 635.871599 -1760.097158
L 632.931719 -1775.16504
L 629.991838 -1788.269347
L 627.051957 -1798.874603
L 624.112077 -1806.539516
L 621.172196 -1810.947648
L 618.232315 -1811.92749
L 615.292435 -1809.46065
L 612.352554 -1803.678376
L 609.412673 -1794.847903
L 606.472793 -1783.351011
L 603.532912 -1769.657608
L 600.593031 -1754.297145
L 597.653151 -1737.830279
L 594.71327 -1720.822616
L 591.773389 -1703.821717
L 588.833509 -1687.337884
L 585.893628 -1671.82883
L 582.953747 -1657.68796
L 580.013867 -1645.235924
L 577.073986 -1634.715055
L 574.134105 -1626.286438
L 571.194225 -1620.029483
L 568.254344 -1615.943935
L 565.314463 -1613.954335
L 562.374582 -1613.91687
L 559.434702 -1615.628449
L 556.494821 -1618.83771
L 553.55494 -1623.25755
L 550.61506 -1628.578709
L 547.675179 -1634.483982
L 544.735298 -1640.662727
L 541.795418 -1646.825446
L 538.855537 -1652.718266
L 535.915656 -1658.137051
L 532.975776 -1662.940625
L 530.035895 -1667.062134
L 527.096014 -1670.517096
L 524.156134 -1673.406295
L 521.216253 -1675.911511
L 518.276372 -1678.282447
L 515.336492 -1680.814008
L 512.396611 -1683.81451
L 509.45673 -1687.567011
L 506.51685 -1692.287725
L 503.576969 -1698.086808
L 500.637088 -1704.937453
L 497.697208 -1712.658874
L 494.757327 -1720.917369
L 491.817446 -1729.247248
L 488.877566 -1737.090514
L 485.937685 -1743.851146
L 482.997804 -1748.957327
L 480.057924 -1751.923449
L 477.118043 -1752.403531
L 474.178162 -1750.228883
L 471.238282 -1745.425227
L 468.298401 -1738.207604
L 465.35852 -1728.954683
L 462.41864 -1718.16695
L 459.478759 -1706.415224
L 456.538878 -1694.286732
L 453.598998 -1682.335583
L 450.659117 -1671.043011
L 447.719236 -1660.790703
L 444.779356 -1651.848206
L 441.839475 -1644.373299
L 438.899594 -1638.422615
L 435.959714 -1633.968955
L 433.019833 -1630.92155
L 430.079952 -1629.146046
L 427.140072 -1628.481907
L 424.200191 -1628.756074
L 421.26031 -1629.792794
L 418.32043 -1631.420432
L 415.380549 -1633.476554
L 412.440668 -1635.812682
L 409.500788 -1638.299798
L 406.560907 -1640.83506
L 403.621026 -1643.349414
L 400.681146 -1645.815003
L 397.741265 -1648.2507
L 394.801384 -1650.723859
L 391.861504 -1653.346598
L 388.921623 -1656.265592
L 385.981742 -1659.645407
L 383.041862 -1663.646653
L 380.101981 -1668.401419
L 377.1621 -1673.989331
L 374.22222 -1680.417919
L 371.282339 -1687.610656
L 368.342458 -1695.405039
L 365.402578 -1703.561611
L 362.462697 -1711.783073
L 359.522816 -1719.74103
L 356.582936 -1727.106706
L 353.643055 -1733.581421
L 350.703174 -1738.922839
L 347.763294 -1742.963885
L 344.823413 -1745.622551
L 341.883532 -1746.902346
L 338.943652 -1746.884466
L 336.003771 -1745.71376
L 333.06389 -1743.581033
L 330.12401 -1740.704258
L 327.184129 -1737.310871
L 324.244248 -1733.622822
L 321.304368 -1729.845376
L 318.364487 -1726.160168
L 315.424606 -1722.722456
L 312.484726 -1719.662115
L 309.544845 -1717.08751
L 306.604964 -1715.090945
L 303.665084 -1713.754137
L 300.725203 -1713.151947
L 297.785322 -1713.352763
L 294.845442 -1714.414393
L 291.905561 -1716.37515
L 288.96568 -1719.240913
L 286.0258 -1722.970074
L 283.085919 -1727.459225
L 280.146038 -1732.532929
L 277.206158 -1737.940771
L 274.266277 -1743.36406
L 271.326396 -1748.433104
L 268.386516 -1752.754253
L 265.446635 -1755.94406
L 262.506754 -1757.666505
L 259.566874 -1757.66837
L 256.626993 -1755.807872
L 253.687112 -1752.072456
L 250.747232 -1746.583142
L 247.807351 -1739.584722
L 244.86747 -1731.423066
L 241.92759 -1722.512493
L 238.987709 -1713.297343
L 236.047828 -1704.212412
L 233.107947 -1695.646676
L 230.168067 -1687.913983
L 227.228186 -1681.233147
L 224.288305 -1675.718497
L 221.348425 -1671.380566
L 218.408544 -1668.135484
L 215.468663 -1665.820894
L 212.528783 -1664.215883
L 209.588902 -1663.062507
L 206.649021 -1662.086885
L 203.709141 -1661.01844
L 200.76926 -1659.606471
L 197.829379 -1657.633761
L 194.889499 -1654.927257
L 191.949618 -1651.365955
L 189.009737 -1646.886044
L 186.069857 -1641.483194
L 183.129976 -1635.211726
L 180.190095 -1628.180385
L 177.250215 -1620.544593
L 174.310334 -1612.495395
L 171.370453 -1604.245759
L 168.430573 -1596.015329
L 165.490692 -1588.015052
L 162.550811 -1580.433204
L 159.610931 -1573.424203
L 156.67105 -1567.101223
L 153.731169 -1561.533077
L 150.791289 -1556.745283
L 147.851408 -1552.724676
L 144.911527 -1549.426601
L 141.971647 -1546.783496
L 139.031766 -1544.713747
L 136.091885 -1543.129841
L 133.152005 -1541.945155
z
" style="stroke: #000000"/>
    </defs>
    <g clip-path="url(#pde21a9947e)">
     <use xlink:href="#mba073d4d86" x="0" y="1872" style="fill: #377eb8; fill-opacity: 0.75; stroke: #000000"/>
    </g>
   </g>
   <g id="PolyCollection_3">
    <defs>
     <path id="m5f8a5bc47a" d="M 133.152005 -1541.976766
L 133.152005 -1541.945155
L 136.091885 -1543.129841
L 139.031766 -1544.713747
L 141.971647 -1546.783496
L 144.911527 -1549.426601
L 147.851408 -1552.724676
L 150.791289 -1556.745283
L 153.731169 -1561.533077
L 156.67105 -1567.101223
L 159.610931 -1573.424203
L 162.550811 -1580.433204
L 165.490692 -1588.015052
L 168.430573 -1596.015329
L 171.370453 -1604.245759
L 174.310334 -1612.495395
L 177.250215 -1620.544593
L 180.190095 -1628.180385
L 183.129976 -1635.211726
L 186.069857 -1641.483194
L 189.009737 -1646.886044
L 191.949618 -1651.365955
L 194.889499 -1654.927257
L 197.829379 -1657.633761
L 200.76926 -1659.606471
L 203.709141 -1661.01844
L 206.649021 -1662.086885
L 209.588902 -1663.062507
L 212.528783 -1664.215883
L 215.468663 -1665.820894
L 218.408544 -1668.135484
L 221.348425 -1671.380566
L 224.288305 -1675.718497
L 227.228186 -1681.233147
L 230.168067 -1687.913983
L 233.107947 -1695.646676
L 236.047828 -1704.212412
L 238.987709 -1713.297343
L 241.92759 -1722.512493
L 244.86747 -1731.423066
L 247.807351 -1739.584722
L 250.747232 -1746.583142
L 253.687112 -1752.072456
L 256.626993 -1755.807872
L 259.566874 -1757.66837
L 262.506754 -1757.666505
L 265.446635 -1755.94406
L 268.386516 -1752.754253
L 271.326396 -1748.433104
L 274.266277 -1743.36406
L 277.206158 -1737.940771
L 280.146038 -1732.532929
L 283.085919 -1727.459225
L 286.0258 -1722.970074
L 288.96568 -1719.240913
L 291.905561 -1716.37515
L 294.845442 -1714.414393
L 297.785322 -1713.352763
L 300.725203 -1713.151947
L 303.665084 -1713.754137
L 306.604964 -1715.090945
L 309.544845 -1717.08751
L 312.484726 -1719.662115
L 315.424606 -1722.722456
L 318.364487 -1726.160168
L 321.304368 -1729.845376
L 324.244248 -1733.622822
L 327.184129 -1737.310871
L 330.12401 -1740.704258
L 333.06389 -1743.581033
L 336.003771 -1745.71376
L 338.943652 -1746.884466
L 341.883532 -1746.902346
L 344.823413 -1745.622551
L 347.763294 -1742.963885
L 350.703174 -1738.922839
L 353.643055 -1733.581421
L 356.582936 -1727.106706
L 359.522816 -1719.74103
L 362.462697 -1711.783073
L 365.402578 -1703.561611
L 368.342458 -1695.405039
L 371.282339 -1687.610656
L 374.22222 -1680.417919
L 377.1621 -1673.989331
L 380.101981 -1668.401419
L 383.041862 -1663.646653
L 385.981742 -1659.645407
L 388.921623 -1656.265592
L 391.861504 -1653.346598
L 394.801384 -1650.723859
L 397.741265 -1648.2507
L 400.681146 -1645.815003
L 403.621026 -1643.349414
L 406.560907 -1640.83506
L 409.500788 -1638.299798
L 412.440668 -1635.812682
L 415.380549 -1633.476554
L 418.32043 -1631.420432
L 421.26031 -1629.792794
L 424.200191 -1628.756074
L 427.140072 -1628.481907
L 430.079952 -1629.146046
L 433.019833 -1630.92155
L 435.959714 -1633.968955
L 438.899594 -1638.422615
L 441.839475 -1644.373299
L 444.779356 -1651.848206
L 447.719236 -1660.790703
L 450.659117 -1671.043011
L 453.598998 -1682.335583
L 456.538878 -1694.286732
L 459.478759 -1706.415224
L 462.41864 -1718.16695
L 465.35852 -1728.954683
L 468.298401 -1738.207604
L 471.238282 -1745.425227
L 474.178162 -1750.228883
L 477.118043 -1752.403531
L 480.057924 -1751.923449
L 482.997804 -1748.957327
L 485.937685 -1743.851146
L 488.877566 -1737.090514
L 491.817446 -1729.247248
L 494.757327 -1720.917369
L 497.697208 -1712.658874
L 500.637088 -1704.937453
L 503.576969 -1698.086808
L 506.51685 -1692.287725
L 509.45673 -1687.567011
L 512.396611 -1683.81451
L 515.336492 -1680.814008
L 518.276372 -1678.282447
L 521.216253 -1675.911511
L 524.156134 -1673.406295
L 527.096014 -1670.517096
L 530.035895 -1667.062134
L 532.975776 -1662.940625
L 535.915656 -1658.137051
L 538.855537 -1652.718266
L 541.795418 -1646.825446
L 544.735298 -1640.662727
L 547.675179 -1634.483982
L 550.61506 -1628.578709
L 553.55494 -1623.25755
L 556.494821 -1618.83771
L 559.434702 -1615.628449
L 562.374582 -1613.91687
L 565.314463 -1613.954335
L 568.254344 -1615.943935
L 571.194225 -1620.029483
L 574.134105 -1626.286438
L 577.073986 -1634.715055
L 580.013867 -1645.235924
L 582.953747 -1657.68796
L 585.893628 -1671.82883
L 588.833509 -1687.337884
L 591.773389 -1703.821717
L 594.71327 -1720.822616
L 597.653151 -1737.830279
L 600.593031 -1754.297145
L 603.532912 -1769.657608
L 606.472793 -1783.351011
L 609.412673 -1794.847903
L 612.352554 -1803.678376
L 615.292435 -1809.46065
L 618.232315 -1811.92749
L 621.172196 -1810.947648
L 624.112077 -1806.539516
L 627.051957 -1798.874603
L 629.991838 -1788.269347
L 632.931719 -1775.16504
L 635.871599 -1760.097158
L 638.81148 -1743.656818
L 641.751361 -1726.448276
L 644.691241 -1709.046983
L 647.631122 -1691.962729
L 650.571003 -1675.611669
L 653.510883 -1660.299753
L 656.450764 -1646.21849
L 659.390645 -1633.452264
L 662.330525 -1621.994966
L 665.270406 -1611.772725
L 668.210287 -1602.66903
L 671.150167 -1594.548791
L 674.090048 -1587.278483
L 677.029929 -1580.740598
L 679.969809 -1574.841725
L 682.90969 -1569.514653
L 685.849571 -1564.715675
L 688.789451 -1560.418754
L 691.729332 -1556.608302
L 694.669213 -1553.272141
L 697.609093 -1550.395773
L 700.548974 -1547.958623
L 703.488855 -1545.932397
L 706.428735 -1544.281324
L 709.368616 -1542.963784
L 712.308497 -1541.934738
L 715.248377 -1541.148391
L 718.188258 -1540.560636
L 718.188258 -1540.565111
L 718.188258 -1540.565111
L 715.248377 -1541.155231
L 712.308497 -1541.945074
L 709.368616 -1542.97922
L 706.428735 -1544.304107
L 703.488855 -1545.965631
L 700.548974 -1548.006538
L 697.609093 -1550.464048
L 694.669213 -1553.368293
L 691.729332 -1556.742136
L 688.789451 -1560.602864
L 685.849571 -1564.965998
L 682.90969 -1569.851036
L 679.969809 -1575.288491
L 677.029929 -1581.327063
L 674.090048 -1588.039378
L 671.150167 -1595.524525
L 668.210287 -1603.905741
L 665.270406 -1613.322051
L 662.330525 -1623.913484
L 659.390645 -1635.800544
L 656.450764 -1649.059756
L 653.510883 -1663.698144
L 650.571003 -1679.630154
L 647.631122 -1696.66075
L 644.691241 -1714.477957
L 641.751361 -1732.657121
L 638.81148 -1750.677691
L 635.871599 -1767.951639
L 632.931719 -1783.86098
L 629.991838 -1797.800582
L 627.051957 -1809.221721
L 624.112077 -1817.67178
L 621.172196 -1822.826126
L 618.232315 -1824.509325
L 615.292435 -1822.704324
L 612.352554 -1817.549702
L 609.412673 -1809.3264
L 606.472793 -1798.436221
L 603.532912 -1785.374881
L 600.593031 -1770.702388
L 597.653151 -1755.013181
L 594.71327 -1738.907936
L 591.773389 -1722.968285
L 588.833509 -1707.735141
L 585.893628 -1693.690838
L 582.953747 -1681.245036
L 580.013867 -1670.724179
L 577.073986 -1662.364329
L 574.134105 -1656.307245
L 571.194225 -1652.599684
L 568.254344 -1651.195934
L 565.314463 -1651.963593
L 562.374582 -1654.692484
L 559.434702 -1659.106444
L 556.494821 -1664.877537
L 553.55494 -1671.642076
L 550.61506 -1679.017797
L 547.675179 -1686.621503
L 544.735298 -1694.086655
L 541.795418 -1701.080475
L 538.855537 -1707.320264
L 535.915656 -1712.588562
L 532.975776 -1716.746586
L 530.035895 -1719.745017
L 527.096014 -1721.630744
L 524.156134 -1722.547854
L 521.216253 -1722.731007
L 518.276372 -1722.489727
L 515.336492 -1722.182951
L 512.396611 -1722.184539
L 509.45673 -1722.842126
L 506.51685 -1724.433351
L 503.576969 -1727.124836
L 500.637088 -1730.939899
L 497.697208 -1735.740608
L 494.757327 -1741.228312
L 491.817446 -1746.964437
L 488.877566 -1752.410367
L 485.937685 -1756.9822
L 482.997804 -1760.113655
L 480.057924 -1761.318924
L 477.118043 -1760.247007
L 474.178162 -1756.720352
L 471.238282 -1750.752944
L 468.298401 -1742.546139
L 465.35852 -1732.463835
L 462.41864 -1720.991439
L 459.478759 -1708.68505
L 456.538878 -1696.118102
L 453.598998 -1683.832267
L 450.659117 -1672.298033
L 447.719236 -1661.888227
L 444.779356 -1652.865515
L 441.839475 -1645.382741
L 438.899594 -1639.493419
L 435.959714 -1635.168805
L 433.019833 -1632.317826
L 430.079952 -1630.806646
L 427.140072 -1630.475584
L 424.200191 -1631.152232
L 421.26031 -1632.660729
L 418.32043 -1634.828011
L 415.380549 -1637.48839
L 412.440668 -1640.487876
L 409.500788 -1643.68938
L 406.560907 -1646.97928
L 403.621026 -1650.275082
L 400.681146 -1653.533085
L 397.741265 -1656.75439
L 394.801384 -1659.987336
L 391.861504 -1663.324639
L 388.921623 -1666.894183
L 385.981742 -1670.843408
L 383.041862 -1675.318527
L 380.101981 -1680.440917
L 377.1621 -1686.283987
L 374.22222 -1692.85411
L 371.282339 -1700.078925
L 368.342458 -1707.805367
L 365.402578 -1715.808275
L 362.462697 -1723.808779
L 359.522816 -1731.500019
L 356.582936 -1738.576609
L 353.643055 -1744.763722
L 350.703174 -1749.841887
L 347.763294 -1753.664504
L 344.823413 -1756.166398
L 341.883532 -1757.363234
L 338.943652 -1757.342977
L 336.003771 -1756.251485
L 333.06389 -1754.27485
L 330.12401 -1751.621017
L 327.184129 -1748.502874
L 324.244248 -1745.124398
L 321.304368 -1741.670825
L 318.364487 -1738.303217
L 315.424606 -1735.157292
L 312.484726 -1732.345964
L 309.544845 -1729.96459
L 306.604964 -1728.097559
L 303.665084 -1726.824573
L 300.725203 -1726.224782
L 297.785322 -1726.377152
L 294.845442 -1727.355883
L 291.905561 -1729.220614
L 288.96568 -1732.002208
L 286.0258 -1735.686123
L 283.085919 -1740.196303
L 280.146038 -1745.383046
L 277.206158 -1751.018156
L 274.266277 -1756.79988
L 271.326396 -1762.368664
L 268.386516 -1767.33302
L 265.446635 -1771.302968
L 262.506754 -1773.927029
L 259.566874 -1774.927927
L 256.626993 -1774.132084
L 253.687112 -1771.488787
L 250.747232 -1767.076353
L 247.807351 -1761.094485
L 244.86747 -1753.843932
L 241.92759 -1745.696293
L 238.987709 -1737.057905
L 236.047828 -1728.332341
L 233.107947 -1719.885806
L 230.168067 -1712.018986
L 227.228186 -1704.947723
L 224.288305 -1698.793526
L 221.348425 -1693.58363
L 218.408544 -1689.259233
L 215.468663 -1685.689807
L 212.528783 -1682.691142
L 209.588902 -1680.044803
L 206.649021 -1677.51717
L 203.709141 -1674.876734
L 200.76926 -1671.908987
L 197.829379 -1668.42867
L 194.889499 -1664.289486
L 191.949618 -1659.391428
L 189.009737 -1653.685748
L 186.069857 -1647.177424
L 183.129976 -1639.924796
L 180.190095 -1632.036015
L 177.250215 -1623.662107
L 174.310334 -1614.986789
L 171.370453 -1606.213629
L 168.430573 -1597.55161
L 165.490692 -1589.20045
L 162.550811 -1581.337221
L 159.610931 -1574.105613
L 156.67105 -1567.608867
L 153.731169 -1561.906869
L 150.791289 -1557.017313
L 147.851408 -1552.920346
L 144.911527 -1549.565708
L 141.971647 -1546.881241
L 139.031766 -1544.781629
L 136.091885 -1543.176436
L 133.152005 -1541.976766
z
" style="stroke: #000000"/>
    </defs>
    <g clip-path="url(#pde21a9947e)">
     <use xlink:href="#m5f8a5bc47a" x="0" y="1872" style="fill: #e41a1c; fill-opacity: 0.75; stroke: #000000"/>
    </g>
   </g>
   <g id="matplotlib.axis_1">
    <g id="xtick_1">
     <g id="line2d_1">
      <defs>
       <path id="ma51aa09eb6" d="M 0 0
L 0 3.5
" style="stroke: #000000; stroke-width: 0.8"/>
      </defs>
      <g>
       <use xlink:href="#ma51aa09eb6" x="116.61208" y="332.804167" style="stroke: #000000; stroke-width: 0.8"/>
      </g>
     </g>
    </g>
    <g id="xtick_2">
     <g id="line2d_2">
      <g>
       <use xlink:href="#ma51aa09eb6" x="213.328729" y="332.804167" style="stroke: #000000; stroke-width: 0.8"/>
      </g>
     </g>
    </g>
    <g id="xtick_3">
     <g id="line2d_3">
      <g>
       <use xlink:href="#ma51aa09eb6" x="310.045378" y="332.804167" style="stroke: #000000; stroke-width: 0.8"/>
      </g>
     </g>
    </g>
    <g id="xtick_4">
     <g id="line2d_4">
      <g>
       <use xlink:href="#ma51aa09eb6" x="406.762026" y="332.804167" style="stroke: #000000; stroke-width: 0.8"/>
      </g>
     </g>
    </g>
    <g id="xtick_5">
     <g id="line2d_5">
      <g>
       <use xlink:href="#ma51aa09eb6" x="503.478675" y="332.804167" style="stroke: #000000; stroke-width: 0.8"/>
      </g>
     </g>
    </g>
    <g id="xtick_6">
     <g id="line2d_6">
      <g>
       <use xlink:href="#ma51aa09eb6" x="600.195324" y="332.804167" style="stroke: #000000; stroke-width: 0.8"/>
      </g>
     </g>
    </g>
    <g id="xtick_7">
     <g id="line2d_7">
      <g>
       <use xlink:href="#ma51aa09eb6" x="696.911973" y="332.804167" style="stroke: #000000; stroke-width: 0.8"/>
      </g>
     </g>
    </g>
   </g>
   <g id="matplotlib.axis_2"/>
  </g>
  <g id="axes_2">
   <g id="patch_3">
    <path d="M 97.26875 1830.7
L 714.379 1830.7
L 714.379 332.804167
L 97.26875 332.804167
z
" style="fill: #ffffff"/>
   </g>
   <g id="patch_4">
    <path d="M 116.61208 361.335516
L 220.795254 361.335516
L 220.795254 347.069841
L 116.61208 347.069841
z
" clip-path="url(#p1e1f4c3473)" style="fill: #e41a1c"/>
   </g>
   <g id="patch_5">
    <path d="M 240.448077 361.335516
L 695.03567 361.335516
L 695.03567 347.069841
L 240.448077 347.069841
z
" clip-path="url(#p1e1f4c3473)" style="fill: #377eb8"/>
   </g>
   <g id="patch_6">
    <path d="M 220.814597 361.335516
L 240.428734 361.335516
L 240.428734 347.069841
L 220.814597 347.069841
z
" clip-path="url(#p1e1f4c3473)" style="fill: #d3d3d3"/>
   </g>
   <g id="patch_7">
    <path d="M 116.61208 389.866865
L 224.625233 389.866865
L 224.625233 375.60119
L 116.61208 375.60119
z
" clip-path="url(#p1e1f4c3473)" style="fill: #e41a1c"/>
   </g>
   <g id="patch_8">
    <path d="M 242.575843 389.866865
L 695.03567 389.866865
L 695.03567 375.60119
L 242.575843 375.60119
z
" clip-path="url(#p1e1f4c3473)" style="fill: #377eb8"/>
   </g>
   <g id="patch_9">
    <path d="M 224.644577 389.866865
L 242.5565 389.866865
L 242.5565 375.60119
L 224.644577 375.60119
z
" clip-path="url(#p1e1f4c3473)" style="fill: #d3d3d3"/>
   </g>
   <g id="patch_10">
    <path d="M 116.61208 418.398214
L 291.727244 418.398214
L 291.727244 404.13254
L 116.61208 404.13254
z
" clip-path="url(#p1e1f4c3473)" style="fill: #e41a1c"/>
   </g>
   <g id="patch_11">
    <path d="M 318.730533 418.398214
L 695.03567 418.398214
L 695.03567 404.13254
L 318.730533 404.13254
z
" clip-path="url(#p1e1f4c3473)" style="fill: #377eb8"/>
   </g>
   <g id="patch_12">
    <path d="M 291.746588 418.398214
L 318.711189 418.398214
L 318.711189 404.13254
L 291.746588 404.13254
z
" clip-path="url(#p1e1f4c3473)" style="fill: #d3d3d3"/>
   </g>
   <g id="patch_13">
    <path d="M 116.61208 446.929563
L 334.785496 446.929563
L 334.785496 432.663889
L 116.61208 432.663889
z
" clip-path="url(#p1e1f4c3473)" style="fill: #e41a1c"/>
   </g>
   <g id="patch_14">
    <path d="M 415.505212 446.929563
L 695.03567 446.929563
L 695.03567 432.663889
L 415.505212 432.663889
z
" clip-path="url(#p1e1f4c3473)" style="fill: #4daf4a"/>
   </g>
   <g id="patch_15">
    <path d="M 334.80484 446.929563
L 415.485868 446.929563
L 415.485868 432.663889
L 334.80484 432.663889
z
" clip-path="url(#p1e1f4c3473)" style="fill: #d3d3d3"/>
   </g>
   <g id="patch_16">
    <path d="M 116.61208 475.460913
L 488.390878 475.460913
L 488.390878 461.195238
L 116.61208 461.195238
z
" clip-path="url(#p1e1f4c3473)" style="fill: #e41a1c"/>
   </g>
   <g id="patch_17">
    <path d="M 539.186462 475.460913
L 695.03567 475.460913
L 695.03567 461.195238
L 539.186462 461.195238
z
" clip-path="url(#p1e1f4c3473)" style="fill: #377eb8"/>
   </g>
   <g id="patch_18">
    <path d="M 488.410221 475.460913
L 539.167119 475.460913
L 539.167119 461.195238
L 488.410221 461.195238
z
" clip-path="url(#p1e1f4c3473)" style="fill: #d3d3d3"/>
   </g>
   <g id="patch_19">
    <path d="M 116.61208 503.992262
L 534.776183 503.992262
L 534.776183 489.726587
L 116.61208 489.726587
z
" clip-path="url(#p1e1f4c3473)" style="fill: #e41a1c"/>
   </g>
   <g id="patch_20">
    <path d="M 537.561622 503.992262
L 695.03567 503.992262
L 695.03567 489.726587
L 537.561622 489.726587
z
" clip-path="url(#p1e1f4c3473)" style="fill: #377eb8"/>
   </g>
   <g id="patch_21">
    <path d="M 534.795526 503.992262
L 537.542279 503.992262
L 537.542279 489.726587
L 534.795526 489.726587
z
" clip-path="url(#p1e1f4c3473)" style="fill: #d3d3d3"/>
   </g>
   <g id="patch_22">
    <path d="M 116.61208 532.523611
L 534.776183 532.523611
L 534.776183 518.257937
L 116.61208 518.257937
z
" clip-path="url(#p1e1f4c3473)" style="fill: #e41a1c"/>
   </g>
   <g id="patch_23">
    <path d="M 537.561622 532.523611
L 695.03567 532.523611
L 695.03567 518.257937
L 537.561622 518.257937
z
" clip-path="url(#p1e1f4c3473)" style="fill: #4daf4a"/>
   </g>
   <g id="patch_24">
    <path d="M 534.795526 532.523611
L 537.542279 532.523611
L 537.542279 518.257937
L 534.795526 518.257937
z
" clip-path="url(#p1e1f4c3473)" style="fill: #d3d3d3"/>
   </g>
   <g id="patch_25">
    <path d="M 116.61208 561.05496
L 541.913872 561.05496
L 541.913872 546.789286
L 116.61208 546.789286
z
" clip-path="url(#p1e1f4c3473)" style="fill: #e41a1c"/>
   </g>
   <g id="patch_26">
    <path d="M 553.34578 561.05496
L 695.03567 561.05496
L 695.03567 546.789286
L 553.34578 546.789286
z
" clip-path="url(#p1e1f4c3473)" style="fill: #377eb8"/>
   </g>
   <g id="patch_27">
    <path d="M 541.933215 561.05496
L 553.326436 561.05496
L 553.326436 546.789286
L 541.933215 546.789286
z
" clip-path="url(#p1e1f4c3473)" style="fill: #d3d3d3"/>
   </g>
   <g id="patch_28">
    <path d="M 116.61208 589.58631
L 541.913872 589.58631
L 541.913872 575.320635
L 116.61208 575.320635
z
" clip-path="url(#p1e1f4c3473)" style="fill: #e41a1c"/>
   </g>
   <g id="patch_29">
    <path d="M 611.491829 589.58631
L 695.03567 589.58631
L 695.03567 575.320635
L 611.491829 575.320635
z
" clip-path="url(#p1e1f4c3473)" style="fill: #e41a1c"/>
   </g>
   <g id="patch_30">
    <path d="M 555.183396 589.58631
L 609.267346 589.58631
L 609.267346 575.320635
L 555.183396 575.320635
z
" clip-path="url(#p1e1f4c3473)" style="fill: #377eb8"/>
   </g>
   <g id="patch_31">
    <path d="M 541.933215 589.58631
L 555.164053 589.58631
L 555.164053 575.320635
L 541.933215 575.320635
z
" clip-path="url(#p1e1f4c3473)" style="fill: #d3d3d3"/>
   </g>
   <g id="patch_32">
    <path d="M 609.286689 589.58631
L 611.472486 589.58631
L 611.472486 575.320635
L 609.286689 575.320635
z
" clip-path="url(#p1e1f4c3473)" style="fill: #d3d3d3"/>
   </g>
   <g id="patch_33">
    <path d="M 116.61208 618.117659
L 171.411733 618.117659
L 171.411733 603.851984
L 116.61208 603.851984
z
" clip-path="url(#p1e1f4c3473)" style="fill: #377eb8"/>
   </g>
   <g id="patch_34">
    <path d="M 197.544572 618.117659
L 695.03567 618.117659
L 695.03567 603.851984
L 197.544572 603.851984
z
" clip-path="url(#p1e1f4c3473)" style="fill: #4daf4a"/>
   </g>
   <g id="patch_35">
    <path d="M 171.431076 618.117659
L 197.525228 618.117659
L 197.525228 603.851984
L 171.431076 603.851984
z
" clip-path="url(#p1e1f4c3473)" style="fill: #d3d3d3"/>
   </g>
   <g id="patch_36">
    <path d="M 116.61208 646.649008
L 171.411733 646.649008
L 171.411733 632.383333
L 116.61208 632.383333
z
" clip-path="url(#p1e1f4c3473)" style="fill: #377eb8"/>
   </g>
   <g id="patch_37">
    <path d="M 197.544572 646.649008
L 695.03567 646.649008
L 695.03567 632.383333
L 197.544572 632.383333
z
" clip-path="url(#p1e1f4c3473)" style="fill: #4daf4a"/>
   </g>
   <g id="patch_38">
    <path d="M 171.431076 646.649008
L 197.525228 646.649008
L 197.525228 632.383333
L 171.431076 632.383333
z
" clip-path="url(#p1e1f4c3473)" style="fill: #d3d3d3"/>
   </g>
   <g id="patch_39">
    <path d="M 116.61208 675.180357
L 200.194608 675.180357
L 200.194608 660.914683
L 116.61208 660.914683
z
" clip-path="url(#p1e1f4c3473)" style="fill: #377eb8"/>
   </g>
   <g id="patch_40">
    <path d="M 220.795254 675.180357
L 695.03567 675.180357
L 695.03567 660.914683
L 220.795254 660.914683
z
" clip-path="url(#p1e1f4c3473)" style="fill: #4daf4a"/>
   </g>
   <g id="patch_41">
    <path d="M 200.213951 675.180357
L 220.775911 675.180357
L 220.775911 660.914683
L 200.213951 660.914683
z
" clip-path="url(#p1e1f4c3473)" style="fill: #d3d3d3"/>
   </g>
   <g id="patch_42">
    <path d="M 116.61208 703.711706
L 200.194608 703.711706
L 200.194608 689.446032
L 116.61208 689.446032
z
" clip-path="url(#p1e1f4c3473)" style="fill: #377eb8"/>
   </g>
   <g id="patch_43">
    <path d="M 211.239649 703.711706
L 695.03567 703.711706
L 695.03567 689.446032
L 211.239649 689.446032
z
" clip-path="url(#p1e1f4c3473)" style="fill: #4daf4a"/>
   </g>
   <g id="patch_44">
    <path d="M 200.213951 703.711706
L 211.220306 703.711706
L 211.220306 689.446032
L 200.213951 689.446032
z
" clip-path="url(#p1e1f4c3473)" style="fill: #d3d3d3"/>
   </g>
   <g id="patch_45">
    <path d="M 116.61208 732.243056
L 220.795254 732.243056
L 220.795254 717.977381
L 116.61208 717.977381
z
" clip-path="url(#p1e1f4c3473)" style="fill: #377eb8"/>
   </g>
   <g id="patch_46">
    <path d="M 278.767213 732.243056
L 695.03567 732.243056
L 695.03567 717.977381
L 278.767213 717.977381
z
" clip-path="url(#p1e1f4c3473)" style="fill: #4daf4a"/>
   </g>
   <g id="patch_47">
    <path d="M 220.814597 732.243056
L 278.74787 732.243056
L 278.74787 717.977381
L 220.814597 717.977381
z
" clip-path="url(#p1e1f4c3473)" style="fill: #d3d3d3"/>
   </g>
   <g id="patch_48">
    <path d="M 116.61208 760.774405
L 220.795254 760.774405
L 220.795254 746.50873
L 116.61208 746.50873
z
" clip-path="url(#p1e1f4c3473)" style="fill: #377eb8"/>
   </g>
   <g id="patch_49">
    <path d="M 278.960647 760.774405
L 695.03567 760.774405
L 695.03567 746.50873
L 278.960647 746.50873
z
" clip-path="url(#p1e1f4c3473)" style="fill: #4daf4a"/>
   </g>
   <g id="patch_50">
    <path d="M 220.814597 760.774405
L 278.941303 760.774405
L 278.941303 746.50873
L 220.814597 746.50873
z
" clip-path="url(#p1e1f4c3473)" style="fill: #d3d3d3"/>
   </g>
   <g id="patch_51">
    <path d="M 116.61208 789.305754
L 242.633873 789.305754
L 242.633873 775.040079
L 116.61208 775.040079
z
" clip-path="url(#p1e1f4c3473)" style="fill: #377eb8"/>
   </g>
   <g id="patch_52">
    <path d="M 278.960647 789.305754
L 695.03567 789.305754
L 695.03567 775.040079
L 278.960647 775.040079
z
" clip-path="url(#p1e1f4c3473)" style="fill: #4daf4a"/>
   </g>
   <g id="patch_53">
    <path d="M 242.653217 789.305754
L 278.941303 789.305754
L 278.941303 775.040079
L 242.653217 775.040079
z
" clip-path="url(#p1e1f4c3473)" style="fill: #d3d3d3"/>
   </g>
   <g id="patch_54">
    <path d="M 116.61208 817.837103
L 242.67256 817.837103
L 242.67256 803.571429
L 116.61208 803.571429
z
" clip-path="url(#p1e1f4c3473)" style="fill: #377eb8"/>
   </g>
   <g id="patch_55">
    <path d="M 278.960647 817.837103
L 695.03567 817.837103
L 695.03567 803.571429
L 278.960647 803.571429
z
" clip-path="url(#p1e1f4c3473)" style="fill: #4daf4a"/>
   </g>
   <g id="patch_56">
    <path d="M 242.691903 817.837103
L 278.941303 817.837103
L 278.941303 803.571429
L 242.691903 803.571429
z
" clip-path="url(#p1e1f4c3473)" style="fill: #d3d3d3"/>
   </g>
   <g id="patch_57">
    <path d="M 116.61208 846.368452
L 242.67256 846.368452
L 242.67256 832.102778
L 116.61208 832.102778
z
" clip-path="url(#p1e1f4c3473)" style="fill: #377eb8"/>
   </g>
   <g id="patch_58">
    <path d="M 297.356153 846.368452
L 695.03567 846.368452
L 695.03567 832.102778
L 297.356153 832.102778
z
" clip-path="url(#p1e1f4c3473)" style="fill: #4daf4a"/>
   </g>
   <g id="patch_59">
    <path d="M 242.691903 846.368452
L 297.33681 846.368452
L 297.33681 832.102778
L 242.691903 832.102778
z
" clip-path="url(#p1e1f4c3473)" style="fill: #d3d3d3"/>
   </g>
   <g id="patch_60">
    <path d="M 116.61208 874.899802
L 278.941303 874.899802
L 278.941303 860.634127
L 116.61208 860.634127
z
" clip-path="url(#p1e1f4c3473)" style="fill: #377eb8"/>
   </g>
   <g id="patch_61">
    <path d="M 297.356153 874.899802
L 695.03567 874.899802
L 695.03567 860.634127
L 297.356153 860.634127
z
" clip-path="url(#p1e1f4c3473)" style="fill: #4daf4a"/>
   </g>
   <g id="patch_62">
    <path d="M 278.960647 874.899802
L 297.33681 874.899802
L 297.33681 860.634127
L 278.960647 860.634127
z
" clip-path="url(#p1e1f4c3473)" style="fill: #d3d3d3"/>
   </g>
   <g id="patch_63">
    <path d="M 116.61208 903.431151
L 294.72546 903.431151
L 294.72546 889.165476
L 116.61208 889.165476
z
" clip-path="url(#p1e1f4c3473)" style="fill: #377eb8"/>
   </g>
   <g id="patch_64">
    <path d="M 297.356153 903.431151
L 695.03567 903.431151
L 695.03567 889.165476
L 297.356153 889.165476
z
" clip-path="url(#p1e1f4c3473)" style="fill: #4daf4a"/>
   </g>
   <g id="patch_65">
    <path d="M 294.744804 903.431151
L 297.33681 903.431151
L 297.33681 889.165476
L 294.744804 889.165476
z
" clip-path="url(#p1e1f4c3473)" style="fill: #d3d3d3"/>
   </g>
   <g id="patch_66">
    <path d="M 116.61208 931.9625
L 301.012043 931.9625
L 301.012043 917.696825
L 116.61208 917.696825
z
" clip-path="url(#p1e1f4c3473)" style="fill: #377eb8"/>
   </g>
   <g id="patch_67">
    <path d="M 310.606334 931.9625
L 695.03567 931.9625
L 695.03567 917.696825
L 310.606334 917.696825
z
" clip-path="url(#p1e1f4c3473)" style="fill: #4daf4a"/>
   </g>
   <g id="patch_68">
    <path d="M 301.031386 931.9625
L 310.586991 931.9625
L 310.586991 917.696825
L 301.031386 917.696825
z
" clip-path="url(#p1e1f4c3473)" style="fill: #d3d3d3"/>
   </g>
   <g id="patch_69">
    <path d="M 116.61208 960.493849
L 318.691846 960.493849
L 318.691846 946.228175
L 116.61208 946.228175
z
" clip-path="url(#p1e1f4c3473)" style="fill: #377eb8"/>
   </g>
   <g id="patch_70">
    <path d="M 339.776075 960.493849
L 695.03567 960.493849
L 695.03567 946.228175
L 339.776075 946.228175
z
" clip-path="url(#p1e1f4c3473)" style="fill: #4daf4a"/>
   </g>
   <g id="patch_71">
    <path d="M 318.711189 960.493849
L 339.756732 960.493849
L 339.756732 946.228175
L 318.711189 946.228175
z
" clip-path="url(#p1e1f4c3473)" style="fill: #d3d3d3"/>
   </g>
   <g id="patch_72">
    <path d="M 116.61208 989.025198
L 318.691846 989.025198
L 318.691846 974.759524
L 116.61208 974.759524
z
" clip-path="url(#p1e1f4c3473)" style="fill: #377eb8"/>
   </g>
   <g id="patch_73">
    <path d="M 339.776075 989.025198
L 695.03567 989.025198
L 695.03567 974.759524
L 339.776075 974.759524
z
" clip-path="url(#p1e1f4c3473)" style="fill: #4daf4a"/>
   </g>
   <g id="patch_74">
    <path d="M 318.711189 989.025198
L 339.756732 989.025198
L 339.756732 974.759524
L 318.711189 974.759524
z
" clip-path="url(#p1e1f4c3473)" style="fill: #d3d3d3"/>
   </g>
   <g id="patch_75">
    <path d="M 116.61208 1017.556548
L 318.691846 1017.556548
L 318.691846 1003.290873
L 116.61208 1003.290873
z
" clip-path="url(#p1e1f4c3473)" style="fill: #377eb8"/>
   </g>
   <g id="patch_76">
    <path d="M 334.959586 1017.556548
L 695.03567 1017.556548
L 695.03567 1003.290873
L 334.959586 1003.290873
z
" clip-path="url(#p1e1f4c3473)" style="fill: #4daf4a"/>
   </g>
   <g id="patch_77">
    <path d="M 318.711189 1017.556548
L 334.940243 1017.556548
L 334.940243 1003.290873
L 318.711189 1003.290873
z
" clip-path="url(#p1e1f4c3473)" style="fill: #d3d3d3"/>
   </g>
   <g id="patch_78">
    <path d="M 116.61208 1046.087897
L 339.776075 1046.087897
L 339.776075 1031.822222
L 116.61208 1031.822222
z
" clip-path="url(#p1e1f4c3473)" style="fill: #377eb8"/>
   </g>
   <g id="patch_79">
    <path d="M 365.754167 1046.087897
L 695.03567 1046.087897
L 695.03567 1031.822222
L 365.754167 1031.822222
z
" clip-path="url(#p1e1f4c3473)" style="fill: #4daf4a"/>
   </g>
   <g id="patch_80">
    <path d="M 339.795419 1046.087897
L 365.734824 1046.087897
L 365.734824 1031.822222
L 339.795419 1031.822222
z
" clip-path="url(#p1e1f4c3473)" style="fill: #d3d3d3"/>
   </g>
   <g id="patch_81">
    <path d="M 116.61208 1074.619246
L 339.776075 1074.619246
L 339.776075 1060.353571
L 116.61208 1060.353571
z
" clip-path="url(#p1e1f4c3473)" style="fill: #377eb8"/>
   </g>
   <g id="patch_82">
    <path d="M 365.754167 1074.619246
L 695.03567 1074.619246
L 695.03567 1060.353571
L 365.754167 1060.353571
z
" clip-path="url(#p1e1f4c3473)" style="fill: #4daf4a"/>
   </g>
   <g id="patch_83">
    <path d="M 339.795419 1074.619246
L 365.734824 1074.619246
L 365.734824 1060.353571
L 339.795419 1060.353571
z
" clip-path="url(#p1e1f4c3473)" style="fill: #d3d3d3"/>
   </g>
   <g id="patch_84">
    <path d="M 116.61208 1103.150595
L 339.814762 1103.150595
L 339.814762 1088.884921
L 116.61208 1088.884921
z
" clip-path="url(#p1e1f4c3473)" style="fill: #377eb8"/>
   </g>
   <g id="patch_85">
    <path d="M 365.754167 1103.150595
L 695.03567 1103.150595
L 695.03567 1088.884921
L 365.754167 1088.884921
z
" clip-path="url(#p1e1f4c3473)" style="fill: #4daf4a"/>
   </g>
   <g id="patch_86">
    <path d="M 339.834105 1103.150595
L 365.734824 1103.150595
L 365.734824 1088.884921
L 339.834105 1088.884921
z
" clip-path="url(#p1e1f4c3473)" style="fill: #d3d3d3"/>
   </g>
   <g id="patch_87">
    <path d="M 116.61208 1131.681944
L 371.847316 1131.681944
L 371.847316 1117.41627
L 116.61208 1117.41627
z
" clip-path="url(#p1e1f4c3473)" style="fill: #377eb8"/>
   </g>
   <g id="patch_88">
    <path d="M 411.404426 1131.681944
L 695.03567 1131.681944
L 695.03567 1117.41627
L 411.404426 1117.41627
z
" clip-path="url(#p1e1f4c3473)" style="fill: #4daf4a"/>
   </g>
   <g id="patch_89">
    <path d="M 371.86666 1131.681944
L 411.385082 1131.681944
L 411.385082 1117.41627
L 371.86666 1117.41627
z
" clip-path="url(#p1e1f4c3473)" style="fill: #d3d3d3"/>
   </g>
   <g id="patch_90">
    <path d="M 116.61208 1160.213294
L 371.847316 1160.213294
L 371.847316 1145.947619
L 116.61208 1145.947619
z
" clip-path="url(#p1e1f4c3473)" style="fill: #377eb8"/>
   </g>
   <g id="patch_91">
    <path d="M 420.573164 1160.213294
L 695.03567 1160.213294
L 695.03567 1145.947619
L 420.573164 1145.947619
z
" clip-path="url(#p1e1f4c3473)" style="fill: #4daf4a"/>
   </g>
   <g id="patch_92">
    <path d="M 371.86666 1160.213294
L 420.553821 1160.213294
L 420.553821 1145.947619
L 371.86666 1145.947619
z
" clip-path="url(#p1e1f4c3473)" style="fill: #d3d3d3"/>
   </g>
   <g id="patch_93">
    <path d="M 116.61208 1188.744643
L 411.404426 1188.744643
L 411.404426 1174.478968
L 116.61208 1174.478968
z
" clip-path="url(#p1e1f4c3473)" style="fill: #377eb8"/>
   </g>
   <g id="patch_94">
    <path d="M 420.573164 1188.744643
L 695.03567 1188.744643
L 695.03567 1174.478968
L 420.573164 1174.478968
z
" clip-path="url(#p1e1f4c3473)" style="fill: #4daf4a"/>
   </g>
   <g id="patch_95">
    <path d="M 411.423769 1188.744643
L 420.553821 1188.744643
L 420.553821 1174.478968
L 411.423769 1174.478968
z
" clip-path="url(#p1e1f4c3473)" style="fill: #d3d3d3"/>
   </g>
   <g id="patch_96">
    <path d="M 116.61208 1217.275992
L 420.553821 1217.275992
L 420.553821 1203.010317
L 116.61208 1203.010317
z
" clip-path="url(#p1e1f4c3473)" style="fill: #377eb8"/>
   </g>
   <g id="patch_97">
    <path d="M 453.398795 1217.275992
L 695.03567 1217.275992
L 695.03567 1203.010317
L 453.398795 1203.010317
z
" clip-path="url(#p1e1f4c3473)" style="fill: #4daf4a"/>
   </g>
   <g id="patch_98">
    <path d="M 420.573164 1217.275992
L 453.379451 1217.275992
L 453.379451 1203.010317
L 420.573164 1203.010317
z
" clip-path="url(#p1e1f4c3473)" style="fill: #d3d3d3"/>
   </g>
   <g id="patch_99">
    <path d="M 116.61208 1245.807341
L 453.379451 1245.807341
L 453.379451 1231.541667
L 116.61208 1231.541667
z
" clip-path="url(#p1e1f4c3473)" style="fill: #377eb8"/>
   </g>
   <g id="patch_100">
    <path d="M 502.608226 1245.807341
L 695.03567 1245.807341
L 695.03567 1231.541667
L 502.608226 1231.541667
z
" clip-path="url(#p1e1f4c3473)" style="fill: #4daf4a"/>
   </g>
   <g id="patch_101">
    <path d="M 453.398795 1245.807341
L 502.588882 1245.807341
L 502.588882 1231.541667
L 453.398795 1231.541667
z
" clip-path="url(#p1e1f4c3473)" style="fill: #d3d3d3"/>
   </g>
   <g id="patch_102">
    <path d="M 116.61208 1274.33869
L 453.379451 1274.33869
L 453.379451 1260.073016
L 116.61208 1260.073016
z
" clip-path="url(#p1e1f4c3473)" style="fill: #377eb8"/>
   </g>
   <g id="patch_103">
    <path d="M 502.608226 1274.33869
L 695.03567 1274.33869
L 695.03567 1260.073016
L 502.608226 1260.073016
z
" clip-path="url(#p1e1f4c3473)" style="fill: #4daf4a"/>
   </g>
   <g id="patch_104">
    <path d="M 453.398795 1274.33869
L 502.588882 1274.33869
L 502.588882 1260.073016
L 453.398795 1260.073016
z
" clip-path="url(#p1e1f4c3473)" style="fill: #d3d3d3"/>
   </g>
   <g id="patch_105">
    <path d="M 116.61208 1302.87004
L 453.379451 1302.87004
L 453.379451 1288.604365
L 116.61208 1288.604365
z
" clip-path="url(#p1e1f4c3473)" style="fill: #377eb8"/>
   </g>
   <g id="patch_106">
    <path d="M 502.608226 1302.87004
L 695.03567 1302.87004
L 695.03567 1288.604365
L 502.608226 1288.604365
z
" clip-path="url(#p1e1f4c3473)" style="fill: #4daf4a"/>
   </g>
   <g id="patch_107">
    <path d="M 453.398795 1302.87004
L 502.588882 1302.87004
L 502.588882 1288.604365
L 453.398795 1288.604365
z
" clip-path="url(#p1e1f4c3473)" style="fill: #d3d3d3"/>
   </g>
   <g id="patch_108">
    <path d="M 116.61208 1331.401389
L 453.379451 1331.401389
L 453.379451 1317.135714
L 116.61208 1317.135714
z
" clip-path="url(#p1e1f4c3473)" style="fill: #377eb8"/>
   </g>
   <g id="patch_109">
    <path d="M 502.608226 1331.401389
L 695.03567 1331.401389
L 695.03567 1317.135714
L 502.608226 1317.135714
z
" clip-path="url(#p1e1f4c3473)" style="fill: #4daf4a"/>
   </g>
   <g id="patch_110">
    <path d="M 453.398795 1331.401389
L 502.588882 1331.401389
L 502.588882 1317.135714
L 453.398795 1317.135714
z
" clip-path="url(#p1e1f4c3473)" style="fill: #d3d3d3"/>
   </g>
   <g id="patch_111">
    <path d="M 116.61208 1359.932738
L 453.418138 1359.932738
L 453.418138 1345.667063
L 116.61208 1345.667063
z
" clip-path="url(#p1e1f4c3473)" style="fill: #377eb8"/>
   </g>
   <g id="patch_112">
    <path d="M 502.588882 1359.932738
L 695.03567 1359.932738
L 695.03567 1345.667063
L 502.588882 1345.667063
z
" clip-path="url(#p1e1f4c3473)" style="fill: #4daf4a"/>
   </g>
   <g id="patch_113">
    <path d="M 453.437481 1359.932738
L 502.569539 1359.932738
L 502.569539 1345.667063
L 453.437481 1345.667063
z
" clip-path="url(#p1e1f4c3473)" style="fill: #d3d3d3"/>
   </g>
   <g id="patch_114">
    <path d="M 116.61208 1388.464087
L 504.523215 1388.464087
L 504.523215 1374.198413
L 116.61208 1374.198413
z
" clip-path="url(#p1e1f4c3473)" style="fill: #377eb8"/>
   </g>
   <g id="patch_115">
    <path d="M 534.795526 1388.464087
L 695.03567 1388.464087
L 695.03567 1374.198413
L 534.795526 1374.198413
z
" clip-path="url(#p1e1f4c3473)" style="fill: #4daf4a"/>
   </g>
   <g id="patch_116">
    <path d="M 504.542559 1388.464087
L 534.776183 1388.464087
L 534.776183 1374.198413
L 504.542559 1374.198413
z
" clip-path="url(#p1e1f4c3473)" style="fill: #d3d3d3"/>
   </g>
   <g id="patch_117">
    <path d="M 116.61208 1416.995437
L 504.542559 1416.995437
L 504.542559 1402.729762
L 116.61208 1402.729762
z
" clip-path="url(#p1e1f4c3473)" style="fill: #377eb8"/>
   </g>
   <g id="patch_118">
    <path d="M 534.776183 1416.995437
L 695.03567 1416.995437
L 695.03567 1402.729762
L 534.776183 1402.729762
z
" clip-path="url(#p1e1f4c3473)" style="fill: #4daf4a"/>
   </g>
   <g id="patch_119">
    <path d="M 504.561902 1416.995437
L 534.75684 1416.995437
L 534.75684 1402.729762
L 504.561902 1402.729762
z
" clip-path="url(#p1e1f4c3473)" style="fill: #d3d3d3"/>
   </g>
   <g id="patch_120">
    <path d="M 116.61208 1445.526786
L 646.309823 1445.526786
L 646.309823 1431.261111
L 116.61208 1431.261111
z
" clip-path="url(#p1e1f4c3473)" style="fill: #377eb8"/>
   </g>
   <g id="patch_121">
    <path d="M 687.433742 1445.526786
L 695.03567 1445.526786
L 695.03567 1431.261111
L 687.433742 1431.261111
z
" clip-path="url(#p1e1f4c3473)" style="fill: #4daf4a"/>
   </g>
   <g id="patch_122">
    <path d="M 646.329166 1445.526786
L 687.414398 1445.526786
L 687.414398 1431.261111
L 646.329166 1431.261111
z
" clip-path="url(#p1e1f4c3473)" style="fill: #d3d3d3"/>
   </g>
   <g id="patch_123">
    <path d="M 278.960647 1474.058135
L 695.03567 1474.058135
L 695.03567 1459.79246
L 278.960647 1459.79246
z
" clip-path="url(#p1e1f4c3473)" style="fill: #377eb8"/>
   </g>
   <g id="patch_124">
    <path d="M 116.61208 1474.058135
L 242.633873 1474.058135
L 242.633873 1459.79246
L 116.61208 1459.79246
z
" clip-path="url(#p1e1f4c3473)" style="fill: #4daf4a"/>
   </g>
   <g id="patch_125">
    <path d="M 242.653217 1474.058135
L 278.941303 1474.058135
L 278.941303 1459.79246
L 242.653217 1459.79246
z
" clip-path="url(#p1e1f4c3473)" style="fill: #d3d3d3"/>
   </g>
   <g id="patch_126">
    <path d="M 365.754167 1502.589484
L 695.03567 1502.589484
L 695.03567 1488.32381
L 365.754167 1488.32381
z
" clip-path="url(#p1e1f4c3473)" style="fill: #377eb8"/>
   </g>
   <g id="patch_127">
    <path d="M 116.61208 1502.589484
L 339.776075 1502.589484
L 339.776075 1488.32381
L 116.61208 1488.32381
z
" clip-path="url(#p1e1f4c3473)" style="fill: #4daf4a"/>
   </g>
   <g id="patch_128">
    <path d="M 339.795419 1502.589484
L 365.734824 1502.589484
L 365.734824 1488.32381
L 339.795419 1488.32381
z
" clip-path="url(#p1e1f4c3473)" style="fill: #d3d3d3"/>
   </g>
   <g id="patch_129">
    <path d="M 467.964322 1531.120833
L 583.347284 1531.120833
L 583.347284 1516.855159
L 467.964322 1516.855159
z
" clip-path="url(#p1e1f4c3473)" style="fill: #377eb8"/>
   </g>
   <g id="patch_130">
    <path d="M 116.61208 1531.120833
L 453.360108 1531.120833
L 453.360108 1516.855159
L 116.61208 1516.855159
z
" clip-path="url(#p1e1f4c3473)" style="fill: #4daf4a"/>
   </g>
   <g id="patch_131">
    <path d="M 590.601033 1531.120833
L 695.03567 1531.120833
L 695.03567 1516.855159
L 590.601033 1516.855159
z
" clip-path="url(#p1e1f4c3473)" style="fill: #4daf4a"/>
   </g>
   <g id="patch_132">
    <path d="M 453.379451 1531.120833
L 467.944979 1531.120833
L 467.944979 1516.855159
L 453.379451 1516.855159
z
" clip-path="url(#p1e1f4c3473)" style="fill: #d3d3d3"/>
   </g>
   <g id="patch_133">
    <path d="M 583.366627 1531.120833
L 590.581689 1531.120833
L 590.581689 1516.855159
L 583.366627 1516.855159
z
" clip-path="url(#p1e1f4c3473)" style="fill: #d3d3d3"/>
   </g>
   <g id="patch_134">
    <path d="M 620.486477 1559.652183
L 695.03567 1559.652183
L 695.03567 1545.386508
L 620.486477 1545.386508
z
" clip-path="url(#p1e1f4c3473)" style="fill: #377eb8"/>
   </g>
   <g id="patch_135">
    <path d="M 116.61208 1559.652183
L 590.620376 1559.652183
L 590.620376 1545.386508
L 116.61208 1545.386508
z
" clip-path="url(#p1e1f4c3473)" style="fill: #4daf4a"/>
   </g>
   <g id="patch_136">
    <path d="M 590.639719 1559.652183
L 620.467134 1559.652183
L 620.467134 1545.386508
L 590.639719 1545.386508
z
" clip-path="url(#p1e1f4c3473)" style="fill: #d3d3d3"/>
   </g>
   <g id="patch_137">
    <path d="M 620.699254 1588.183532
L 695.03567 1588.183532
L 695.03567 1573.917857
L 620.699254 1573.917857
z
" clip-path="url(#p1e1f4c3473)" style="fill: #377eb8"/>
   </g>
   <g id="patch_138">
    <path d="M 116.61208 1588.183532
L 590.581689 1588.183532
L 590.581689 1573.917857
L 116.61208 1573.917857
z
" clip-path="url(#p1e1f4c3473)" style="fill: #4daf4a"/>
   </g>
   <g id="patch_139">
    <path d="M 590.601033 1588.183532
L 620.679911 1588.183532
L 620.679911 1573.917857
L 590.601033 1573.917857
z
" clip-path="url(#p1e1f4c3473)" style="fill: #d3d3d3"/>
   </g>
   <g id="patch_140">
    <path d="M 620.699254 1616.714881
L 695.03567 1616.714881
L 695.03567 1602.449206
L 620.699254 1602.449206
z
" clip-path="url(#p1e1f4c3473)" style="fill: #377eb8"/>
   </g>
   <g id="patch_141">
    <path d="M 116.61208 1616.714881
L 590.581689 1616.714881
L 590.581689 1602.449206
L 116.61208 1602.449206
z
" clip-path="url(#p1e1f4c3473)" style="fill: #4daf4a"/>
   </g>
   <g id="patch_142">
    <path d="M 590.601033 1616.714881
L 620.679911 1616.714881
L 620.679911 1602.449206
L 590.601033 1602.449206
z
" clip-path="url(#p1e1f4c3473)" style="fill: #d3d3d3"/>
   </g>
   <g id="patch_143">
    <path d="M 629.771276 1645.24623
L 695.03567 1645.24623
L 695.03567 1630.980556
L 629.771276 1630.980556
z
" clip-path="url(#p1e1f4c3473)" style="fill: #377eb8"/>
   </g>
   <g id="patch_144">
    <path d="M 116.61208 1645.24623
L 620.718597 1645.24623
L 620.718597 1630.980556
L 116.61208 1630.980556
z
" clip-path="url(#p1e1f4c3473)" style="fill: #4daf4a"/>
   </g>
   <g id="patch_145">
    <path d="M 620.737941 1645.24623
L 629.751932 1645.24623
L 629.751932 1630.980556
L 620.737941 1630.980556
z
" clip-path="url(#p1e1f4c3473)" style="fill: #d3d3d3"/>
   </g>
   <g id="patch_146">
    <path d="M 629.771276 1673.777579
L 695.03567 1673.777579
L 695.03567 1659.511905
L 629.771276 1659.511905
z
" clip-path="url(#p1e1f4c3473)" style="fill: #377eb8"/>
   </g>
   <g id="patch_147">
    <path d="M 116.61208 1673.777579
L 620.718597 1673.777579
L 620.718597 1659.511905
L 116.61208 1659.511905
z
" clip-path="url(#p1e1f4c3473)" style="fill: #4daf4a"/>
   </g>
   <g id="patch_148">
    <path d="M 620.737941 1673.777579
L 629.751932 1673.777579
L 629.751932 1659.511905
L 620.737941 1659.511905
z
" clip-path="url(#p1e1f4c3473)" style="fill: #d3d3d3"/>
   </g>
   <g id="patch_149">
    <path d="M 629.771276 1702.308929
L 695.03567 1702.308929
L 695.03567 1688.043254
L 629.771276 1688.043254
z
" clip-path="url(#p1e1f4c3473)" style="fill: #377eb8"/>
   </g>
   <g id="patch_150">
    <path d="M 116.61208 1702.308929
L 620.737941 1702.308929
L 620.737941 1688.043254
L 116.61208 1688.043254
z
" clip-path="url(#p1e1f4c3473)" style="fill: #4daf4a"/>
   </g>
   <g id="patch_151">
    <path d="M 620.757284 1702.308929
L 629.751932 1702.308929
L 629.751932 1688.043254
L 620.757284 1688.043254
z
" clip-path="url(#p1e1f4c3473)" style="fill: #d3d3d3"/>
   </g>
   <g id="patch_152">
    <path d="M 629.771276 1730.840278
L 695.03567 1730.840278
L 695.03567 1716.574603
L 629.771276 1716.574603
z
" clip-path="url(#p1e1f4c3473)" style="fill: #377eb8"/>
   </g>
   <g id="patch_153">
    <path d="M 116.61208 1730.840278
L 620.737941 1730.840278
L 620.737941 1716.574603
L 116.61208 1716.574603
z
" clip-path="url(#p1e1f4c3473)" style="fill: #4daf4a"/>
   </g>
   <g id="patch_154">
    <path d="M 620.757284 1730.840278
L 629.751932 1730.840278
L 629.751932 1716.574603
L 620.757284 1716.574603
z
" clip-path="url(#p1e1f4c3473)" style="fill: #d3d3d3"/>
   </g>
   <g id="patch_155">
    <path d="M 629.790619 1759.371627
L 695.03567 1759.371627
L 695.03567 1745.105952
L 629.790619 1745.105952
z
" clip-path="url(#p1e1f4c3473)" style="fill: #377eb8"/>
   </g>
   <g id="patch_156">
    <path d="M 116.61208 1759.371627
L 620.699254 1759.371627
L 620.699254 1745.105952
L 116.61208 1745.105952
z
" clip-path="url(#p1e1f4c3473)" style="fill: #4daf4a"/>
   </g>
   <g id="patch_157">
    <path d="M 620.718597 1759.371627
L 629.771276 1759.371627
L 629.771276 1745.105952
L 620.718597 1745.105952
z
" clip-path="url(#p1e1f4c3473)" style="fill: #d3d3d3"/>
   </g>
   <g id="patch_158">
    <path d="M 646.271136 1787.902976
L 695.03567 1787.902976
L 695.03567 1773.637302
L 646.271136 1773.637302
z
" clip-path="url(#p1e1f4c3473)" style="fill: #377eb8"/>
   </g>
   <g id="patch_159">
    <path d="M 116.61208 1787.902976
L 636.135231 1787.902976
L 636.135231 1773.637302
L 116.61208 1773.637302
z
" clip-path="url(#p1e1f4c3473)" style="fill: #4daf4a"/>
   </g>
   <g id="patch_160">
    <path d="M 636.154574 1787.902976
L 646.251793 1787.902976
L 646.251793 1773.637302
L 636.154574 1773.637302
z
" clip-path="url(#p1e1f4c3473)" style="fill: #d3d3d3"/>
   </g>
   <g id="patch_161">
    <path d="M 116.61208 1816.434325
L 467.925635 1816.434325
L 467.925635 1802.168651
L 116.61208 1802.168651
z
" clip-path="url(#p1e1f4c3473)" style="fill: #4daf4a"/>
   </g>
   <g id="patch_162">
    <path d="M 500.828639 1816.434325
L 695.03567 1816.434325
L 695.03567 1802.168651
L 500.828639 1802.168651
z
" clip-path="url(#p1e1f4c3473)" style="fill: #984ea3"/>
   </g>
   <g id="patch_163">
    <path d="M 467.944979 1816.434325
L 500.809296 1816.434325
L 500.809296 1802.168651
L 467.944979 1802.168651
z
" clip-path="url(#p1e1f4c3473)" style="fill: #d3d3d3"/>
   </g>
   <g id="matplotlib.axis_3">
    <g id="xtick_8">
     <g id="line2d_8">
      <g>
       <use xlink:href="#ma51aa09eb6" x="116.61208" y="1830.7" style="stroke: #000000; stroke-width: 0.8"/>
      </g>
     </g>
     <g id="text_1">
      <text style="font: 10px 'sans-serif'; text-anchor: middle" x="116.61208" y="1845.298438" transform="rotate(-0, 116.61208, 1845.298438)">0</text>
     </g>
    </g>
    <g id="xtick_9">
     <g id="line2d_9">
      <g>
       <use xlink:href="#ma51aa09eb6" x="213.328729" y="1830.7" style="stroke: #000000; stroke-width: 0.8"/>
      </g>
     </g>
     <g id="text_2">
      <text style="font: 10px 'sans-serif'; text-anchor: middle" x="213.328729" y="1845.298438" transform="rotate(-0, 213.328729, 1845.298438)">5000</text>
     </g>
    </g>
    <g id="xtick_10">
     <g id="line2d_10">
      <g>
       <use xlink:href="#ma51aa09eb6" x="310.045378" y="1830.7" style="stroke: #000000; stroke-width: 0.8"/>
      </g>
     </g>
     <g id="text_3">
      <text style="font: 10px 'sans-serif'; text-anchor: middle" x="310.045378" y="1845.298438" transform="rotate(-0, 310.045378, 1845.298438)">10000</text>
     </g>
    </g>
    <g id="xtick_11">
     <g id="line2d_11">
      <g>
       <use xlink:href="#ma51aa09eb6" x="406.762026" y="1830.7" style="stroke: #000000; stroke-width: 0.8"/>
      </g>
     </g>
     <g id="text_4">
      <text style="font: 10px 'sans-serif'; text-anchor: middle" x="406.762026" y="1845.298438" transform="rotate(-0, 406.762026, 1845.298438)">15000</text>
     </g>
    </g>
    <g id="xtick_12">
     <g id="line2d_12">
      <g>
       <use xlink:href="#ma51aa09eb6" x="503.478675" y="1830.7" style="stroke: #000000; stroke-width: 0.8"/>
      </g>
     </g>
     <g id="text_5">
      <text style="font: 10px 'sans-serif'; text-anchor: middle" x="503.478675" y="1845.298438" transform="rotate(-0, 503.478675, 1845.298438)">20000</text>
     </g>
    </g>
    <g id="xtick_13">
     <g id="line2d_13">
      <g>
       <use xlink:href="#ma51aa09eb6" x="600.195324" y="1830.7" style="stroke: #000000; stroke-width: 0.8"/>
      </g>
     </g>
     <g id="text_6">
      <text style="font: 10px 'sans-serif'; text-anchor: middle" x="600.195324" y="1845.298438" transform="rotate(-0, 600.195324, 1845.298438)">25000</text>
     </g>
    </g>
    <g id="xtick_14">
     <g id="line2d_14">
      <g>
       <use xlink:href="#ma51aa09eb6" x="696.911973" y="1830.7" style="stroke: #000000; stroke-width: 0.8"/>
      </g>
     </g>
     <g id="text_7">
      <text style="font: 10px 'sans-serif'; text-anchor: middle" x="696.911973" y="1845.298438" transform="rotate(-0, 696.911973, 1845.298438)">30000</text>
     </g>
    </g>
    <g id="text_8">
     <text style="font: 10px 'sans-serif'; text-anchor: middle" x="405.823875" y="1858.976563" transform="rotate(-0, 405.823875, 1858.976563)">Genomic Coordinate</text>
    </g>
   </g>
   <g id="matplotlib.axis_4">
    <g id="ytick_1">
     <g id="line2d_15">
      <defs>
       <path id="m3ba0acdb25" d="M 0 0
L -3.5 0
" style="stroke: #000000; stroke-width: 0.8"/>
      </defs>
      <g>
       <use xlink:href="#m3ba0acdb25" x="97.26875" y="354.202679" style="stroke: #000000; stroke-width: 0.8"/>
      </g>
     </g>
     <g id="text_9">
      <text style="font: 10px 'sans-serif'; text-anchor: end" x="90.26875" y="358.001897" transform="rotate(-0, 90.26875, 358.001897)">XF</text>
     </g>
    </g>
    <g id="ytick_2">
     <g id="line2d_16">
      <g>
       <use xlink:href="#m3ba0acdb25" x="97.26875" y="382.734028" style="stroke: #000000; stroke-width: 0.8"/>
      </g>
     </g>
     <g id="text_10">
      <text style="font: 10px 'sans-serif'; text-anchor: end" x="90.26875" y="386.533247" transform="rotate(-0, 90.26875, 386.533247)">proposed446</text>
     </g>
    </g>
    <g id="ytick_3">
     <g id="line2d_17">
      <g>
       <use xlink:href="#m3ba0acdb25" x="97.26875" y="411.265377" style="stroke: #000000; stroke-width: 0.8"/>
      </g>
     </g>
     <g id="text_11">
      <text style="font: 10px 'sans-serif'; text-anchor: end" x="90.26875" y="415.064596" transform="rotate(-0, 90.26875, 415.064596)">XS</text>
     </g>
    </g>
    <g id="ytick_4">
     <g id="line2d_18">
      <g>
       <use xlink:href="#m3ba0acdb25" x="97.26875" y="439.796726" style="stroke: #000000; stroke-width: 0.8"/>
      </g>
     </g>
     <g id="text_12">
      <text style="font: 10px 'sans-serif'; text-anchor: end" x="90.26875" y="443.595945" transform="rotate(-0, 90.26875, 443.595945)">proposed519</text>
     </g>
    </g>
    <g id="ytick_5">
     <g id="line2d_19">
      <g>
       <use xlink:href="#m3ba0acdb25" x="97.26875" y="468.328075" style="stroke: #000000; stroke-width: 0.8"/>
      </g>
     </g>
     <g id="text_13">
      <text style="font: 10px 'sans-serif'; text-anchor: end" x="90.26875" y="472.127294" transform="rotate(-0, 90.26875, 472.127294)">proposed476</text>
     </g>
    </g>
    <g id="ytick_6">
     <g id="line2d_20">
      <g>
       <use xlink:href="#m3ba0acdb25" x="97.26875" y="496.859425" style="stroke: #000000; stroke-width: 0.8"/>
      </g>
     </g>
     <g id="text_14">
      <text style="font: 10px 'sans-serif'; text-anchor: end" x="90.26875" y="500.658643" transform="rotate(-0, 90.26875, 500.658643)">proposed441</text>
     </g>
    </g>
    <g id="ytick_7">
     <g id="line2d_21">
      <g>
       <use xlink:href="#m3ba0acdb25" x="97.26875" y="525.390774" style="stroke: #000000; stroke-width: 0.8"/>
      </g>
     </g>
     <g id="text_15">
      <text style="font: 10px 'sans-serif'; text-anchor: end" x="90.26875" y="529.189993" transform="rotate(-0, 90.26875, 529.189993)">proposed484</text>
     </g>
    </g>
    <g id="ytick_8">
     <g id="line2d_22">
      <g>
       <use xlink:href="#m3ba0acdb25" x="97.26875" y="553.922123" style="stroke: #000000; stroke-width: 0.8"/>
      </g>
     </g>
     <g id="text_16">
      <text style="font: 10px 'sans-serif'; text-anchor: end" x="90.26875" y="557.721342" transform="rotate(-0, 90.26875, 557.721342)">proposed439</text>
     </g>
    </g>
    <g id="ytick_9">
     <g id="line2d_23">
      <g>
       <use xlink:href="#m3ba0acdb25" x="97.26875" y="582.453472" style="stroke: #000000; stroke-width: 0.8"/>
      </g>
     </g>
     <g id="text_17">
      <text style="font: 10px 'sans-serif'; text-anchor: end" x="90.26875" y="586.252691" transform="rotate(-0, 90.26875, 586.252691)">XD</text>
     </g>
    </g>
    <g id="ytick_10">
     <g id="line2d_24">
      <g>
       <use xlink:href="#m3ba0acdb25" x="97.26875" y="610.984821" style="stroke: #000000; stroke-width: 0.8"/>
      </g>
     </g>
     <g id="text_18">
      <text style="font: 10px 'sans-serif'; text-anchor: end" x="90.26875" y="614.78404" transform="rotate(-0, 90.26875, 614.78404)">XN</text>
     </g>
    </g>
    <g id="ytick_11">
     <g id="line2d_25">
      <g>
       <use xlink:href="#m3ba0acdb25" x="97.26875" y="639.516171" style="stroke: #000000; stroke-width: 0.8"/>
      </g>
     </g>
     <g id="text_19">
      <text style="font: 10px 'sans-serif'; text-anchor: end" x="90.26875" y="643.315389" transform="rotate(-0, 90.26875, 643.315389)">proposed591</text>
     </g>
    </g>
    <g id="ytick_12">
     <g id="line2d_26">
      <g>
       <use xlink:href="#m3ba0acdb25" x="97.26875" y="668.04752" style="stroke: #000000; stroke-width: 0.8"/>
      </g>
     </g>
     <g id="text_20">
      <text style="font: 10px 'sans-serif'; text-anchor: end" x="90.26875" y="671.846739" transform="rotate(-0, 90.26875, 671.846739)">XQ</text>
     </g>
    </g>
    <g id="ytick_13">
     <g id="line2d_27">
      <g>
       <use xlink:href="#m3ba0acdb25" x="97.26875" y="696.578869" style="stroke: #000000; stroke-width: 0.8"/>
      </g>
     </g>
     <g id="text_21">
      <text style="font: 10px 'sans-serif'; text-anchor: end" x="90.26875" y="700.378088" transform="rotate(-0, 90.26875, 700.378088)">XR</text>
     </g>
    </g>
    <g id="ytick_14">
     <g id="line2d_28">
      <g>
       <use xlink:href="#m3ba0acdb25" x="97.26875" y="725.110218" style="stroke: #000000; stroke-width: 0.8"/>
      </g>
     </g>
     <g id="text_22">
      <text style="font: 10px 'sans-serif'; text-anchor: end" x="90.26875" y="728.909437" transform="rotate(-0, 90.26875, 728.909437)">XG</text>
     </g>
    </g>
    <g id="ytick_15">
     <g id="line2d_29">
      <g>
       <use xlink:href="#m3ba0acdb25" x="97.26875" y="753.641567" style="stroke: #000000; stroke-width: 0.8"/>
      </g>
     </g>
     <g id="text_23">
      <text style="font: 10px 'sans-serif'; text-anchor: end" x="90.26875" y="757.440786" transform="rotate(-0, 90.26875, 757.440786)">proposed759</text>
     </g>
    </g>
    <g id="ytick_16">
     <g id="line2d_30">
      <g>
       <use xlink:href="#m3ba0acdb25" x="97.26875" y="782.172917" style="stroke: #000000; stroke-width: 0.8"/>
      </g>
     </g>
     <g id="text_24">
      <text style="font: 10px 'sans-serif'; text-anchor: end" x="90.26875" y="785.972135" transform="rotate(-0, 90.26875, 785.972135)">XAB</text>
     </g>
    </g>
    <g id="ytick_17">
     <g id="line2d_31">
      <g>
       <use xlink:href="#m3ba0acdb25" x="97.26875" y="810.704266" style="stroke: #000000; stroke-width: 0.8"/>
      </g>
     </g>
     <g id="text_25">
      <text style="font: 10px 'sans-serif'; text-anchor: end" x="90.26875" y="814.503485" transform="rotate(-0, 90.26875, 814.503485)">XL</text>
     </g>
    </g>
    <g id="ytick_18">
     <g id="line2d_32">
      <g>
       <use xlink:href="#m3ba0acdb25" x="97.26875" y="839.235615" style="stroke: #000000; stroke-width: 0.8"/>
      </g>
     </g>
     <g id="text_26">
      <text style="font: 10px 'sans-serif'; text-anchor: end" x="90.26875" y="843.034834" transform="rotate(-0, 90.26875, 843.034834)">XU</text>
     </g>
    </g>
    <g id="ytick_19">
     <g id="line2d_33">
      <g>
       <use xlink:href="#m3ba0acdb25" x="97.26875" y="867.766964" style="stroke: #000000; stroke-width: 0.8"/>
      </g>
     </g>
     <g id="text_27">
      <text style="font: 10px 'sans-serif'; text-anchor: end" x="90.26875" y="871.566183" transform="rotate(-0, 90.26875, 871.566183)">XAA</text>
     </g>
    </g>
    <g id="ytick_20">
     <g id="line2d_34">
      <g>
       <use xlink:href="#m3ba0acdb25" x="97.26875" y="896.298313" style="stroke: #000000; stroke-width: 0.8"/>
      </g>
     </g>
     <g id="text_28">
      <text style="font: 10px 'sans-serif'; text-anchor: end" x="90.26875" y="900.097532" transform="rotate(-0, 90.26875, 900.097532)">proposed470</text>
     </g>
    </g>
    <g id="ytick_21">
     <g id="line2d_35">
      <g>
       <use xlink:href="#m3ba0acdb25" x="97.26875" y="924.829663" style="stroke: #000000; stroke-width: 0.8"/>
      </g>
     </g>
     <g id="text_29">
      <text style="font: 10px 'sans-serif'; text-anchor: end" x="90.26875" y="928.628881" transform="rotate(-0, 90.26875, 928.628881)">proposed479</text>
     </g>
    </g>
    <g id="ytick_22">
     <g id="line2d_36">
      <g>
       <use xlink:href="#m3ba0acdb25" x="97.26875" y="953.361012" style="stroke: #000000; stroke-width: 0.8"/>
      </g>
     </g>
     <g id="text_30">
      <text style="font: 10px 'sans-serif'; text-anchor: end" x="90.26875" y="957.160231" transform="rotate(-0, 90.26875, 957.160231)">XH</text>
     </g>
    </g>
    <g id="ytick_23">
     <g id="line2d_37">
      <g>
       <use xlink:href="#m3ba0acdb25" x="97.26875" y="981.892361" style="stroke: #000000; stroke-width: 0.8"/>
      </g>
     </g>
     <g id="text_31">
      <text style="font: 10px 'sans-serif'; text-anchor: end" x="90.26875" y="985.69158" transform="rotate(-0, 90.26875, 985.69158)">XE</text>
     </g>
    </g>
    <g id="ytick_24">
     <g id="line2d_38">
      <g>
       <use xlink:href="#m3ba0acdb25" x="97.26875" y="1010.42371" style="stroke: #000000; stroke-width: 0.8"/>
      </g>
     </g>
     <g id="text_32">
      <text style="font: 10px 'sans-serif'; text-anchor: end" x="90.26875" y="1014.222929" transform="rotate(-0, 90.26875, 1014.222929)">XAF</text>
     </g>
    </g>
    <g id="ytick_25">
     <g id="line2d_39">
      <g>
       <use xlink:href="#m3ba0acdb25" x="97.26875" y="1038.95506" style="stroke: #000000; stroke-width: 0.8"/>
      </g>
     </g>
     <g id="text_33">
      <text style="font: 10px 'sans-serif'; text-anchor: end" x="90.26875" y="1042.754278" transform="rotate(-0, 90.26875, 1042.754278)">proposed518</text>
     </g>
    </g>
    <g id="ytick_26">
     <g id="line2d_40">
      <g>
       <use xlink:href="#m3ba0acdb25" x="97.26875" y="1067.486409" style="stroke: #000000; stroke-width: 0.8"/>
      </g>
     </g>
     <g id="text_34">
      <text style="font: 10px 'sans-serif'; text-anchor: end" x="90.26875" y="1071.285627" transform="rotate(-0, 90.26875, 1071.285627)">proposed557</text>
     </g>
    </g>
    <g id="ytick_27">
     <g id="line2d_41">
      <g>
       <use xlink:href="#m3ba0acdb25" x="97.26875" y="1096.017758" style="stroke: #000000; stroke-width: 0.8"/>
      </g>
     </g>
     <g id="text_35">
      <text style="font: 10px 'sans-serif'; text-anchor: end" x="90.26875" y="1099.816977" transform="rotate(-0, 90.26875, 1099.816977)">XY</text>
     </g>
    </g>
    <g id="ytick_28">
     <g id="line2d_42">
      <g>
       <use xlink:href="#m3ba0acdb25" x="97.26875" y="1124.549107" style="stroke: #000000; stroke-width: 0.8"/>
      </g>
     </g>
     <g id="text_36">
      <text style="font: 10px 'sans-serif'; text-anchor: end" x="90.26875" y="1128.348326" transform="rotate(-0, 90.26875, 1128.348326)">XJ</text>
     </g>
    </g>
    <g id="ytick_29">
     <g id="line2d_43">
      <g>
       <use xlink:href="#m3ba0acdb25" x="97.26875" y="1153.080456" style="stroke: #000000; stroke-width: 0.8"/>
      </g>
     </g>
     <g id="text_37">
      <text style="font: 10px 'sans-serif'; text-anchor: end" x="90.26875" y="1156.879675" transform="rotate(-0, 90.26875, 1156.879675)">proposed463</text>
     </g>
    </g>
    <g id="ytick_30">
     <g id="line2d_44">
      <g>
       <use xlink:href="#m3ba0acdb25" x="97.26875" y="1181.611806" style="stroke: #000000; stroke-width: 0.8"/>
      </g>
     </g>
     <g id="text_38">
      <text style="font: 10px 'sans-serif'; text-anchor: end" x="90.26875" y="1185.411024" transform="rotate(-0, 90.26875, 1185.411024)">proposed467</text>
     </g>
    </g>
    <g id="ytick_31">
     <g id="line2d_45">
      <g>
       <use xlink:href="#m3ba0acdb25" x="97.26875" y="1210.143155" style="stroke: #000000; stroke-width: 0.8"/>
      </g>
     </g>
     <g id="text_39">
      <text style="font: 10px 'sans-serif'; text-anchor: end" x="90.26875" y="1213.942374" transform="rotate(-0, 90.26875, 1213.942374)">proposed559</text>
     </g>
    </g>
    <g id="ytick_32">
     <g id="line2d_46">
      <g>
       <use xlink:href="#m3ba0acdb25" x="97.26875" y="1238.674504" style="stroke: #000000; stroke-width: 0.8"/>
      </g>
     </g>
     <g id="text_40">
      <text style="font: 10px 'sans-serif'; text-anchor: end" x="90.26875" y="1242.473723" transform="rotate(-0, 90.26875, 1242.473723)">XK</text>
     </g>
    </g>
    <g id="ytick_33">
     <g id="line2d_47">
      <g>
       <use xlink:href="#m3ba0acdb25" x="97.26875" y="1267.205853" style="stroke: #000000; stroke-width: 0.8"/>
      </g>
     </g>
     <g id="text_41">
      <text style="font: 10px 'sans-serif'; text-anchor: end" x="90.26875" y="1271.005072" transform="rotate(-0, 90.26875, 1271.005072)">XM</text>
     </g>
    </g>
    <g id="ytick_34">
     <g id="line2d_48">
      <g>
       <use xlink:href="#m3ba0acdb25" x="97.26875" y="1295.737202" style="stroke: #000000; stroke-width: 0.8"/>
      </g>
     </g>
     <g id="text_42">
      <text style="font: 10px 'sans-serif'; text-anchor: end" x="90.26875" y="1299.536421" transform="rotate(-0, 90.26875, 1299.536421)">proposed781</text>
     </g>
    </g>
    <g id="ytick_35">
     <g id="line2d_49">
      <g>
       <use xlink:href="#m3ba0acdb25" x="97.26875" y="1324.268552" style="stroke: #000000; stroke-width: 0.8"/>
      </g>
     </g>
     <g id="text_43">
      <text style="font: 10px 'sans-serif'; text-anchor: end" x="90.26875" y="1328.06777" transform="rotate(-0, 90.26875, 1328.06777)">proposed798</text>
     </g>
    </g>
    <g id="ytick_36">
     <g id="line2d_50">
      <g>
       <use xlink:href="#m3ba0acdb25" x="97.26875" y="1352.799901" style="stroke: #000000; stroke-width: 0.8"/>
      </g>
     </g>
     <g id="text_44">
      <text style="font: 10px 'sans-serif'; text-anchor: end" x="90.26875" y="1356.59912" transform="rotate(-0, 90.26875, 1356.59912)">proposed757</text>
     </g>
    </g>
    <g id="ytick_37">
     <g id="line2d_51">
      <g>
       <use xlink:href="#m3ba0acdb25" x="97.26875" y="1381.33125" style="stroke: #000000; stroke-width: 0.8"/>
      </g>
     </g>
     <g id="text_45">
      <text style="font: 10px 'sans-serif'; text-anchor: end" x="90.26875" y="1385.130469" transform="rotate(-0, 90.26875, 1385.130469)">proposed514</text>
     </g>
    </g>
    <g id="ytick_38">
     <g id="line2d_52">
      <g>
       <use xlink:href="#m3ba0acdb25" x="97.26875" y="1409.862599" style="stroke: #000000; stroke-width: 0.8"/>
      </g>
     </g>
     <g id="text_46">
      <text style="font: 10px 'sans-serif'; text-anchor: end" x="90.26875" y="1413.661818" transform="rotate(-0, 90.26875, 1413.661818)">proposed477</text>
     </g>
    </g>
    <g id="ytick_39">
     <g id="line2d_53">
      <g>
       <use xlink:href="#m3ba0acdb25" x="97.26875" y="1438.393948" style="stroke: #000000; stroke-width: 0.8"/>
      </g>
     </g>
     <g id="text_47">
      <text style="font: 10px 'sans-serif'; text-anchor: end" x="90.26875" y="1442.193167" transform="rotate(-0, 90.26875, 1442.193167)">XP</text>
     </g>
    </g>
    <g id="ytick_40">
     <g id="line2d_54">
      <g>
       <use xlink:href="#m3ba0acdb25" x="97.26875" y="1466.925298" style="stroke: #000000; stroke-width: 0.8"/>
      </g>
     </g>
     <g id="text_48">
      <text style="font: 10px 'sans-serif'; text-anchor: end" x="90.26875" y="1470.724516" transform="rotate(-0, 90.26875, 1470.724516)">XAG</text>
     </g>
    </g>
    <g id="ytick_41">
     <g id="line2d_55">
      <g>
       <use xlink:href="#m3ba0acdb25" x="97.26875" y="1495.456647" style="stroke: #000000; stroke-width: 0.8"/>
      </g>
     </g>
     <g id="text_49">
      <text style="font: 10px 'sans-serif'; text-anchor: end" x="90.26875" y="1499.255866" transform="rotate(-0, 90.26875, 1499.255866)">proposed513</text>
     </g>
    </g>
    <g id="ytick_42">
     <g id="line2d_56">
      <g>
       <use xlink:href="#m3ba0acdb25" x="97.26875" y="1523.987996" style="stroke: #000000; stroke-width: 0.8"/>
      </g>
     </g>
     <g id="text_50">
      <text style="font: 10px 'sans-serif'; text-anchor: end" x="90.26875" y="1527.787215" transform="rotate(-0, 90.26875, 1527.787215)">proposed498</text>
     </g>
    </g>
    <g id="ytick_43">
     <g id="line2d_57">
      <g>
       <use xlink:href="#m3ba0acdb25" x="97.26875" y="1552.519345" style="stroke: #000000; stroke-width: 0.8"/>
      </g>
     </g>
     <g id="text_51">
      <text style="font: 10px 'sans-serif'; text-anchor: end" x="90.26875" y="1556.318564" transform="rotate(-0, 90.26875, 1556.318564)">XAE</text>
     </g>
    </g>
    <g id="ytick_44">
     <g id="line2d_58">
      <g>
       <use xlink:href="#m3ba0acdb25" x="97.26875" y="1581.050694" style="stroke: #000000; stroke-width: 0.8"/>
      </g>
     </g>
     <g id="text_52">
      <text style="font: 10px 'sans-serif'; text-anchor: end" x="90.26875" y="1584.849913" transform="rotate(-0, 90.26875, 1584.849913)">XAC</text>
     </g>
    </g>
    <g id="ytick_45">
     <g id="line2d_59">
      <g>
       <use xlink:href="#m3ba0acdb25" x="97.26875" y="1609.582044" style="stroke: #000000; stroke-width: 0.8"/>
      </g>
     </g>
     <g id="text_53">
      <text style="font: 10px 'sans-serif'; text-anchor: end" x="90.26875" y="1613.381262" transform="rotate(-0, 90.26875, 1613.381262)">proposed608</text>
     </g>
    </g>
    <g id="ytick_46">
     <g id="line2d_60">
      <g>
       <use xlink:href="#m3ba0acdb25" x="97.26875" y="1638.113393" style="stroke: #000000; stroke-width: 0.8"/>
      </g>
     </g>
     <g id="text_54">
      <text style="font: 10px 'sans-serif'; text-anchor: end" x="90.26875" y="1641.912612" transform="rotate(-0, 90.26875, 1641.912612)">XT</text>
     </g>
    </g>
    <g id="ytick_47">
     <g id="line2d_61">
      <g>
       <use xlink:href="#m3ba0acdb25" x="97.26875" y="1666.644742" style="stroke: #000000; stroke-width: 0.8"/>
      </g>
     </g>
     <g id="text_55">
      <text style="font: 10px 'sans-serif'; text-anchor: end" x="90.26875" y="1670.443961" transform="rotate(-0, 90.26875, 1670.443961)">proposed482</text>
     </g>
    </g>
    <g id="ytick_48">
     <g id="line2d_62">
      <g>
       <use xlink:href="#m3ba0acdb25" x="97.26875" y="1695.176091" style="stroke: #000000; stroke-width: 0.8"/>
      </g>
     </g>
     <g id="text_56">
      <text style="font: 10px 'sans-serif'; text-anchor: end" x="90.26875" y="1698.97531" transform="rotate(-0, 90.26875, 1698.97531)">XAD</text>
     </g>
    </g>
    <g id="ytick_49">
     <g id="line2d_63">
      <g>
       <use xlink:href="#m3ba0acdb25" x="97.26875" y="1723.70744" style="stroke: #000000; stroke-width: 0.8"/>
      </g>
     </g>
     <g id="text_57">
      <text style="font: 10px 'sans-serif'; text-anchor: end" x="90.26875" y="1727.506659" transform="rotate(-0, 90.26875, 1727.506659)">proposed789</text>
     </g>
    </g>
    <g id="ytick_50">
     <g id="line2d_64">
      <g>
       <use xlink:href="#m3ba0acdb25" x="97.26875" y="1752.23879" style="stroke: #000000; stroke-width: 0.8"/>
      </g>
     </g>
     <g id="text_58">
      <text style="font: 10px 'sans-serif'; text-anchor: end" x="90.26875" y="1756.038008" transform="rotate(-0, 90.26875, 1756.038008)">XZ</text>
     </g>
    </g>
    <g id="ytick_51">
     <g id="line2d_65">
      <g>
       <use xlink:href="#m3ba0acdb25" x="97.26875" y="1780.770139" style="stroke: #000000; stroke-width: 0.8"/>
      </g>
     </g>
     <g id="text_59">
      <text style="font: 10px 'sans-serif'; text-anchor: end" x="90.26875" y="1784.569358" transform="rotate(-0, 90.26875, 1784.569358)">XAH</text>
     </g>
    </g>
    <g id="ytick_52">
     <g id="line2d_66">
      <g>
       <use xlink:href="#m3ba0acdb25" x="97.26875" y="1809.301488" style="stroke: #000000; stroke-width: 0.8"/>
      </g>
     </g>
     <g id="text_60">
      <text style="font: 10px 'sans-serif'; text-anchor: end" x="90.26875" y="1813.100707" transform="rotate(-0, 90.26875, 1813.100707)">proposed771</text>
     </g>
    </g>
    <g id="text_61">
     <text style="font: 10px 'sans-serif'; text-anchor: middle" x="18.570313" y="1081.752083" transform="rotate(-90, 18.570313, 1081.752083)">Lineage</text>
    </g>
   </g>
   <g id="patch_164">
    <path d="M 97.26875 1830.7
L 97.26875 332.804167
" style="fill: none; stroke: #000000; stroke-width: 0.8; stroke-linejoin: miter; stroke-linecap: square"/>
   </g>
   <g id="patch_165">
    <path d="M 714.379 1830.7
L 714.379 332.804167
" style="fill: none; stroke: #000000; stroke-width: 0.8; stroke-linejoin: miter; stroke-linecap: square"/>
   </g>
   <g id="patch_166">
    <path d="M 97.26875 1830.7
L 714.379 1830.7
" style="fill: none; stroke: #000000; stroke-width: 0.8; stroke-linejoin: miter; stroke-linecap: square"/>
   </g>
   <g id="patch_167">
    <path d="M 97.26875 332.804167
L 714.379 332.804167
" style="fill: none; stroke: #000000; stroke-width: 0.8; stroke-linejoin: miter; stroke-linecap: square"/>
   </g>
   <g id="legend_1">
    <g id="patch_168">
     <path d="M 723.550102 430.872917
L 854.634477 430.872917
L 854.634477 335.804167
L 723.550102 335.804167
z
" style="fill: #ffffff; opacity: 0.8; stroke: #000000; stroke-linejoin: miter"/>
    </g>
    <g id="text_62">
     <text style="font: 10px 'sans-serif'; text-anchor: start" x="773.089946" y="349.402604" transform="rotate(-0, 773.089946, 349.402604)">Parent</text>
    </g>
    <g id="line2d_67">
     <path d="M 729.550102 360.580729
L 739.550102 360.580729
L 749.550102 360.580729
" style="fill: none; stroke: #e41a1c; stroke-width: 4; stroke-linecap: square"/>
    </g>
    <g id="text_63">
     <text style="font: 10px 'sans-serif'; text-anchor: start" x="757.550102" y="364.080729" transform="rotate(-0, 757.550102, 364.080729)">Delta/21J</text>
    </g>
    <g id="line2d_68">
     <path d="M 729.550102 375.258854
L 739.550102 375.258854
L 749.550102 375.258854
" style="fill: none; stroke: #377eb8; stroke-width: 4; stroke-linecap: square"/>
    </g>
    <g id="text_64">
     <text style="font: 10px 'sans-serif'; text-anchor: start" x="757.550102" y="378.758854" transform="rotate(-0, 757.550102, 378.758854)">Omicron/Ba.1/21K</text>
    </g>
    <g id="line2d_69">
     <path d="M 729.550102 389.936979
L 739.550102 389.936979
L 749.550102 389.936979
" style="fill: none; stroke: #4daf4a; stroke-width: 4; stroke-linecap: square"/>
    </g>
    <g id="text_65">
     <text style="font: 10px 'sans-serif'; text-anchor: start" x="757.550102" y="393.436979" transform="rotate(-0, 757.550102, 393.436979)">Omicron/Ba.2/21L</text>
    </g>
    <g id="line2d_70">
     <path d="M 729.550102 404.615104
L 739.550102 404.615104
L 749.550102 404.615104
" style="fill: none; stroke: #984ea3; stroke-width: 4; stroke-linecap: square"/>
    </g>
    <g id="text_66">
     <text style="font: 10px 'sans-serif'; text-anchor: start" x="757.550102" y="408.115104" transform="rotate(-0, 757.550102, 408.115104)">Omicron/Ba.5/22B</text>
    </g>
    <g id="line2d_71">
     <path d="M 729.550102 419.293229
L 739.550102 419.293229
L 749.550102 419.293229
" style="fill: none; stroke: #d3d3d3; stroke-width: 4; stroke-linecap: square"/>
    </g>
    <g id="text_67">
     <text style="font: 10px 'sans-serif'; text-anchor: start" x="757.550102" y="422.793229" transform="rotate(-0, 757.550102, 422.793229)">Breakpoint</text>
    </g>
   </g>
  </g>
  <g id="text_68">
   <text style="font: 12px 'sans-serif'; text-anchor: middle" x="432" y="46.558125" transform="rotate(-0, 432, 46.558125)">Recombination Breakpoints by Lineage</text>
  </g>
 </g>
 <defs>
  <clipPath id="pde21a9947e">
   <rect x="97.26875" y="33.225" width="617.11025" height="299.579167"/>
  </clipPath>
  <clipPath id="p1e1f4c3473">
   <rect x="97.26875" y="332.804167" width="617.11025" height="1497.895833"/>
  </clipPath>
 </defs>
</svg>
