<?xml version="1.0" encoding="utf-8" standalone="no"?>
<!DOCTYPE svg PUBLIC "-//W3C//DTD SVG 1.1//EN"
  "http://www.w3.org/Graphics/SVG/1.1/DTD/svg11.dtd">
<svg xmlns:xlink="http://www.w3.org/1999/xlink" width="864pt" height="1872pt" viewBox="0 0 864 1872" xmlns="http://www.w3.org/2000/svg" version="1.1">
 <metadata>
  <rdf:RDF xmlns:dc="http://purl.org/dc/elements/1.1/" xmlns:cc="http://creativecommons.org/ns#" xmlns:rdf="http://www.w3.org/1999/02/22-rdf-syntax-ns#">
   <cc:Work>
    <dc:type rdf:resource="http://purl.org/dc/dcmitype/StillImage"/>
    <dc:date>2022-07-08T13:50:48.134120</dc:date>
    <dc:format>image/svg+xml</dc:format>
    <dc:creator>
     <cc:Agent>
      <dc:title>Matplotlib v3.5.1, https://matplotlib.org/</dc:title>
     </cc:Agent>
    </dc:creator>
   </cc:Work>
  </rdf:RDF>
 </metadata>
 <defs>
  <style type="text/css">*{stroke-linejoin: round; stroke-linecap: butt}</style>
 </defs>
 <g id="figure_1">
  <g id="patch_1">
   <path d="M 0 1872
L 864 1872
L 864 0
L 0 0
z
" style="fill: #ffffff"/>
  </g>
  <g id="axes_1">
   <g id="patch_2">
    <path d="M 97.26875 332.804167
L 714.379 332.804167
L 714.379 33.225
L 97.26875 33.225
z
" style="fill: #ffffff"/>
   </g>
   <g id="PolyCollection_1">
    <defs>
     <path id="m2b05b50335" d="M 132.732488 -1540.529079
L 132.732488 -1539.195833
L 135.676585 -1539.195833
L 138.620682 -1539.195833
L 141.564779 -1539.195833
L 144.508876 -1539.195833
L 147.452973 -1539.195833
L 150.39707 -1539.195833
L 153.341167 -1539.195833
L 156.285263 -1539.195833
L 159.22936 -1539.195833
L 162.173457 -1539.195833
L 165.117554 -1539.195833
L 168.061651 -1539.195833
L 171.005748 -1539.195833
L 173.949845 -1539.195833
L 176.893942 -1539.195833
L 179.838039 -1539.195833
L 182.782136 -1539.195833
L 185.726233 -1539.195833
L 188.67033 -1539.195833
L 191.614426 -1539.195833
L 194.558523 -1539.195833
L 197.50262 -1539.195833
L 200.446717 -1539.195833
L 203.390814 -1539.195833
L 206.334911 -1539.195833
L 209.279008 -1539.195833
L 212.223105 -1539.195833
L 215.167202 -1539.195833
L 218.111299 -1539.195833
L 221.055396 -1539.195833
L 223.999493 -1539.195833
L 226.943589 -1539.195833
L 229.887686 -1539.195833
L 232.831783 -1539.195833
L 235.77588 -1539.195833
L 238.719977 -1539.195833
L 241.664074 -1539.195833
L 244.608171 -1539.195833
L 247.552268 -1539.195833
L 250.496365 -1539.195833
L 253.440462 -1539.195833
L 256.384559 -1539.195833
L 259.328656 -1539.195833
L 262.272752 -1539.195833
L 265.216849 -1539.195833
L 268.160946 -1539.195833
L 271.105043 -1539.195833
L 274.04914 -1539.195833
L 276.993237 -1539.195833
L 279.937334 -1539.195833
L 282.881431 -1539.195833
L 285.825528 -1539.195833
L 288.769625 -1539.195833
L 291.713722 -1539.195833
L 294.657819 -1539.195833
L 297.601915 -1539.195833
L 300.546012 -1539.195833
L 303.490109 -1539.195833
L 306.434206 -1539.195833
L 309.378303 -1539.195833
L 312.3224 -1539.195833
L 315.266497 -1539.195833
L 318.210594 -1539.195833
L 321.154691 -1539.195833
L 324.098788 -1539.195833
L 327.042885 -1539.195833
L 329.986982 -1539.195833
L 332.931078 -1539.195833
L 335.875175 -1539.195833
L 338.819272 -1539.195833
L 341.763369 -1539.195833
L 344.707466 -1539.195833
L 347.651563 -1539.195833
L 350.59566 -1539.195833
L 353.539757 -1539.195833
L 356.483854 -1539.195833
L 359.427951 -1539.195833
L 362.372048 -1539.195833
L 365.316145 -1539.195833
L 368.260241 -1539.195833
L 371.204338 -1539.195833
L 374.148435 -1539.195833
L 377.092532 -1539.195833
L 380.036629 -1539.195833
L 382.980726 -1539.195833
L 385.924823 -1539.195833
L 388.86892 -1539.195833
L 391.813017 -1539.195833
L 394.757114 -1539.195833
L 397.701211 -1539.195833
L 400.645308 -1539.195833
L 403.589404 -1539.195833
L 406.533501 -1539.195833
L 409.477598 -1539.195833
L 412.421695 -1539.195833
L 415.365792 -1539.195833
L 418.309889 -1539.195833
L 421.253986 -1539.195833
L 424.198083 -1539.195833
L 427.14218 -1539.195833
L 430.086277 -1539.195833
L 433.030374 -1539.195833
L 435.974471 -1539.195833
L 438.918567 -1539.195833
L 441.862664 -1539.195833
L 444.806761 -1539.195833
L 447.750858 -1539.195833
L 450.694955 -1539.195833
L 453.639052 -1539.195833
L 456.583149 -1539.195833
L 459.527246 -1539.195833
L 462.471343 -1539.195833
L 465.41544 -1539.195833
L 468.359537 -1539.195833
L 471.303634 -1539.195833
L 474.24773 -1539.195833
L 477.191827 -1539.195833
L 480.135924 -1539.195833
L 483.080021 -1539.195833
L 486.024118 -1539.195833
L 488.968215 -1539.195833
L 491.912312 -1539.195833
L 494.856409 -1539.195833
L 497.800506 -1539.195833
L 500.744603 -1539.195833
L 503.6887 -1539.195833
L 506.632797 -1539.195833
L 509.576893 -1539.195833
L 512.52099 -1539.195833
L 515.465087 -1539.195833
L 518.409184 -1539.195833
L 521.353281 -1539.195833
L 524.297378 -1539.195833
L 527.241475 -1539.195833
L 530.185572 -1539.195833
L 533.129669 -1539.195833
L 536.073766 -1539.195833
L 539.017863 -1539.195833
L 541.96196 -1539.195833
L 544.906056 -1539.195833
L 547.850153 -1539.195833
L 550.79425 -1539.195833
L 553.738347 -1539.195833
L 556.682444 -1539.195833
L 559.626541 -1539.195833
L 562.570638 -1539.195833
L 565.514735 -1539.195833
L 568.458832 -1539.195833
L 571.402929 -1539.195833
L 574.347026 -1539.195833
L 577.291123 -1539.195833
L 580.235219 -1539.195833
L 583.179316 -1539.195833
L 586.123413 -1539.195833
L 589.06751 -1539.195833
L 592.011607 -1539.195833
L 594.955704 -1539.195833
L 597.899801 -1539.195833
L 600.843898 -1539.195833
L 603.787995 -1539.195833
L 606.732092 -1539.195833
L 609.676189 -1539.195833
L 612.620286 -1539.195833
L 615.564382 -1539.195833
L 618.508479 -1539.195833
L 621.452576 -1539.195833
L 624.396673 -1539.195833
L 627.34077 -1539.195833
L 630.284867 -1539.195833
L 633.228964 -1539.195833
L 636.173061 -1539.195833
L 639.117158 -1539.195833
L 642.061255 -1539.195833
L 645.005352 -1539.195833
L 647.949449 -1539.195833
L 650.893545 -1539.195833
L 653.837642 -1539.195833
L 656.781739 -1539.195833
L 659.725836 -1539.195833
L 662.669933 -1539.195833
L 665.61403 -1539.195833
L 668.558127 -1539.195833
L 671.502224 -1539.195833
L 674.446321 -1539.195833
L 677.390418 -1539.195833
L 680.334515 -1539.195833
L 683.278612 -1539.195833
L 686.222708 -1539.195833
L 689.166805 -1539.195833
L 692.110902 -1539.195833
L 695.054999 -1539.195833
L 697.999096 -1539.195833
L 700.943193 -1539.195833
L 703.88729 -1539.195833
L 706.831387 -1539.195833
L 709.775484 -1539.195833
L 712.719581 -1539.195833
L 715.663678 -1539.195833
L 718.607775 -1539.195833
L 718.607775 -1539.86576
L 718.607775 -1539.86576
L 715.663678 -1540.153624
L 712.719581 -1540.53871
L 709.775484 -1541.04271
L 706.831387 -1541.68824
L 703.88729 -1542.497663
L 700.943193 -1543.491813
L 697.999096 -1544.688796
L 695.054999 -1546.103167
L 692.110902 -1547.745736
L 689.166805 -1549.624259
L 686.222708 -1551.745107
L 683.278612 -1554.115874
L 680.334515 -1556.748596
L 677.390418 -1559.663066
L 674.446321 -1562.889506
L 671.502224 -1566.469753
L 668.558127 -1570.456208
L 665.61403 -1574.907956
L 662.669933 -1579.883908
L 659.725836 -1585.433281
L 656.781739 -1591.584304
L 653.837642 -1598.332503
L 650.893545 -1605.630269
L 647.949449 -1613.379456
L 645.005352 -1621.42857
L 642.061255 -1629.575549
L 639.117158 -1637.576474
L 636.173061 -1645.159632
L 633.228964 -1652.043625
L 630.284867 -1657.957564
L 627.34077 -1662.661091
L 624.396673 -1665.961987
L 621.452576 -1667.729528
L 618.508479 -1667.902377
L 615.564382 -1666.490569
L 612.620286 -1663.571952
L 609.676189 -1659.284042
L 606.732092 -1653.812692
L 603.787995 -1647.379089
L 600.843898 -1640.226483
L 597.899801 -1632.607767
L 594.955704 -1624.774617
L 592.011607 -1616.968499
L 589.06751 -1609.413514
L 586.123413 -1602.310842
L 583.179316 -1595.834422
L 580.235219 -1590.127577
L 577.291123 -1585.300347
L 574.347026 -1581.42748
L 571.402929 -1578.547166
L 568.458832 -1576.660681
L 565.514735 -1575.733167
L 562.570638 -1575.695758
L 559.626541 -1576.44913
L 556.682444 -1577.868492
L 553.738347 -1579.809853
L 550.79425 -1582.117344
L 547.850153 -1584.63127
L 544.906056 -1587.196581
L 541.96196 -1589.671416
L 539.017863 -1591.935412
L 536.073766 -1593.897404
L 533.129669 -1595.502099
L 530.185572 -1596.73518
L 527.241475 -1597.626142
L 524.297378 -1598.248141
L 521.353281 -1598.714089
L 518.409184 -1599.168513
L 515.465087 -1599.775037
L 512.52099 -1600.699978
L 509.576893 -1602.093235
L 506.632797 -1604.068344
L 503.6887 -1606.684115
L 500.744603 -1609.930463
L 497.800506 -1613.720895
L 494.856409 -1617.89342
L 491.912312 -1622.220653
L 488.968215 -1626.428566
L 486.024118 -1630.222025
L 483.080021 -1633.314128
L 480.135924 -1635.455671
L 477.191827 -1636.460929
L 474.24773 -1636.226435
L 471.303634 -1634.740456
L 468.359537 -1632.082234
L 465.41544 -1628.411542
L 462.471343 -1623.950438
L 459.527246 -1618.960026
L 456.583149 -1613.715505
L 453.639052 -1608.482646
L 450.694955 -1603.498275
L 447.750858 -1598.956426
L 444.806761 -1595.000786
L 441.862664 -1591.723102
L 438.918567 -1589.166446
L 435.974471 -1587.331823
L 433.030374 -1586.186507
L 430.086277 -1585.672681
L 427.14218 -1585.715368
L 424.198083 -1586.229144
L 421.253986 -1587.123569
L 418.309889 -1588.307632
L 415.365792 -1589.693692
L 412.421695 -1591.201353
L 409.477598 -1592.76154
L 406.533501 -1594.320745
L 403.589404 -1595.845088
L 400.645308 -1597.323555
L 397.701211 -1598.769642
L 394.757114 -1600.220662
L 391.813017 -1601.734196
L 388.86892 -1603.381551
L 385.924823 -1605.238599
L 382.980726 -1607.374868
L 380.036629 -1609.842195
L 377.092532 -1612.664457
L 374.148435 -1615.829952
L 371.204338 -1619.287656
L 368.260241 -1622.948137
L 365.316145 -1626.689192
L 362.372048 -1630.365588
L 359.427951 -1633.821667
L 356.483854 -1636.905184
L 353.539757 -1639.480593
L 350.59566 -1641.440218
L 347.651563 -1642.712128
L 344.707466 -1643.264143
L 341.763369 -1643.10396
L 338.819272 -1642.275939
L 335.875175 -1640.855376
L 332.931078 -1638.941228
L 329.986982 -1636.648238
L 327.042885 -1634.09919
L 324.098788 -1631.417862
L 321.154691 -1628.723049
L 318.210594 -1626.123892
L 315.266497 -1623.71665
L 312.3224 -1621.58298
L 309.378303 -1619.789658
L 306.434206 -1618.389497
L 303.490109 -1617.423043
L 300.546012 -1616.920404
L 297.601915 -1616.902483
L 294.657819 -1617.380907
L 291.713722 -1618.356175
L 288.769625 -1619.813935
L 285.825528 -1621.719813
L 282.881431 -1624.013753
L 279.937334 -1626.605195
L 276.993237 -1629.370634
L 274.04914 -1632.154935
L 271.105043 -1634.777354
L 268.160946 -1637.042466
L 265.216849 -1638.755369
L 262.272752 -1639.739646
L 259.328656 -1639.855893
L 256.384559 -1639.018286
L 253.440462 -1637.206667
L 250.496365 -1634.472159
L 247.552268 -1630.93513
L 244.608171 -1626.775411
L 241.664074 -1622.21581
L 238.719977 -1617.500931
L 235.77588 -1612.873975
L 232.831783 -1608.554442
L 229.887686 -1604.719426
L 226.943589 -1601.490551
L 223.999493 -1598.927675
L 221.055396 -1597.029449
L 218.111299 -1595.739863
L 215.167202 -1594.959201
L 212.223105 -1594.557468
L 209.279008 -1594.388334
L 206.334911 -1594.302025
L 203.390814 -1594.156073
L 200.446717 -1593.82349
L 197.50262 -1593.198429
L 194.558523 -1592.199723
L 191.614426 -1590.772851
L 188.67033 -1588.890761
L 185.726233 -1586.553786
L 182.782136 -1583.788671
L 179.838039 -1580.646543
L 176.893942 -1577.199626
L 173.949845 -1573.536609
L 171.005748 -1569.756793
L 168.061651 -1565.963371
L 165.117554 -1562.256434
L 162.173457 -1558.726415
L 159.22936 -1555.448652
L 156.285263 -1552.479617
L 153.341167 -1549.855115
L 150.39707 -1547.590464
L 147.452973 -1545.682427
L 144.508876 -1544.112428
L 141.564779 -1542.850531
L 138.620682 -1541.859613
L 135.676585 -1541.099264
L 132.732488 -1540.529079
z
" style="stroke: #000000"/>
    </defs>
    <g clip-path="url(#pad7cc18fc0)">
     <use xlink:href="#m2b05b50335" x="0" y="1872" style="fill: #4daf4a; fill-opacity: 0.75; stroke: #000000"/>
    </g>
   </g>
   <g id="PolyCollection_2">
    <defs>
     <path id="m128e6d51b7" d="M 132.732488 -1541.849301
L 132.732488 -1540.529079
L 135.676585 -1541.099264
L 138.620682 -1541.859613
L 141.564779 -1542.850531
L 144.508876 -1544.112428
L 147.452973 -1545.682427
L 150.39707 -1547.590464
L 153.341167 -1549.855115
L 156.285263 -1552.479617
L 159.22936 -1555.448652
L 162.173457 -1558.726415
L 165.117554 -1562.256434
L 168.061651 -1565.963371
L 171.005748 -1569.756793
L 173.949845 -1573.536609
L 176.893942 -1577.199626
L 179.838039 -1580.646543
L 182.782136 -1583.788671
L 185.726233 -1586.553786
L 188.67033 -1588.890761
L 191.614426 -1590.772851
L 194.558523 -1592.199723
L 197.50262 -1593.198429
L 200.446717 -1593.82349
L 203.390814 -1594.156073
L 206.334911 -1594.302025
L 209.279008 -1594.388334
L 212.223105 -1594.557468
L 215.167202 -1594.959201
L 218.111299 -1595.739863
L 221.055396 -1597.029449
L 223.999493 -1598.927675
L 226.943589 -1601.490551
L 229.887686 -1604.719426
L 232.831783 -1608.554442
L 235.77588 -1612.873975
L 238.719977 -1617.500931
L 241.664074 -1622.21581
L 244.608171 -1626.775411
L 247.552268 -1630.93513
L 250.496365 -1634.472159
L 253.440462 -1637.206667
L 256.384559 -1639.018286
L 259.328656 -1639.855893
L 262.272752 -1639.739646
L 265.216849 -1638.755369
L 268.160946 -1637.042466
L 271.105043 -1634.777354
L 274.04914 -1632.154935
L 276.993237 -1629.370634
L 279.937334 -1626.605195
L 282.881431 -1624.013753
L 285.825528 -1621.719813
L 288.769625 -1619.813935
L 291.713722 -1618.356175
L 294.657819 -1617.380907
L 297.601915 -1616.902483
L 300.546012 -1616.920404
L 303.490109 -1617.423043
L 306.434206 -1618.389497
L 309.378303 -1619.789658
L 312.3224 -1621.58298
L 315.266497 -1623.71665
L 318.210594 -1626.123892
L 321.154691 -1628.723049
L 324.098788 -1631.417862
L 327.042885 -1634.09919
L 329.986982 -1636.648238
L 332.931078 -1638.941228
L 335.875175 -1640.855376
L 338.819272 -1642.275939
L 341.763369 -1643.10396
L 344.707466 -1643.264143
L 347.651563 -1642.712128
L 350.59566 -1641.440218
L 353.539757 -1639.480593
L 356.483854 -1636.905184
L 359.427951 -1633.821667
L 362.372048 -1630.365588
L 365.316145 -1626.689192
L 368.260241 -1622.948137
L 371.204338 -1619.287656
L 374.148435 -1615.829952
L 377.092532 -1612.664457
L 380.036629 -1609.842195
L 382.980726 -1607.374868
L 385.924823 -1605.238599
L 388.86892 -1603.381551
L 391.813017 -1601.734196
L 394.757114 -1600.220662
L 397.701211 -1598.769642
L 400.645308 -1597.323555
L 403.589404 -1595.845088
L 406.533501 -1594.320745
L 409.477598 -1592.76154
L 412.421695 -1591.201353
L 415.365792 -1589.693692
L 418.309889 -1588.307632
L 421.253986 -1587.123569
L 424.198083 -1586.229144
L 427.14218 -1585.715368
L 430.086277 -1585.672681
L 433.030374 -1586.186507
L 435.974471 -1587.331823
L 438.918567 -1589.166446
L 441.862664 -1591.723102
L 444.806761 -1595.000786
L 447.750858 -1598.956426
L 450.694955 -1603.498275
L 453.639052 -1608.482646
L 456.583149 -1613.715505
L 459.527246 -1618.960026
L 462.471343 -1623.950438
L 465.41544 -1628.411542
L 468.359537 -1632.082234
L 471.303634 -1634.740456
L 474.24773 -1636.226435
L 477.191827 -1636.460929
L 480.135924 -1635.455671
L 483.080021 -1633.314128
L 486.024118 -1630.222025
L 488.968215 -1626.428566
L 491.912312 -1622.220653
L 494.856409 -1617.89342
L 497.800506 -1613.720895
L 500.744603 -1609.930463
L 503.6887 -1606.684115
L 506.632797 -1604.068344
L 509.576893 -1602.093235
L 512.52099 -1600.699978
L 515.465087 -1599.775037
L 518.409184 -1599.168513
L 521.353281 -1598.714089
L 524.297378 -1598.248141
L 527.241475 -1597.626142
L 530.185572 -1596.73518
L 533.129669 -1595.502099
L 536.073766 -1593.897404
L 539.017863 -1591.935412
L 541.96196 -1589.671416
L 544.906056 -1587.196581
L 547.850153 -1584.63127
L 550.79425 -1582.117344
L 553.738347 -1579.809853
L 556.682444 -1577.868492
L 559.626541 -1576.44913
L 562.570638 -1575.695758
L 565.514735 -1575.733167
L 568.458832 -1576.660681
L 571.402929 -1578.547166
L 574.347026 -1581.42748
L 577.291123 -1585.300347
L 580.235219 -1590.127577
L 583.179316 -1595.834422
L 586.123413 -1602.310842
L 589.06751 -1609.413514
L 592.011607 -1616.968499
L 594.955704 -1624.774617
L 597.899801 -1632.607767
L 600.843898 -1640.226483
L 603.787995 -1647.379089
L 606.732092 -1653.812692
L 609.676189 -1659.284042
L 612.620286 -1663.571952
L 615.564382 -1666.490569
L 618.508479 -1667.902377
L 621.452576 -1667.729528
L 624.396673 -1665.961987
L 627.34077 -1662.661091
L 630.284867 -1657.957564
L 633.228964 -1652.043625
L 636.173061 -1645.159632
L 639.117158 -1637.576474
L 642.061255 -1629.575549
L 645.005352 -1621.42857
L 647.949449 -1613.379456
L 650.893545 -1605.630269
L 653.837642 -1598.332503
L 656.781739 -1591.584304
L 659.725836 -1585.433281
L 662.669933 -1579.883908
L 665.61403 -1574.907956
L 668.558127 -1570.456208
L 671.502224 -1566.469753
L 674.446321 -1562.889506
L 677.390418 -1559.663066
L 680.334515 -1556.748596
L 683.278612 -1554.115874
L 686.222708 -1551.745107
L 689.166805 -1549.624259
L 692.110902 -1547.745736
L 695.054999 -1546.103167
L 697.999096 -1544.688796
L 700.943193 -1543.491813
L 703.88729 -1542.497663
L 706.831387 -1541.68824
L 709.775484 -1541.04271
L 712.719581 -1540.53871
L 715.663678 -1540.153624
L 718.607775 -1539.86576
L 718.607775 -1540.52947
L 718.607775 -1540.52947
L 715.663678 -1541.10393
L 712.719581 -1541.873058
L 709.775484 -1542.880609
L 706.831387 -1544.172384
L 703.88729 -1545.793978
L 700.943193 -1547.788327
L 697.999096 -1550.19349
L 695.054999 -1553.041193
L 692.110902 -1556.356719
L 689.166805 -1560.160592
L 686.222708 -1564.472271
L 683.278612 -1569.315683
L 680.334515 -1574.725929
L 677.390418 -1580.756001
L 674.446321 -1587.481951
L 671.502224 -1595.004724
L 668.558127 -1603.447022
L 665.61403 -1612.944025
L 662.669933 -1623.627655
L 659.725836 -1635.605143
L 656.781739 -1648.933907
L 653.837642 -1663.595768
L 650.893545 -1679.474279
L 647.949449 -1696.339082
L 645.005352 -1713.840716
L 642.061255 -1731.51814
L 639.117158 -1748.819574
L 636.173061 -1765.13536
L 633.228964 -1779.839744
L 630.284867 -1792.337032
L 627.34077 -1802.106904
L 624.396673 -1808.743738
L 621.452576 -1811.985694
L 618.508479 -1811.730847
L 615.564382 -1808.039488
L 612.620286 -1801.12356
L 609.676189 -1791.325693
L 606.732092 -1779.091247
L 603.787995 -1764.937067
L 600.843898 -1749.420333
L 597.899801 -1733.110097
L 594.955704 -1716.563085
L 592.011607 -1700.304332
L 589.06751 -1684.812357
L 586.123413 -1670.508065
L 583.179316 -1657.746404
L 580.235219 -1646.809924
L 577.291123 -1637.903749
L 574.347026 -1631.151903
L 571.402929 -1626.595366
L 568.458832 -1624.19246
L 565.514735 -1623.82222
L 562.570638 -1625.291237
L 559.626541 -1628.344088
L 556.682444 -1632.677035
L 553.738347 -1637.954262
L 550.79425 -1643.825594
L 547.850153 -1649.944586
L 544.906056 -1655.985927
L 541.96196 -1661.661395
L 539.017863 -1666.733898
L 536.073766 -1671.029348
L 533.129669 -1674.446219
L 530.185572 -1676.962423
L 527.241475 -1678.63885
L 524.297378 -1679.618477
L 521.353281 -1680.119705
L 518.409184 -1680.422641
L 515.465087 -1680.847527
L 512.52099 -1681.725559
L 509.576893 -1683.363672
L 506.632797 -1686.006456
L 503.6887 -1689.799612
L 500.744603 -1694.760191
L 497.800506 -1700.758739
L 494.856409 -1707.517422
L 491.912312 -1714.626271
L 488.968215 -1721.57706
L 486.024118 -1727.811593
L 483.080021 -1732.778723
L 480.135924 -1735.992821
L 477.191827 -1737.085959
L 474.24773 -1735.846896
L 471.303634 -1732.241928
L 468.359537 -1726.415403
L 465.41544 -1718.67072
L 462.471343 -1709.435369
L 459.527246 -1699.215564
L 456.583149 -1688.546994
L 453.639052 -1677.948043
L 450.694955 -1667.880707
L 447.750858 -1658.722628
L 444.806761 -1650.751577
L 441.862664 -1644.141763
L 438.918567 -1638.969842
L 435.974471 -1635.227609
L 433.030374 -1632.838182
L 430.086277 -1631.672914
L 427.14218 -1631.567058
L 424.198083 -1632.333265
L 421.253986 -1633.772895
L 418.309889 -1635.685816
L 415.365792 -1637.879693
L 412.421695 -1640.179634
L 409.477598 -1642.43861
L 406.533501 -1644.548394
L 403.589404 -1646.449972
L 400.645308 -1648.141818
L 397.701211 -1649.684088
L 394.757114 -1651.196901
L 391.813017 -1652.851472
L 388.86892 -1654.853812
L 385.924823 -1657.421918
L 382.980726 -1660.758651
L 380.036629 -1665.023502
L 377.092532 -1670.30704
L 374.148435 -1676.611816
L 371.204338 -1683.842808
L 368.260241 -1691.809238
L 365.316145 -1700.237937
L 362.372048 -1708.796733
L 359.427951 -1717.124801
L 356.483854 -1724.865942
L 353.539757 -1731.700458
L 350.59566 -1737.371695
L 347.651563 -1741.704376
L 344.707466 -1744.613257
L 341.763369 -1746.102125
L 338.819272 -1746.25447
L 335.875175 -1745.218069
L 332.931078 -1743.186097
L 329.986982 -1740.377378
L 327.042885 -1737.017965
L 324.098788 -1733.325703
L 321.154691 -1729.498813
L 318.210594 -1725.709014
L 315.266497 -1722.09918
L 312.3224 -1718.785159
L 309.378303 -1715.860909
L 306.434206 -1713.405725
L 303.490109 -1711.491973
L 300.546012 -1710.191487
L 297.601915 -1709.578833
L 294.657819 -1709.729986
L 291.713722 -1710.715656
L 288.769625 -1712.589516
L 285.825528 -1715.372713
L 282.881431 -1719.037069
L 279.937334 -1723.490098
L 276.993237 -1728.565196
L 274.04914 -1734.019879
L 271.105043 -1739.543962
L 268.160946 -1744.77807
L 265.216849 -1749.341175
L 262.272752 -1752.864247
L 259.328656 -1755.02592
L 256.384559 -1755.585435
L 253.440462 -1754.408353
L 250.496365 -1751.481366
L 247.552268 -1746.914088
L 244.608171 -1740.927508
L 241.664074 -1733.830703
L 238.719977 -1725.988975
L 235.77588 -1717.787665
L 232.831783 -1709.596246
L 229.887686 -1701.736949
L 226.943589 -1694.461183
L 223.999493 -1687.93562
L 221.055396 -1682.238274
L 218.111299 -1677.363494
L 215.167202 -1673.233776
L 212.223105 -1669.715779
L 209.279008 -1666.637972
L 206.334911 -1663.807809
L 203.390814 -1661.02709
L 200.446717 -1658.104931
L 197.50262 -1654.868455
L 194.558523 -1651.171592
L 191.614426 -1646.902436
L 188.67033 -1641.989341
L 185.726233 -1636.405505
L 182.782136 -1630.171511
L 179.838039 -1623.355074
L 176.893942 -1616.067379
L 173.949845 -1608.455774
L 171.005748 -1600.693117
L 168.061651 -1592.964683
L 165.117554 -1585.453995
L 162.173457 -1578.329201
L 159.22936 -1571.731534
L 156.285263 -1565.767074
L 153.341167 -1560.502518
L 150.39707 -1555.965018
L 147.452973 -1552.145625
L 144.508876 -1549.005436
L 141.564779 -1546.483332
L 138.620682 -1544.504189
L 135.676585 -1542.986582
L 132.732488 -1541.849301
z
" style="stroke: #000000"/>
    </defs>
    <g clip-path="url(#pad7cc18fc0)">
     <use xlink:href="#m128e6d51b7" x="0" y="1872" style="fill: #377eb8; fill-opacity: 0.75; stroke: #000000"/>
    </g>
   </g>
   <g id="PolyCollection_3">
    <defs>
     <path id="m0d26f6fd81" d="M 132.732488 -1541.884622
L 132.732488 -1541.849301
L 135.676585 -1542.986582
L 138.620682 -1544.504189
L 141.564779 -1546.483332
L 144.508876 -1549.005436
L 147.452973 -1552.145625
L 150.39707 -1555.965018
L 153.341167 -1560.502518
L 156.285263 -1565.767074
L 159.22936 -1571.731534
L 162.173457 -1578.329201
L 165.117554 -1585.453995
L 168.061651 -1592.964683
L 171.005748 -1600.693117
L 173.949845 -1608.455774
L 176.893942 -1616.067379
L 179.838039 -1623.355074
L 182.782136 -1630.171511
L 185.726233 -1636.405505
L 188.67033 -1641.989341
L 191.614426 -1646.902436
L 194.558523 -1651.171592
L 197.50262 -1654.868455
L 200.446717 -1658.104931
L 203.390814 -1661.02709
L 206.334911 -1663.807809
L 209.279008 -1666.637972
L 212.223105 -1669.715779
L 215.167202 -1673.233776
L 218.111299 -1677.363494
L 221.055396 -1682.238274
L 223.999493 -1687.93562
L 226.943589 -1694.461183
L 229.887686 -1701.736949
L 232.831783 -1709.596246
L 235.77588 -1717.787665
L 238.719977 -1725.988975
L 241.664074 -1733.830703
L 244.608171 -1740.927508
L 247.552268 -1746.914088
L 250.496365 -1751.481366
L 253.440462 -1754.408353
L 256.384559 -1755.585435
L 259.328656 -1755.02592
L 262.272752 -1752.864247
L 265.216849 -1749.341175
L 268.160946 -1744.77807
L 271.105043 -1739.543962
L 274.04914 -1734.019879
L 276.993237 -1728.565196
L 279.937334 -1723.490098
L 282.881431 -1719.037069
L 285.825528 -1715.372713
L 288.769625 -1712.589516
L 291.713722 -1710.715656
L 294.657819 -1709.729986
L 297.601915 -1709.578833
L 300.546012 -1710.191487
L 303.490109 -1711.491973
L 306.434206 -1713.405725
L 309.378303 -1715.860909
L 312.3224 -1718.785159
L 315.266497 -1722.09918
L 318.210594 -1725.709014
L 321.154691 -1729.498813
L 324.098788 -1733.325703
L 327.042885 -1737.017965
L 329.986982 -1740.377378
L 332.931078 -1743.186097
L 335.875175 -1745.218069
L 338.819272 -1746.25447
L 341.763369 -1746.102125
L 344.707466 -1744.613257
L 347.651563 -1741.704376
L 350.59566 -1737.371695
L 353.539757 -1731.700458
L 356.483854 -1724.865942
L 359.427951 -1717.124801
L 362.372048 -1708.796733
L 365.316145 -1700.237937
L 368.260241 -1691.809238
L 371.204338 -1683.842808
L 374.148435 -1676.611816
L 377.092532 -1670.30704
L 380.036629 -1665.023502
L 382.980726 -1660.758651
L 385.924823 -1657.421918
L 388.86892 -1654.853812
L 391.813017 -1652.851472
L 394.757114 -1651.196901
L 397.701211 -1649.684088
L 400.645308 -1648.141818
L 403.589404 -1646.449972
L 406.533501 -1644.548394
L 409.477598 -1642.43861
L 412.421695 -1640.179634
L 415.365792 -1637.879693
L 418.309889 -1635.685816
L 421.253986 -1633.772895
L 424.198083 -1632.333265
L 427.14218 -1631.567058
L 430.086277 -1631.672914
L 433.030374 -1632.838182
L 435.974471 -1635.227609
L 438.918567 -1638.969842
L 441.862664 -1644.141763
L 444.806761 -1650.751577
L 447.750858 -1658.722628
L 450.694955 -1667.880707
L 453.639052 -1677.948043
L 456.583149 -1688.546994
L 459.527246 -1699.215564
L 462.471343 -1709.435369
L 465.41544 -1718.67072
L 468.359537 -1726.415403
L 471.303634 -1732.241928
L 474.24773 -1735.846896
L 477.191827 -1737.085959
L 480.135924 -1735.992821
L 483.080021 -1732.778723
L 486.024118 -1727.811593
L 488.968215 -1721.57706
L 491.912312 -1714.626271
L 494.856409 -1707.517422
L 497.800506 -1700.758739
L 500.744603 -1694.760191
L 503.6887 -1689.799612
L 506.632797 -1686.006456
L 509.576893 -1683.363672
L 512.52099 -1681.725559
L 515.465087 -1680.847527
L 518.409184 -1680.422641
L 521.353281 -1680.119705
L 524.297378 -1679.618477
L 527.241475 -1678.63885
L 530.185572 -1676.962423
L 533.129669 -1674.446219
L 536.073766 -1671.029348
L 539.017863 -1666.733898
L 541.96196 -1661.661395
L 544.906056 -1655.985927
L 547.850153 -1649.944586
L 550.79425 -1643.825594
L 553.738347 -1637.954262
L 556.682444 -1632.677035
L 559.626541 -1628.344088
L 562.570638 -1625.291237
L 565.514735 -1623.82222
L 568.458832 -1624.19246
L 571.402929 -1626.595366
L 574.347026 -1631.151903
L 577.291123 -1637.903749
L 580.235219 -1646.809924
L 583.179316 -1657.746404
L 586.123413 -1670.508065
L 589.06751 -1684.812357
L 592.011607 -1700.304332
L 594.955704 -1716.563085
L 597.899801 -1733.110097
L 600.843898 -1749.420333
L 603.787995 -1764.937067
L 606.732092 -1779.091247
L 609.676189 -1791.325693
L 612.620286 -1801.12356
L 615.564382 -1808.039488
L 618.508479 -1811.730847
L 621.452576 -1811.985694
L 624.396673 -1808.743738
L 627.34077 -1802.106904
L 630.284867 -1792.337032
L 633.228964 -1779.839744
L 636.173061 -1765.13536
L 639.117158 -1748.819574
L 642.061255 -1731.51814
L 645.005352 -1713.840716
L 647.949449 -1696.339082
L 650.893545 -1679.474279
L 653.837642 -1663.595768
L 656.781739 -1648.933907
L 659.725836 -1635.605143
L 662.669933 -1623.627655
L 665.61403 -1612.944025
L 668.558127 -1603.447022
L 671.502224 -1595.004724
L 674.446321 -1587.481951
L 677.390418 -1580.756001
L 680.334515 -1574.725929
L 683.278612 -1569.315683
L 686.222708 -1564.472271
L 689.166805 -1560.160592
L 692.110902 -1556.356719
L 695.054999 -1553.041193
L 697.999096 -1550.19349
L 700.943193 -1547.788327
L 703.88729 -1545.793978
L 706.831387 -1544.172384
L 709.775484 -1542.880609
L 712.719581 -1541.873058
L 715.663678 -1541.10393
L 718.607775 -1540.52947
L 718.607775 -1540.568991
L 718.607775 -1540.568991
L 715.663678 -1541.160329
L 712.719581 -1541.952625
L 709.775484 -1542.991583
L 706.831387 -1544.3254
L 703.88729 -1546.002561
L 700.943193 -1548.069422
L 697.999096 -1550.56799
L 695.054999 -1553.534456
L 692.110902 -1556.999014
L 689.166805 -1560.987427
L 686.222708 -1565.524554
L 683.278612 -1570.639646
L 680.334515 -1576.372766
L 677.390418 -1582.781156
L 674.446321 -1589.944025
L 671.502224 -1597.963974
L 668.558127 -1606.963472
L 665.61403 -1617.075212
L 662.669933 -1628.426098
L 659.725836 -1641.115645
L 656.781739 -1655.190841
L 653.837642 -1670.620513
L 650.893545 -1687.27302
L 647.949449 -1704.901158
L 645.005352 -1723.137723
L 642.061255 -1741.503948
L 639.117158 -1759.431388
L 636.173061 -1776.295902
L 633.228964 -1791.460548
L 630.284867 -1804.322798
L 627.34077 -1814.360775
L 624.396673 -1821.17328
L 621.452576 -1824.509325
L 618.508479 -1824.284409
L 615.564382 -1820.582609
L 612.620286 -1813.645472
L 609.676189 -1803.850155
L 606.732092 -1791.680253
L 603.787995 -1777.693071
L 600.843898 -1762.486749
L 597.899801 -1746.669919
L 594.955704 -1730.83554
L 592.011607 -1715.53955
L 589.06751 -1701.284133
L 586.123413 -1688.5049
L 583.179316 -1677.561073
L 580.235219 -1668.72793
L 577.291123 -1662.191099
L 574.347026 -1658.042732
L 571.402929 -1656.279959
L 568.458832 -1656.806265
L 565.514735 -1659.43645
L 562.570638 -1663.905592
L 559.626541 -1669.882066
L 556.682444 -1676.984187
L 553.738347 -1684.799578
L 550.79425 -1692.906065
L 547.850153 -1700.892778
L 544.906056 -1708.38026
L 541.96196 -1715.038632
L 539.017863 -1720.603236
L 536.073766 -1724.887422
L 533.129669 -1727.792272
L 530.185572 -1729.312935
L 527.241475 -1729.540949
L 524.297378 -1728.661578
L 521.353281 -1726.944947
L 518.409184 -1724.729833
L 515.465087 -1722.399497
L 512.52099 -1720.349913
L 509.576893 -1718.952141
L 506.632797 -1718.512085
L 503.6887 -1719.232156
L 500.744603 -1721.180102
L 497.800506 -1724.270163
L 494.856409 -1728.260625
L 491.912312 -1732.769853
L 488.968215 -1737.310317
L 486.024118 -1741.337284
L 483.080021 -1744.30648
L 480.135924 -1745.733348
L 477.191827 -1745.246129
L 474.24773 -1742.625798
L 471.303634 -1737.827865
L 468.359537 -1730.983815
L 465.41544 -1722.382962
L 462.471343 -1712.438265
L 459.527246 -1701.64164
L 456.583149 -1690.515272
L 453.639052 -1679.565284
L 450.694955 -1669.242982
L 447.750858 -1659.917096
L 444.806761 -1651.858355
L 441.862664 -1645.235778
L 438.918567 -1640.122547
L 435.974471 -1636.508471
L 433.030374 -1634.315843
L 430.086277 -1633.415948
L 427.14218 -1633.644263
L 424.198083 -1634.813436
L 421.253986 -1636.724071
L 418.309889 -1639.174012
L 415.365792 -1641.967157
L 412.421695 -1644.922721
L 409.477598 -1647.885389
L 406.533501 -1650.736144
L 403.589404 -1653.40275
L 400.645308 -1655.868293
L 397.701211 -1658.175838
L 394.757114 -1660.427373
L 391.813017 -1662.775758
L 388.86892 -1665.409345
L 385.924823 -1668.53016
L 382.980726 -1672.327749
L 380.036629 -1676.951826
L 377.092532 -1682.487446
L 374.148435 -1688.936407
L 371.204338 -1696.20792
L 368.260241 -1704.120344
L 365.316145 -1712.414149
L 362.372048 -1720.774609
L 359.427951 -1728.861177
L 356.483854 -1736.339599
L 353.539757 -1742.912485
L 350.59566 -1748.3445
L 347.651563 -1752.47941
L 344.707466 -1755.247567
L 341.763369 -1756.663971
L 338.819272 -1756.818294
L 335.875175 -1755.859138
L 332.931078 -1753.975198
L 329.986982 -1751.375921
L 327.042885 -1748.273836
L 324.098788 -1744.870163
L 321.154691 -1741.344677
L 318.210594 -1737.850241
L 315.266497 -1734.511944
L 312.3224 -1731.430332
L 309.378303 -1728.687822
L 306.434206 -1726.356962
L 303.490109 -1724.508884
L 300.546012 -1723.220049
L 297.601915 -1722.575453
L 294.657819 -1722.666829
L 291.713722 -1723.585104
L 288.769625 -1725.407415
L 285.825528 -1728.180113
L 282.881431 -1731.900268
L 279.937334 -1736.498908
L 276.993237 -1741.829435
L 274.04914 -1747.664228
L 271.105043 -1753.701438
L 268.160946 -1759.582449
L 265.216849 -1764.918783
L 262.272752 -1769.325616
L 259.328656 -1772.457796
L 256.384559 -1774.043669
L 253.440462 -1773.912121
L 250.496365 -1772.00914
L 247.552268 -1768.401647
L 244.608171 -1763.268167
L 241.664074 -1756.877801
L 238.719977 -1749.560511
L 235.77588 -1741.672824
L 232.831783 -1733.563445
L 229.887686 -1725.542918
L 226.943589 -1717.860542
L 223.999493 -1710.69039
L 221.055396 -1704.126771
L 218.111299 -1698.188121
L 215.167202 -1692.827321
L 212.223105 -1687.945943
L 209.279008 -1683.409983
L 206.334911 -1679.065125
L 203.390814 -1674.75029
L 200.446717 -1670.309049
L 197.50262 -1665.599033
L 194.558523 -1660.499828
L 191.614426 -1654.919791
L 188.67033 -1648.801965
L 185.726233 -1642.12881
L 182.782136 -1634.925154
L 179.838039 -1627.258555
L 176.893942 -1619.236378
L 173.949845 -1610.999299
L 171.005748 -1602.711452
L 168.061651 -1594.548091
L 165.117554 -1586.682098
L 162.173457 -1579.270915
L 159.22936 -1572.445446
L 156.285263 -1566.302146
L 153.341167 -1560.898998
L 150.39707 -1556.255468
L 147.452973 -1552.355985
L 144.508876 -1549.15606
L 141.564779 -1546.58996
L 138.620682 -1544.578814
L 135.676585 -1543.038217
L 132.732488 -1541.884622
z
" style="stroke: #000000"/>
    </defs>
    <g clip-path="url(#pad7cc18fc0)">
     <use xlink:href="#m0d26f6fd81" x="0" y="1872" style="fill: #e41a1c; fill-opacity: 0.75; stroke: #000000"/>
    </g>
   </g>
   <g id="matplotlib.axis_1">
    <g id="xtick_1">
     <g id="line2d_1">
      <defs>
       <path id="me3412f41de" d="M 0 0
L 0 3.5
" style="stroke: #000000; stroke-width: 0.8"/>
      </defs>
      <g>
       <use xlink:href="#me3412f41de" x="116.61208" y="332.804167" style="stroke: #000000; stroke-width: 0.8"/>
      </g>
     </g>
    </g>
    <g id="xtick_2">
     <g id="line2d_2">
      <g>
       <use xlink:href="#me3412f41de" x="213.328729" y="332.804167" style="stroke: #000000; stroke-width: 0.8"/>
      </g>
     </g>
    </g>
    <g id="xtick_3">
     <g id="line2d_3">
      <g>
       <use xlink:href="#me3412f41de" x="310.045378" y="332.804167" style="stroke: #000000; stroke-width: 0.8"/>
      </g>
     </g>
    </g>
    <g id="xtick_4">
     <g id="line2d_4">
      <g>
       <use xlink:href="#me3412f41de" x="406.762026" y="332.804167" style="stroke: #000000; stroke-width: 0.8"/>
      </g>
     </g>
    </g>
    <g id="xtick_5">
     <g id="line2d_5">
      <g>
       <use xlink:href="#me3412f41de" x="503.478675" y="332.804167" style="stroke: #000000; stroke-width: 0.8"/>
      </g>
     </g>
    </g>
    <g id="xtick_6">
     <g id="line2d_6">
      <g>
       <use xlink:href="#me3412f41de" x="600.195324" y="332.804167" style="stroke: #000000; stroke-width: 0.8"/>
      </g>
     </g>
    </g>
    <g id="xtick_7">
     <g id="line2d_7">
      <g>
       <use xlink:href="#me3412f41de" x="696.911973" y="332.804167" style="stroke: #000000; stroke-width: 0.8"/>
      </g>
     </g>
    </g>
   </g>
   <g id="matplotlib.axis_2"/>
  </g>
  <g id="axes_2">
   <g id="patch_3">
    <path d="M 97.26875 1830.7
L 714.379 1830.7
L 714.379 332.804167
L 97.26875 332.804167
z
" style="fill: #ffffff"/>
   </g>
   <g id="patch_4">
    <path d="M 116.61208 361.335516
L 220.795254 361.335516
L 220.795254 347.069841
L 116.61208 347.069841
z
" clip-path="url(#pcea0b1a9b2)" style="fill: #e41a1c"/>
   </g>
   <g id="patch_5">
    <path d="M 240.448077 361.335516
L 695.03567 361.335516
L 695.03567 347.069841
L 240.448077 347.069841
z
" clip-path="url(#pcea0b1a9b2)" style="fill: #377eb8"/>
   </g>
   <g id="patch_6">
    <path d="M 220.814597 361.335516
L 240.428734 361.335516
L 240.428734 347.069841
L 220.814597 347.069841
z
" clip-path="url(#pcea0b1a9b2)" style="fill: #d3d3d3"/>
   </g>
   <g id="patch_7">
    <path d="M 116.61208 389.866865
L 224.625233 389.866865
L 224.625233 375.60119
L 116.61208 375.60119
z
" clip-path="url(#pcea0b1a9b2)" style="fill: #e41a1c"/>
   </g>
   <g id="patch_8">
    <path d="M 242.575843 389.866865
L 695.03567 389.866865
L 695.03567 375.60119
L 242.575843 375.60119
z
" clip-path="url(#pcea0b1a9b2)" style="fill: #377eb8"/>
   </g>
   <g id="patch_9">
    <path d="M 224.644577 389.866865
L 242.5565 389.866865
L 242.5565 375.60119
L 224.644577 375.60119
z
" clip-path="url(#pcea0b1a9b2)" style="fill: #d3d3d3"/>
   </g>
   <g id="patch_10">
    <path d="M 116.61208 418.398214
L 291.727244 418.398214
L 291.727244 404.13254
L 116.61208 404.13254
z
" clip-path="url(#pcea0b1a9b2)" style="fill: #e41a1c"/>
   </g>
   <g id="patch_11">
    <path d="M 318.730533 418.398214
L 695.03567 418.398214
L 695.03567 404.13254
L 318.730533 404.13254
z
" clip-path="url(#pcea0b1a9b2)" style="fill: #377eb8"/>
   </g>
   <g id="patch_12">
    <path d="M 291.746588 418.398214
L 318.711189 418.398214
L 318.711189 404.13254
L 291.746588 404.13254
z
" clip-path="url(#pcea0b1a9b2)" style="fill: #d3d3d3"/>
   </g>
   <g id="patch_13">
    <path d="M 116.61208 446.929563
L 334.785496 446.929563
L 334.785496 432.663889
L 116.61208 432.663889
z
" clip-path="url(#pcea0b1a9b2)" style="fill: #e41a1c"/>
   </g>
   <g id="patch_14">
    <path d="M 415.505212 446.929563
L 695.03567 446.929563
L 695.03567 432.663889
L 415.505212 432.663889
z
" clip-path="url(#pcea0b1a9b2)" style="fill: #4daf4a"/>
   </g>
   <g id="patch_15">
    <path d="M 334.80484 446.929563
L 415.485868 446.929563
L 415.485868 432.663889
L 334.80484 432.663889
z
" clip-path="url(#pcea0b1a9b2)" style="fill: #d3d3d3"/>
   </g>
   <g id="patch_16">
    <path d="M 116.61208 475.460913
L 488.390878 475.460913
L 488.390878 461.195238
L 116.61208 461.195238
z
" clip-path="url(#pcea0b1a9b2)" style="fill: #e41a1c"/>
   </g>
   <g id="patch_17">
    <path d="M 539.186462 475.460913
L 695.03567 475.460913
L 695.03567 461.195238
L 539.186462 461.195238
z
" clip-path="url(#pcea0b1a9b2)" style="fill: #377eb8"/>
   </g>
   <g id="patch_18">
    <path d="M 488.410221 475.460913
L 539.167119 475.460913
L 539.167119 461.195238
L 488.410221 461.195238
z
" clip-path="url(#pcea0b1a9b2)" style="fill: #d3d3d3"/>
   </g>
   <g id="patch_19">
    <path d="M 116.61208 503.992262
L 534.776183 503.992262
L 534.776183 489.726587
L 116.61208 489.726587
z
" clip-path="url(#pcea0b1a9b2)" style="fill: #e41a1c"/>
   </g>
   <g id="patch_20">
    <path d="M 537.561622 503.992262
L 695.03567 503.992262
L 695.03567 489.726587
L 537.561622 489.726587
z
" clip-path="url(#pcea0b1a9b2)" style="fill: #377eb8"/>
   </g>
   <g id="patch_21">
    <path d="M 534.795526 503.992262
L 537.542279 503.992262
L 537.542279 489.726587
L 534.795526 489.726587
z
" clip-path="url(#pcea0b1a9b2)" style="fill: #d3d3d3"/>
   </g>
   <g id="patch_22">
    <path d="M 116.61208 532.523611
L 534.776183 532.523611
L 534.776183 518.257937
L 116.61208 518.257937
z
" clip-path="url(#pcea0b1a9b2)" style="fill: #e41a1c"/>
   </g>
   <g id="patch_23">
    <path d="M 537.561622 532.523611
L 695.03567 532.523611
L 695.03567 518.257937
L 537.561622 518.257937
z
" clip-path="url(#pcea0b1a9b2)" style="fill: #4daf4a"/>
   </g>
   <g id="patch_24">
    <path d="M 534.795526 532.523611
L 537.542279 532.523611
L 537.542279 518.257937
L 534.795526 518.257937
z
" clip-path="url(#pcea0b1a9b2)" style="fill: #d3d3d3"/>
   </g>
   <g id="patch_25">
    <path d="M 116.61208 561.05496
L 541.913872 561.05496
L 541.913872 546.789286
L 116.61208 546.789286
z
" clip-path="url(#pcea0b1a9b2)" style="fill: #e41a1c"/>
   </g>
   <g id="patch_26">
    <path d="M 553.34578 561.05496
L 695.03567 561.05496
L 695.03567 546.789286
L 553.34578 546.789286
z
" clip-path="url(#pcea0b1a9b2)" style="fill: #377eb8"/>
   </g>
   <g id="patch_27">
    <path d="M 541.933215 561.05496
L 553.326436 561.05496
L 553.326436 546.789286
L 541.933215 546.789286
z
" clip-path="url(#pcea0b1a9b2)" style="fill: #d3d3d3"/>
   </g>
   <g id="patch_28">
    <path d="M 116.61208 589.58631
L 541.913872 589.58631
L 541.913872 575.320635
L 116.61208 575.320635
z
" clip-path="url(#pcea0b1a9b2)" style="fill: #e41a1c"/>
   </g>
   <g id="patch_29">
    <path d="M 651.223028 589.58631
L 695.03567 589.58631
L 695.03567 575.320635
L 651.223028 575.320635
z
" clip-path="url(#pcea0b1a9b2)" style="fill: #e41a1c"/>
   </g>
   <g id="patch_30">
    <path d="M 553.34578 589.58631
L 600.195324 589.58631
L 600.195324 575.320635
L 553.34578 575.320635
z
" clip-path="url(#pcea0b1a9b2)" style="fill: #377eb8"/>
   </g>
   <g id="patch_31">
    <path d="M 541.933215 589.58631
L 553.326436 589.58631
L 553.326436 575.320635
L 541.933215 575.320635
z
" clip-path="url(#pcea0b1a9b2)" style="fill: #d3d3d3"/>
   </g>
   <g id="patch_32">
    <path d="M 600.214668 589.58631
L 651.203685 589.58631
L 651.203685 575.320635
L 600.214668 575.320635
z
" clip-path="url(#pcea0b1a9b2)" style="fill: #d3d3d3"/>
   </g>
   <g id="patch_33">
    <path d="M 116.61208 618.117659
L 171.411733 618.117659
L 171.411733 603.851984
L 116.61208 603.851984
z
" clip-path="url(#pcea0b1a9b2)" style="fill: #377eb8"/>
   </g>
   <g id="patch_34">
    <path d="M 197.544572 618.117659
L 695.03567 618.117659
L 695.03567 603.851984
L 197.544572 603.851984
z
" clip-path="url(#pcea0b1a9b2)" style="fill: #4daf4a"/>
   </g>
   <g id="patch_35">
    <path d="M 171.431076 618.117659
L 197.525228 618.117659
L 197.525228 603.851984
L 171.431076 603.851984
z
" clip-path="url(#pcea0b1a9b2)" style="fill: #d3d3d3"/>
   </g>
   <g id="patch_36">
    <path d="M 116.61208 646.649008
L 171.411733 646.649008
L 171.411733 632.383333
L 116.61208 632.383333
z
" clip-path="url(#pcea0b1a9b2)" style="fill: #377eb8"/>
   </g>
   <g id="patch_37">
    <path d="M 197.544572 646.649008
L 695.03567 646.649008
L 695.03567 632.383333
L 197.544572 632.383333
z
" clip-path="url(#pcea0b1a9b2)" style="fill: #4daf4a"/>
   </g>
   <g id="patch_38">
    <path d="M 171.431076 646.649008
L 197.525228 646.649008
L 197.525228 632.383333
L 171.431076 632.383333
z
" clip-path="url(#pcea0b1a9b2)" style="fill: #d3d3d3"/>
   </g>
   <g id="patch_39">
    <path d="M 116.61208 675.180357
L 200.194608 675.180357
L 200.194608 660.914683
L 116.61208 660.914683
z
" clip-path="url(#pcea0b1a9b2)" style="fill: #377eb8"/>
   </g>
   <g id="patch_40">
    <path d="M 220.795254 675.180357
L 695.03567 675.180357
L 695.03567 660.914683
L 220.795254 660.914683
z
" clip-path="url(#pcea0b1a9b2)" style="fill: #4daf4a"/>
   </g>
   <g id="patch_41">
    <path d="M 200.213951 675.180357
L 220.775911 675.180357
L 220.775911 660.914683
L 200.213951 660.914683
z
" clip-path="url(#pcea0b1a9b2)" style="fill: #d3d3d3"/>
   </g>
   <g id="patch_42">
    <path d="M 116.61208 703.711706
L 200.194608 703.711706
L 200.194608 689.446032
L 116.61208 689.446032
z
" clip-path="url(#pcea0b1a9b2)" style="fill: #377eb8"/>
   </g>
   <g id="patch_43">
    <path d="M 220.795254 703.711706
L 695.03567 703.711706
L 695.03567 689.446032
L 220.795254 689.446032
z
" clip-path="url(#pcea0b1a9b2)" style="fill: #4daf4a"/>
   </g>
   <g id="patch_44">
    <path d="M 200.213951 703.711706
L 220.775911 703.711706
L 220.775911 689.446032
L 200.213951 689.446032
z
" clip-path="url(#pcea0b1a9b2)" style="fill: #d3d3d3"/>
   </g>
   <g id="patch_45">
    <path d="M 116.61208 732.243056
L 220.795254 732.243056
L 220.795254 717.977381
L 116.61208 717.977381
z
" clip-path="url(#pcea0b1a9b2)" style="fill: #377eb8"/>
   </g>
   <g id="patch_46">
    <path d="M 278.767213 732.243056
L 695.03567 732.243056
L 695.03567 717.977381
L 278.767213 717.977381
z
" clip-path="url(#pcea0b1a9b2)" style="fill: #4daf4a"/>
   </g>
   <g id="patch_47">
    <path d="M 220.814597 732.243056
L 278.74787 732.243056
L 278.74787 717.977381
L 220.814597 717.977381
z
" clip-path="url(#pcea0b1a9b2)" style="fill: #d3d3d3"/>
   </g>
   <g id="patch_48">
    <path d="M 116.61208 760.774405
L 220.795254 760.774405
L 220.795254 746.50873
L 116.61208 746.50873
z
" clip-path="url(#pcea0b1a9b2)" style="fill: #377eb8"/>
   </g>
   <g id="patch_49">
    <path d="M 278.960647 760.774405
L 695.03567 760.774405
L 695.03567 746.50873
L 278.960647 746.50873
z
" clip-path="url(#pcea0b1a9b2)" style="fill: #4daf4a"/>
   </g>
   <g id="patch_50">
    <path d="M 220.814597 760.774405
L 278.941303 760.774405
L 278.941303 746.50873
L 220.814597 746.50873
z
" clip-path="url(#pcea0b1a9b2)" style="fill: #d3d3d3"/>
   </g>
   <g id="patch_51">
    <path d="M 116.61208 789.305754
L 220.795254 789.305754
L 220.795254 775.040079
L 116.61208 775.040079
z
" clip-path="url(#pcea0b1a9b2)" style="fill: #377eb8"/>
   </g>
   <g id="patch_52">
    <path d="M 278.960647 789.305754
L 695.03567 789.305754
L 695.03567 775.040079
L 278.960647 775.040079
z
" clip-path="url(#pcea0b1a9b2)" style="fill: #4daf4a"/>
   </g>
   <g id="patch_53">
    <path d="M 220.814597 789.305754
L 278.941303 789.305754
L 278.941303 775.040079
L 220.814597 775.040079
z
" clip-path="url(#pcea0b1a9b2)" style="fill: #d3d3d3"/>
   </g>
   <g id="patch_54">
    <path d="M 116.61208 817.837103
L 242.633873 817.837103
L 242.633873 803.571429
L 116.61208 803.571429
z
" clip-path="url(#pcea0b1a9b2)" style="fill: #377eb8"/>
   </g>
   <g id="patch_55">
    <path d="M 278.960647 817.837103
L 695.03567 817.837103
L 695.03567 803.571429
L 278.960647 803.571429
z
" clip-path="url(#pcea0b1a9b2)" style="fill: #4daf4a"/>
   </g>
   <g id="patch_56">
    <path d="M 242.653217 817.837103
L 278.941303 817.837103
L 278.941303 803.571429
L 242.653217 803.571429
z
" clip-path="url(#pcea0b1a9b2)" style="fill: #d3d3d3"/>
   </g>
   <g id="patch_57">
    <path d="M 116.61208 846.368452
L 242.67256 846.368452
L 242.67256 832.102778
L 116.61208 832.102778
z
" clip-path="url(#pcea0b1a9b2)" style="fill: #377eb8"/>
   </g>
   <g id="patch_58">
    <path d="M 297.356153 846.368452
L 695.03567 846.368452
L 695.03567 832.102778
L 297.356153 832.102778
z
" clip-path="url(#pcea0b1a9b2)" style="fill: #4daf4a"/>
   </g>
   <g id="patch_59">
    <path d="M 242.691903 846.368452
L 297.33681 846.368452
L 297.33681 832.102778
L 242.691903 832.102778
z
" clip-path="url(#pcea0b1a9b2)" style="fill: #d3d3d3"/>
   </g>
   <g id="patch_60">
    <path d="M 116.61208 874.899802
L 278.941303 874.899802
L 278.941303 860.634127
L 116.61208 860.634127
z
" clip-path="url(#pcea0b1a9b2)" style="fill: #377eb8"/>
   </g>
   <g id="patch_61">
    <path d="M 297.356153 874.899802
L 695.03567 874.899802
L 695.03567 860.634127
L 297.356153 860.634127
z
" clip-path="url(#pcea0b1a9b2)" style="fill: #4daf4a"/>
   </g>
   <g id="patch_62">
    <path d="M 278.960647 874.899802
L 297.33681 874.899802
L 297.33681 860.634127
L 278.960647 860.634127
z
" clip-path="url(#pcea0b1a9b2)" style="fill: #d3d3d3"/>
   </g>
   <g id="patch_63">
    <path d="M 116.61208 903.431151
L 294.72546 903.431151
L 294.72546 889.165476
L 116.61208 889.165476
z
" clip-path="url(#pcea0b1a9b2)" style="fill: #377eb8"/>
   </g>
   <g id="patch_64">
    <path d="M 297.356153 903.431151
L 695.03567 903.431151
L 695.03567 889.165476
L 297.356153 889.165476
z
" clip-path="url(#pcea0b1a9b2)" style="fill: #4daf4a"/>
   </g>
   <g id="patch_65">
    <path d="M 294.744804 903.431151
L 297.33681 903.431151
L 297.33681 889.165476
L 294.744804 889.165476
z
" clip-path="url(#pcea0b1a9b2)" style="fill: #d3d3d3"/>
   </g>
   <g id="patch_66">
    <path d="M 116.61208 931.9625
L 301.012043 931.9625
L 301.012043 917.696825
L 116.61208 917.696825
z
" clip-path="url(#pcea0b1a9b2)" style="fill: #377eb8"/>
   </g>
   <g id="patch_67">
    <path d="M 310.606334 931.9625
L 695.03567 931.9625
L 695.03567 917.696825
L 310.606334 917.696825
z
" clip-path="url(#pcea0b1a9b2)" style="fill: #4daf4a"/>
   </g>
   <g id="patch_68">
    <path d="M 301.031386 931.9625
L 310.586991 931.9625
L 310.586991 917.696825
L 301.031386 917.696825
z
" clip-path="url(#pcea0b1a9b2)" style="fill: #d3d3d3"/>
   </g>
   <g id="patch_69">
    <path d="M 116.61208 960.493849
L 318.691846 960.493849
L 318.691846 946.228175
L 116.61208 946.228175
z
" clip-path="url(#pcea0b1a9b2)" style="fill: #377eb8"/>
   </g>
   <g id="patch_70">
    <path d="M 339.776075 960.493849
L 695.03567 960.493849
L 695.03567 946.228175
L 339.776075 946.228175
z
" clip-path="url(#pcea0b1a9b2)" style="fill: #4daf4a"/>
   </g>
   <g id="patch_71">
    <path d="M 318.711189 960.493849
L 339.756732 960.493849
L 339.756732 946.228175
L 318.711189 946.228175
z
" clip-path="url(#pcea0b1a9b2)" style="fill: #d3d3d3"/>
   </g>
   <g id="patch_72">
    <path d="M 116.61208 989.025198
L 318.691846 989.025198
L 318.691846 974.759524
L 116.61208 974.759524
z
" clip-path="url(#pcea0b1a9b2)" style="fill: #377eb8"/>
   </g>
   <g id="patch_73">
    <path d="M 339.776075 989.025198
L 695.03567 989.025198
L 695.03567 974.759524
L 339.776075 974.759524
z
" clip-path="url(#pcea0b1a9b2)" style="fill: #4daf4a"/>
   </g>
   <g id="patch_74">
    <path d="M 318.711189 989.025198
L 339.756732 989.025198
L 339.756732 974.759524
L 318.711189 974.759524
z
" clip-path="url(#pcea0b1a9b2)" style="fill: #d3d3d3"/>
   </g>
   <g id="patch_75">
    <path d="M 116.61208 1017.556548
L 318.691846 1017.556548
L 318.691846 1003.290873
L 116.61208 1003.290873
z
" clip-path="url(#pcea0b1a9b2)" style="fill: #377eb8"/>
   </g>
   <g id="patch_76">
    <path d="M 334.959586 1017.556548
L 695.03567 1017.556548
L 695.03567 1003.290873
L 334.959586 1003.290873
z
" clip-path="url(#pcea0b1a9b2)" style="fill: #4daf4a"/>
   </g>
   <g id="patch_77">
    <path d="M 318.711189 1017.556548
L 334.940243 1017.556548
L 334.940243 1003.290873
L 318.711189 1003.290873
z
" clip-path="url(#pcea0b1a9b2)" style="fill: #d3d3d3"/>
   </g>
   <g id="patch_78">
    <path d="M 116.61208 1046.087897
L 339.776075 1046.087897
L 339.776075 1031.822222
L 116.61208 1031.822222
z
" clip-path="url(#pcea0b1a9b2)" style="fill: #377eb8"/>
   </g>
   <g id="patch_79">
    <path d="M 365.754167 1046.087897
L 695.03567 1046.087897
L 695.03567 1031.822222
L 365.754167 1031.822222
z
" clip-path="url(#pcea0b1a9b2)" style="fill: #4daf4a"/>
   </g>
   <g id="patch_80">
    <path d="M 339.795419 1046.087897
L 365.734824 1046.087897
L 365.734824 1031.822222
L 339.795419 1031.822222
z
" clip-path="url(#pcea0b1a9b2)" style="fill: #d3d3d3"/>
   </g>
   <g id="patch_81">
    <path d="M 116.61208 1074.619246
L 339.776075 1074.619246
L 339.776075 1060.353571
L 116.61208 1060.353571
z
" clip-path="url(#pcea0b1a9b2)" style="fill: #377eb8"/>
   </g>
   <g id="patch_82">
    <path d="M 365.754167 1074.619246
L 695.03567 1074.619246
L 695.03567 1060.353571
L 365.754167 1060.353571
z
" clip-path="url(#pcea0b1a9b2)" style="fill: #4daf4a"/>
   </g>
   <g id="patch_83">
    <path d="M 339.795419 1074.619246
L 365.734824 1074.619246
L 365.734824 1060.353571
L 339.795419 1060.353571
z
" clip-path="url(#pcea0b1a9b2)" style="fill: #d3d3d3"/>
   </g>
   <g id="patch_84">
    <path d="M 116.61208 1103.150595
L 339.814762 1103.150595
L 339.814762 1088.884921
L 116.61208 1088.884921
z
" clip-path="url(#pcea0b1a9b2)" style="fill: #377eb8"/>
   </g>
   <g id="patch_85">
    <path d="M 365.754167 1103.150595
L 695.03567 1103.150595
L 695.03567 1088.884921
L 365.754167 1088.884921
z
" clip-path="url(#pcea0b1a9b2)" style="fill: #4daf4a"/>
   </g>
   <g id="patch_86">
    <path d="M 339.834105 1103.150595
L 365.734824 1103.150595
L 365.734824 1088.884921
L 339.834105 1088.884921
z
" clip-path="url(#pcea0b1a9b2)" style="fill: #d3d3d3"/>
   </g>
   <g id="patch_87">
    <path d="M 116.61208 1131.681944
L 371.847316 1131.681944
L 371.847316 1117.41627
L 116.61208 1117.41627
z
" clip-path="url(#pcea0b1a9b2)" style="fill: #377eb8"/>
   </g>
   <g id="patch_88">
    <path d="M 420.573164 1131.681944
L 695.03567 1131.681944
L 695.03567 1117.41627
L 420.573164 1117.41627
z
" clip-path="url(#pcea0b1a9b2)" style="fill: #4daf4a"/>
   </g>
   <g id="patch_89">
    <path d="M 371.86666 1131.681944
L 420.553821 1131.681944
L 420.553821 1117.41627
L 371.86666 1117.41627
z
" clip-path="url(#pcea0b1a9b2)" style="fill: #d3d3d3"/>
   </g>
   <g id="patch_90">
    <path d="M 116.61208 1160.213294
L 371.847316 1160.213294
L 371.847316 1145.947619
L 116.61208 1145.947619
z
" clip-path="url(#pcea0b1a9b2)" style="fill: #377eb8"/>
   </g>
   <g id="patch_91">
    <path d="M 420.573164 1160.213294
L 695.03567 1160.213294
L 695.03567 1145.947619
L 420.573164 1145.947619
z
" clip-path="url(#pcea0b1a9b2)" style="fill: #4daf4a"/>
   </g>
   <g id="patch_92">
    <path d="M 371.86666 1160.213294
L 420.553821 1160.213294
L 420.553821 1145.947619
L 371.86666 1145.947619
z
" clip-path="url(#pcea0b1a9b2)" style="fill: #d3d3d3"/>
   </g>
   <g id="patch_93">
    <path d="M 116.61208 1188.744643
L 411.404426 1188.744643
L 411.404426 1174.478968
L 116.61208 1174.478968
z
" clip-path="url(#pcea0b1a9b2)" style="fill: #377eb8"/>
   </g>
   <g id="patch_94">
    <path d="M 420.573164 1188.744643
L 695.03567 1188.744643
L 695.03567 1174.478968
L 420.573164 1174.478968
z
" clip-path="url(#pcea0b1a9b2)" style="fill: #4daf4a"/>
   </g>
   <g id="patch_95">
    <path d="M 411.423769 1188.744643
L 420.553821 1188.744643
L 420.553821 1174.478968
L 411.423769 1174.478968
z
" clip-path="url(#pcea0b1a9b2)" style="fill: #d3d3d3"/>
   </g>
   <g id="patch_96">
    <path d="M 116.61208 1217.275992
L 420.553821 1217.275992
L 420.553821 1203.010317
L 116.61208 1203.010317
z
" clip-path="url(#pcea0b1a9b2)" style="fill: #377eb8"/>
   </g>
   <g id="patch_97">
    <path d="M 453.398795 1217.275992
L 695.03567 1217.275992
L 695.03567 1203.010317
L 453.398795 1203.010317
z
" clip-path="url(#pcea0b1a9b2)" style="fill: #4daf4a"/>
   </g>
   <g id="patch_98">
    <path d="M 420.573164 1217.275992
L 453.379451 1217.275992
L 453.379451 1203.010317
L 420.573164 1203.010317
z
" clip-path="url(#pcea0b1a9b2)" style="fill: #d3d3d3"/>
   </g>
   <g id="patch_99">
    <path d="M 116.61208 1245.807341
L 453.379451 1245.807341
L 453.379451 1231.541667
L 116.61208 1231.541667
z
" clip-path="url(#pcea0b1a9b2)" style="fill: #377eb8"/>
   </g>
   <g id="patch_100">
    <path d="M 502.608226 1245.807341
L 695.03567 1245.807341
L 695.03567 1231.541667
L 502.608226 1231.541667
z
" clip-path="url(#pcea0b1a9b2)" style="fill: #4daf4a"/>
   </g>
   <g id="patch_101">
    <path d="M 453.398795 1245.807341
L 502.588882 1245.807341
L 502.588882 1231.541667
L 453.398795 1231.541667
z
" clip-path="url(#pcea0b1a9b2)" style="fill: #d3d3d3"/>
   </g>
   <g id="patch_102">
    <path d="M 116.61208 1274.33869
L 453.379451 1274.33869
L 453.379451 1260.073016
L 116.61208 1260.073016
z
" clip-path="url(#pcea0b1a9b2)" style="fill: #377eb8"/>
   </g>
   <g id="patch_103">
    <path d="M 502.608226 1274.33869
L 695.03567 1274.33869
L 695.03567 1260.073016
L 502.608226 1260.073016
z
" clip-path="url(#pcea0b1a9b2)" style="fill: #4daf4a"/>
   </g>
   <g id="patch_104">
    <path d="M 453.398795 1274.33869
L 502.588882 1274.33869
L 502.588882 1260.073016
L 453.398795 1260.073016
z
" clip-path="url(#pcea0b1a9b2)" style="fill: #d3d3d3"/>
   </g>
   <g id="patch_105">
    <path d="M 116.61208 1302.87004
L 453.379451 1302.87004
L 453.379451 1288.604365
L 116.61208 1288.604365
z
" clip-path="url(#pcea0b1a9b2)" style="fill: #377eb8"/>
   </g>
   <g id="patch_106">
    <path d="M 502.608226 1302.87004
L 695.03567 1302.87004
L 695.03567 1288.604365
L 502.608226 1288.604365
z
" clip-path="url(#pcea0b1a9b2)" style="fill: #4daf4a"/>
   </g>
   <g id="patch_107">
    <path d="M 453.398795 1302.87004
L 502.588882 1302.87004
L 502.588882 1288.604365
L 453.398795 1288.604365
z
" clip-path="url(#pcea0b1a9b2)" style="fill: #d3d3d3"/>
   </g>
   <g id="patch_108">
    <path d="M 116.61208 1331.401389
L 453.379451 1331.401389
L 453.379451 1317.135714
L 116.61208 1317.135714
z
" clip-path="url(#pcea0b1a9b2)" style="fill: #377eb8"/>
   </g>
   <g id="patch_109">
    <path d="M 502.608226 1331.401389
L 695.03567 1331.401389
L 695.03567 1317.135714
L 502.608226 1317.135714
z
" clip-path="url(#pcea0b1a9b2)" style="fill: #4daf4a"/>
   </g>
   <g id="patch_110">
    <path d="M 453.398795 1331.401389
L 502.588882 1331.401389
L 502.588882 1317.135714
L 453.398795 1317.135714
z
" clip-path="url(#pcea0b1a9b2)" style="fill: #d3d3d3"/>
   </g>
   <g id="patch_111">
    <path d="M 116.61208 1359.932738
L 453.418138 1359.932738
L 453.418138 1345.667063
L 116.61208 1345.667063
z
" clip-path="url(#pcea0b1a9b2)" style="fill: #377eb8"/>
   </g>
   <g id="patch_112">
    <path d="M 502.588882 1359.932738
L 695.03567 1359.932738
L 695.03567 1345.667063
L 502.588882 1345.667063
z
" clip-path="url(#pcea0b1a9b2)" style="fill: #4daf4a"/>
   </g>
   <g id="patch_113">
    <path d="M 453.437481 1359.932738
L 502.569539 1359.932738
L 502.569539 1345.667063
L 453.437481 1345.667063
z
" clip-path="url(#pcea0b1a9b2)" style="fill: #d3d3d3"/>
   </g>
   <g id="patch_114">
    <path d="M 116.61208 1388.464087
L 504.523215 1388.464087
L 504.523215 1374.198413
L 116.61208 1374.198413
z
" clip-path="url(#pcea0b1a9b2)" style="fill: #377eb8"/>
   </g>
   <g id="patch_115">
    <path d="M 534.795526 1388.464087
L 695.03567 1388.464087
L 695.03567 1374.198413
L 534.795526 1374.198413
z
" clip-path="url(#pcea0b1a9b2)" style="fill: #4daf4a"/>
   </g>
   <g id="patch_116">
    <path d="M 504.542559 1388.464087
L 534.776183 1388.464087
L 534.776183 1374.198413
L 504.542559 1374.198413
z
" clip-path="url(#pcea0b1a9b2)" style="fill: #d3d3d3"/>
   </g>
   <g id="patch_117">
    <path d="M 116.61208 1416.995437
L 504.542559 1416.995437
L 504.542559 1402.729762
L 116.61208 1402.729762
z
" clip-path="url(#pcea0b1a9b2)" style="fill: #377eb8"/>
   </g>
   <g id="patch_118">
    <path d="M 534.776183 1416.995437
L 695.03567 1416.995437
L 695.03567 1402.729762
L 534.776183 1402.729762
z
" clip-path="url(#pcea0b1a9b2)" style="fill: #4daf4a"/>
   </g>
   <g id="patch_119">
    <path d="M 504.561902 1416.995437
L 534.75684 1416.995437
L 534.75684 1402.729762
L 504.561902 1402.729762
z
" clip-path="url(#pcea0b1a9b2)" style="fill: #d3d3d3"/>
   </g>
   <g id="patch_120">
    <path d="M 116.61208 1445.526786
L 646.309823 1445.526786
L 646.309823 1431.261111
L 116.61208 1431.261111
z
" clip-path="url(#pcea0b1a9b2)" style="fill: #377eb8"/>
   </g>
   <g id="patch_121">
    <path d="M 687.433742 1445.526786
L 695.03567 1445.526786
L 695.03567 1431.261111
L 687.433742 1431.261111
z
" clip-path="url(#pcea0b1a9b2)" style="fill: #4daf4a"/>
   </g>
   <g id="patch_122">
    <path d="M 646.329166 1445.526786
L 687.414398 1445.526786
L 687.414398 1431.261111
L 646.329166 1431.261111
z
" clip-path="url(#pcea0b1a9b2)" style="fill: #d3d3d3"/>
   </g>
   <g id="patch_123">
    <path d="M 278.960647 1474.058135
L 695.03567 1474.058135
L 695.03567 1459.79246
L 278.960647 1459.79246
z
" clip-path="url(#pcea0b1a9b2)" style="fill: #377eb8"/>
   </g>
   <g id="patch_124">
    <path d="M 116.61208 1474.058135
L 242.633873 1474.058135
L 242.633873 1459.79246
L 116.61208 1459.79246
z
" clip-path="url(#pcea0b1a9b2)" style="fill: #4daf4a"/>
   </g>
   <g id="patch_125">
    <path d="M 242.653217 1474.058135
L 278.941303 1474.058135
L 278.941303 1459.79246
L 242.653217 1459.79246
z
" clip-path="url(#pcea0b1a9b2)" style="fill: #d3d3d3"/>
   </g>
   <g id="patch_126">
    <path d="M 365.754167 1502.589484
L 695.03567 1502.589484
L 695.03567 1488.32381
L 365.754167 1488.32381
z
" clip-path="url(#pcea0b1a9b2)" style="fill: #377eb8"/>
   </g>
   <g id="patch_127">
    <path d="M 116.61208 1502.589484
L 339.776075 1502.589484
L 339.776075 1488.32381
L 116.61208 1488.32381
z
" clip-path="url(#pcea0b1a9b2)" style="fill: #4daf4a"/>
   </g>
   <g id="patch_128">
    <path d="M 339.795419 1502.589484
L 365.734824 1502.589484
L 365.734824 1488.32381
L 339.795419 1488.32381
z
" clip-path="url(#pcea0b1a9b2)" style="fill: #d3d3d3"/>
   </g>
   <g id="patch_129">
    <path d="M 467.964322 1531.120833
L 583.347284 1531.120833
L 583.347284 1516.855159
L 467.964322 1516.855159
z
" clip-path="url(#pcea0b1a9b2)" style="fill: #377eb8"/>
   </g>
   <g id="patch_130">
    <path d="M 116.61208 1531.120833
L 453.360108 1531.120833
L 453.360108 1516.855159
L 116.61208 1516.855159
z
" clip-path="url(#pcea0b1a9b2)" style="fill: #4daf4a"/>
   </g>
   <g id="patch_131">
    <path d="M 590.601033 1531.120833
L 695.03567 1531.120833
L 695.03567 1516.855159
L 590.601033 1516.855159
z
" clip-path="url(#pcea0b1a9b2)" style="fill: #4daf4a"/>
   </g>
   <g id="patch_132">
    <path d="M 453.379451 1531.120833
L 467.944979 1531.120833
L 467.944979 1516.855159
L 453.379451 1516.855159
z
" clip-path="url(#pcea0b1a9b2)" style="fill: #d3d3d3"/>
   </g>
   <g id="patch_133">
    <path d="M 583.366627 1531.120833
L 590.581689 1531.120833
L 590.581689 1516.855159
L 583.366627 1516.855159
z
" clip-path="url(#pcea0b1a9b2)" style="fill: #d3d3d3"/>
   </g>
   <g id="patch_134">
    <path d="M 620.486477 1559.652183
L 695.03567 1559.652183
L 695.03567 1545.386508
L 620.486477 1545.386508
z
" clip-path="url(#pcea0b1a9b2)" style="fill: #377eb8"/>
   </g>
   <g id="patch_135">
    <path d="M 116.61208 1559.652183
L 590.620376 1559.652183
L 590.620376 1545.386508
L 116.61208 1545.386508
z
" clip-path="url(#pcea0b1a9b2)" style="fill: #4daf4a"/>
   </g>
   <g id="patch_136">
    <path d="M 590.639719 1559.652183
L 620.467134 1559.652183
L 620.467134 1545.386508
L 590.639719 1545.386508
z
" clip-path="url(#pcea0b1a9b2)" style="fill: #d3d3d3"/>
   </g>
   <g id="patch_137">
    <path d="M 620.699254 1588.183532
L 695.03567 1588.183532
L 695.03567 1573.917857
L 620.699254 1573.917857
z
" clip-path="url(#pcea0b1a9b2)" style="fill: #377eb8"/>
   </g>
   <g id="patch_138">
    <path d="M 116.61208 1588.183532
L 590.581689 1588.183532
L 590.581689 1573.917857
L 116.61208 1573.917857
z
" clip-path="url(#pcea0b1a9b2)" style="fill: #4daf4a"/>
   </g>
   <g id="patch_139">
    <path d="M 590.601033 1588.183532
L 620.679911 1588.183532
L 620.679911 1573.917857
L 590.601033 1573.917857
z
" clip-path="url(#pcea0b1a9b2)" style="fill: #d3d3d3"/>
   </g>
   <g id="patch_140">
    <path d="M 620.699254 1616.714881
L 695.03567 1616.714881
L 695.03567 1602.449206
L 620.699254 1602.449206
z
" clip-path="url(#pcea0b1a9b2)" style="fill: #377eb8"/>
   </g>
   <g id="patch_141">
    <path d="M 116.61208 1616.714881
L 590.581689 1616.714881
L 590.581689 1602.449206
L 116.61208 1602.449206
z
" clip-path="url(#pcea0b1a9b2)" style="fill: #4daf4a"/>
   </g>
   <g id="patch_142">
    <path d="M 590.601033 1616.714881
L 620.679911 1616.714881
L 620.679911 1602.449206
L 590.601033 1602.449206
z
" clip-path="url(#pcea0b1a9b2)" style="fill: #d3d3d3"/>
   </g>
   <g id="patch_143">
    <path d="M 629.771276 1645.24623
L 695.03567 1645.24623
L 695.03567 1630.980556
L 629.771276 1630.980556
z
" clip-path="url(#pcea0b1a9b2)" style="fill: #377eb8"/>
   </g>
   <g id="patch_144">
    <path d="M 116.61208 1645.24623
L 620.718597 1645.24623
L 620.718597 1630.980556
L 116.61208 1630.980556
z
" clip-path="url(#pcea0b1a9b2)" style="fill: #4daf4a"/>
   </g>
   <g id="patch_145">
    <path d="M 620.737941 1645.24623
L 629.751932 1645.24623
L 629.751932 1630.980556
L 620.737941 1630.980556
z
" clip-path="url(#pcea0b1a9b2)" style="fill: #d3d3d3"/>
   </g>
   <g id="patch_146">
    <path d="M 629.771276 1673.777579
L 695.03567 1673.777579
L 695.03567 1659.511905
L 629.771276 1659.511905
z
" clip-path="url(#pcea0b1a9b2)" style="fill: #377eb8"/>
   </g>
   <g id="patch_147">
    <path d="M 116.61208 1673.777579
L 620.718597 1673.777579
L 620.718597 1659.511905
L 116.61208 1659.511905
z
" clip-path="url(#pcea0b1a9b2)" style="fill: #4daf4a"/>
   </g>
   <g id="patch_148">
    <path d="M 620.737941 1673.777579
L 629.751932 1673.777579
L 629.751932 1659.511905
L 620.737941 1659.511905
z
" clip-path="url(#pcea0b1a9b2)" style="fill: #d3d3d3"/>
   </g>
   <g id="patch_149">
    <path d="M 629.771276 1702.308929
L 695.03567 1702.308929
L 695.03567 1688.043254
L 629.771276 1688.043254
z
" clip-path="url(#pcea0b1a9b2)" style="fill: #377eb8"/>
   </g>
   <g id="patch_150">
    <path d="M 116.61208 1702.308929
L 620.737941 1702.308929
L 620.737941 1688.043254
L 116.61208 1688.043254
z
" clip-path="url(#pcea0b1a9b2)" style="fill: #4daf4a"/>
   </g>
   <g id="patch_151">
    <path d="M 620.757284 1702.308929
L 629.751932 1702.308929
L 629.751932 1688.043254
L 620.757284 1688.043254
z
" clip-path="url(#pcea0b1a9b2)" style="fill: #d3d3d3"/>
   </g>
   <g id="patch_152">
    <path d="M 629.771276 1730.840278
L 695.03567 1730.840278
L 695.03567 1716.574603
L 629.771276 1716.574603
z
" clip-path="url(#pcea0b1a9b2)" style="fill: #377eb8"/>
   </g>
   <g id="patch_153">
    <path d="M 116.61208 1730.840278
L 620.737941 1730.840278
L 620.737941 1716.574603
L 116.61208 1716.574603
z
" clip-path="url(#pcea0b1a9b2)" style="fill: #4daf4a"/>
   </g>
   <g id="patch_154">
    <path d="M 620.757284 1730.840278
L 629.751932 1730.840278
L 629.751932 1716.574603
L 620.757284 1716.574603
z
" clip-path="url(#pcea0b1a9b2)" style="fill: #d3d3d3"/>
   </g>
   <g id="patch_155">
    <path d="M 629.790619 1759.371627
L 695.03567 1759.371627
L 695.03567 1745.105952
L 629.790619 1745.105952
z
" clip-path="url(#pcea0b1a9b2)" style="fill: #377eb8"/>
   </g>
   <g id="patch_156">
    <path d="M 116.61208 1759.371627
L 620.699254 1759.371627
L 620.699254 1745.105952
L 116.61208 1745.105952
z
" clip-path="url(#pcea0b1a9b2)" style="fill: #4daf4a"/>
   </g>
   <g id="patch_157">
    <path d="M 620.718597 1759.371627
L 629.771276 1759.371627
L 629.771276 1745.105952
L 620.718597 1745.105952
z
" clip-path="url(#pcea0b1a9b2)" style="fill: #d3d3d3"/>
   </g>
   <g id="patch_158">
    <path d="M 646.271136 1787.902976
L 695.03567 1787.902976
L 695.03567 1773.637302
L 646.271136 1773.637302
z
" clip-path="url(#pcea0b1a9b2)" style="fill: #377eb8"/>
   </g>
   <g id="patch_159">
    <path d="M 116.61208 1787.902976
L 636.135231 1787.902976
L 636.135231 1773.637302
L 116.61208 1773.637302
z
" clip-path="url(#pcea0b1a9b2)" style="fill: #4daf4a"/>
   </g>
   <g id="patch_160">
    <path d="M 636.154574 1787.902976
L 646.251793 1787.902976
L 646.251793 1773.637302
L 636.154574 1773.637302
z
" clip-path="url(#pcea0b1a9b2)" style="fill: #d3d3d3"/>
   </g>
   <g id="patch_161">
    <path d="M 116.61208 1816.434325
L 538.083892 1816.434325
L 538.083892 1802.168651
L 116.61208 1802.168651
z
" clip-path="url(#pcea0b1a9b2)" style="fill: #4daf4a"/>
   </g>
   <g id="patch_162">
    <path d="M 557.485252 1816.434325
L 695.03567 1816.434325
L 695.03567 1802.168651
L 557.485252 1802.168651
z
" clip-path="url(#pcea0b1a9b2)" style="fill: #984ea3"/>
   </g>
   <g id="patch_163">
    <path d="M 538.103236 1816.434325
L 557.465909 1816.434325
L 557.465909 1802.168651
L 538.103236 1802.168651
z
" clip-path="url(#pcea0b1a9b2)" style="fill: #d3d3d3"/>
   </g>
   <g id="matplotlib.axis_3">
    <g id="xtick_8">
     <g id="line2d_8">
      <g>
       <use xlink:href="#me3412f41de" x="116.61208" y="1830.7" style="stroke: #000000; stroke-width: 0.8"/>
      </g>
     </g>
     <g id="text_1">
      <text style="font: 10px 'sans-serif'; text-anchor: middle" x="116.61208" y="1845.298438" transform="rotate(-0, 116.61208, 1845.298438)">0</text>
     </g>
    </g>
    <g id="xtick_9">
     <g id="line2d_9">
      <g>
       <use xlink:href="#me3412f41de" x="213.328729" y="1830.7" style="stroke: #000000; stroke-width: 0.8"/>
      </g>
     </g>
     <g id="text_2">
      <text style="font: 10px 'sans-serif'; text-anchor: middle" x="213.328729" y="1845.298438" transform="rotate(-0, 213.328729, 1845.298438)">5000</text>
     </g>
    </g>
    <g id="xtick_10">
     <g id="line2d_10">
      <g>
       <use xlink:href="#me3412f41de" x="310.045378" y="1830.7" style="stroke: #000000; stroke-width: 0.8"/>
      </g>
     </g>
     <g id="text_3">
      <text style="font: 10px 'sans-serif'; text-anchor: middle" x="310.045378" y="1845.298438" transform="rotate(-0, 310.045378, 1845.298438)">10000</text>
     </g>
    </g>
    <g id="xtick_11">
     <g id="line2d_11">
      <g>
       <use xlink:href="#me3412f41de" x="406.762026" y="1830.7" style="stroke: #000000; stroke-width: 0.8"/>
      </g>
     </g>
     <g id="text_4">
      <text style="font: 10px 'sans-serif'; text-anchor: middle" x="406.762026" y="1845.298438" transform="rotate(-0, 406.762026, 1845.298438)">15000</text>
     </g>
    </g>
    <g id="xtick_12">
     <g id="line2d_12">
      <g>
       <use xlink:href="#me3412f41de" x="503.478675" y="1830.7" style="stroke: #000000; stroke-width: 0.8"/>
      </g>
     </g>
     <g id="text_5">
      <text style="font: 10px 'sans-serif'; text-anchor: middle" x="503.478675" y="1845.298438" transform="rotate(-0, 503.478675, 1845.298438)">20000</text>
     </g>
    </g>
    <g id="xtick_13">
     <g id="line2d_13">
      <g>
       <use xlink:href="#me3412f41de" x="600.195324" y="1830.7" style="stroke: #000000; stroke-width: 0.8"/>
      </g>
     </g>
     <g id="text_6">
      <text style="font: 10px 'sans-serif'; text-anchor: middle" x="600.195324" y="1845.298438" transform="rotate(-0, 600.195324, 1845.298438)">25000</text>
     </g>
    </g>
    <g id="xtick_14">
     <g id="line2d_14">
      <g>
       <use xlink:href="#me3412f41de" x="696.911973" y="1830.7" style="stroke: #000000; stroke-width: 0.8"/>
      </g>
     </g>
     <g id="text_7">
      <text style="font: 10px 'sans-serif'; text-anchor: middle" x="696.911973" y="1845.298438" transform="rotate(-0, 696.911973, 1845.298438)">30000</text>
     </g>
    </g>
    <g id="text_8">
     <text style="font: 10px 'sans-serif'; text-anchor: middle" x="405.823875" y="1858.976563" transform="rotate(-0, 405.823875, 1858.976563)">Genomic Coordinate</text>
    </g>
   </g>
   <g id="matplotlib.axis_4">
    <g id="ytick_1">
     <g id="line2d_15">
      <defs>
       <path id="m948ce56052" d="M 0 0
L -3.5 0
" style="stroke: #000000; stroke-width: 0.8"/>
      </defs>
      <g>
       <use xlink:href="#m948ce56052" x="97.26875" y="354.202679" style="stroke: #000000; stroke-width: 0.8"/>
      </g>
     </g>
     <g id="text_9">
      <text style="font: 10px 'sans-serif'; text-anchor: end" x="90.26875" y="358.001897" transform="rotate(-0, 90.26875, 358.001897)">XF</text>
     </g>
    </g>
    <g id="ytick_2">
     <g id="line2d_16">
      <g>
       <use xlink:href="#m948ce56052" x="97.26875" y="382.734028" style="stroke: #000000; stroke-width: 0.8"/>
      </g>
     </g>
     <g id="text_10">
      <text style="font: 10px 'sans-serif'; text-anchor: end" x="90.26875" y="386.533247" transform="rotate(-0, 90.26875, 386.533247)">proposed446</text>
     </g>
    </g>
    <g id="ytick_3">
     <g id="line2d_17">
      <g>
       <use xlink:href="#m948ce56052" x="97.26875" y="411.265377" style="stroke: #000000; stroke-width: 0.8"/>
      </g>
     </g>
     <g id="text_11">
      <text style="font: 10px 'sans-serif'; text-anchor: end" x="90.26875" y="415.064596" transform="rotate(-0, 90.26875, 415.064596)">XS</text>
     </g>
    </g>
    <g id="ytick_4">
     <g id="line2d_18">
      <g>
       <use xlink:href="#m948ce56052" x="97.26875" y="439.796726" style="stroke: #000000; stroke-width: 0.8"/>
      </g>
     </g>
     <g id="text_12">
      <text style="font: 10px 'sans-serif'; text-anchor: end" x="90.26875" y="443.595945" transform="rotate(-0, 90.26875, 443.595945)">proposed519</text>
     </g>
    </g>
    <g id="ytick_5">
     <g id="line2d_19">
      <g>
       <use xlink:href="#m948ce56052" x="97.26875" y="468.328075" style="stroke: #000000; stroke-width: 0.8"/>
      </g>
     </g>
     <g id="text_13">
      <text style="font: 10px 'sans-serif'; text-anchor: end" x="90.26875" y="472.127294" transform="rotate(-0, 90.26875, 472.127294)">proposed476</text>
     </g>
    </g>
    <g id="ytick_6">
     <g id="line2d_20">
      <g>
       <use xlink:href="#m948ce56052" x="97.26875" y="496.859425" style="stroke: #000000; stroke-width: 0.8"/>
      </g>
     </g>
     <g id="text_14">
      <text style="font: 10px 'sans-serif'; text-anchor: end" x="90.26875" y="500.658643" transform="rotate(-0, 90.26875, 500.658643)">proposed441</text>
     </g>
    </g>
    <g id="ytick_7">
     <g id="line2d_21">
      <g>
       <use xlink:href="#m948ce56052" x="97.26875" y="525.390774" style="stroke: #000000; stroke-width: 0.8"/>
      </g>
     </g>
     <g id="text_15">
      <text style="font: 10px 'sans-serif'; text-anchor: end" x="90.26875" y="529.189993" transform="rotate(-0, 90.26875, 529.189993)">proposed484</text>
     </g>
    </g>
    <g id="ytick_8">
     <g id="line2d_22">
      <g>
       <use xlink:href="#m948ce56052" x="97.26875" y="553.922123" style="stroke: #000000; stroke-width: 0.8"/>
      </g>
     </g>
     <g id="text_16">
      <text style="font: 10px 'sans-serif'; text-anchor: end" x="90.26875" y="557.721342" transform="rotate(-0, 90.26875, 557.721342)">proposed439</text>
     </g>
    </g>
    <g id="ytick_9">
     <g id="line2d_23">
      <g>
       <use xlink:href="#m948ce56052" x="97.26875" y="582.453472" style="stroke: #000000; stroke-width: 0.8"/>
      </g>
     </g>
     <g id="text_17">
      <text style="font: 10px 'sans-serif'; text-anchor: end" x="90.26875" y="586.252691" transform="rotate(-0, 90.26875, 586.252691)">XD</text>
     </g>
    </g>
    <g id="ytick_10">
     <g id="line2d_24">
      <g>
       <use xlink:href="#m948ce56052" x="97.26875" y="610.984821" style="stroke: #000000; stroke-width: 0.8"/>
      </g>
     </g>
     <g id="text_18">
      <text style="font: 10px 'sans-serif'; text-anchor: end" x="90.26875" y="614.78404" transform="rotate(-0, 90.26875, 614.78404)">XN</text>
     </g>
    </g>
    <g id="ytick_11">
     <g id="line2d_25">
      <g>
       <use xlink:href="#m948ce56052" x="97.26875" y="639.516171" style="stroke: #000000; stroke-width: 0.8"/>
      </g>
     </g>
     <g id="text_19">
      <text style="font: 10px 'sans-serif'; text-anchor: end" x="90.26875" y="643.315389" transform="rotate(-0, 90.26875, 643.315389)">proposed591</text>
     </g>
    </g>
    <g id="ytick_12">
     <g id="line2d_26">
      <g>
       <use xlink:href="#m948ce56052" x="97.26875" y="668.04752" style="stroke: #000000; stroke-width: 0.8"/>
      </g>
     </g>
     <g id="text_20">
      <text style="font: 10px 'sans-serif'; text-anchor: end" x="90.26875" y="671.846739" transform="rotate(-0, 90.26875, 671.846739)">XQ</text>
     </g>
    </g>
    <g id="ytick_13">
     <g id="line2d_27">
      <g>
       <use xlink:href="#m948ce56052" x="97.26875" y="696.578869" style="stroke: #000000; stroke-width: 0.8"/>
      </g>
     </g>
     <g id="text_21">
      <text style="font: 10px 'sans-serif'; text-anchor: end" x="90.26875" y="700.378088" transform="rotate(-0, 90.26875, 700.378088)">XR</text>
     </g>
    </g>
    <g id="ytick_14">
     <g id="line2d_28">
      <g>
       <use xlink:href="#m948ce56052" x="97.26875" y="725.110218" style="stroke: #000000; stroke-width: 0.8"/>
      </g>
     </g>
     <g id="text_22">
      <text style="font: 10px 'sans-serif'; text-anchor: end" x="90.26875" y="728.909437" transform="rotate(-0, 90.26875, 728.909437)">XG</text>
     </g>
    </g>
    <g id="ytick_15">
     <g id="line2d_29">
      <g>
       <use xlink:href="#m948ce56052" x="97.26875" y="753.641567" style="stroke: #000000; stroke-width: 0.8"/>
      </g>
     </g>
     <g id="text_23">
      <text style="font: 10px 'sans-serif'; text-anchor: end" x="90.26875" y="757.440786" transform="rotate(-0, 90.26875, 757.440786)">XL</text>
     </g>
    </g>
    <g id="ytick_16">
     <g id="line2d_30">
      <g>
       <use xlink:href="#m948ce56052" x="97.26875" y="782.172917" style="stroke: #000000; stroke-width: 0.8"/>
      </g>
     </g>
     <g id="text_24">
      <text style="font: 10px 'sans-serif'; text-anchor: end" x="90.26875" y="785.972135" transform="rotate(-0, 90.26875, 785.972135)">proposed759</text>
     </g>
    </g>
    <g id="ytick_17">
     <g id="line2d_31">
      <g>
       <use xlink:href="#m948ce56052" x="97.26875" y="810.704266" style="stroke: #000000; stroke-width: 0.8"/>
      </g>
     </g>
     <g id="text_25">
      <text style="font: 10px 'sans-serif'; text-anchor: end" x="90.26875" y="814.503485" transform="rotate(-0, 90.26875, 814.503485)">XAB</text>
     </g>
    </g>
    <g id="ytick_18">
     <g id="line2d_32">
      <g>
       <use xlink:href="#m948ce56052" x="97.26875" y="839.235615" style="stroke: #000000; stroke-width: 0.8"/>
      </g>
     </g>
     <g id="text_26">
      <text style="font: 10px 'sans-serif'; text-anchor: end" x="90.26875" y="843.034834" transform="rotate(-0, 90.26875, 843.034834)">XU</text>
     </g>
    </g>
    <g id="ytick_19">
     <g id="line2d_33">
      <g>
       <use xlink:href="#m948ce56052" x="97.26875" y="867.766964" style="stroke: #000000; stroke-width: 0.8"/>
      </g>
     </g>
     <g id="text_27">
      <text style="font: 10px 'sans-serif'; text-anchor: end" x="90.26875" y="871.566183" transform="rotate(-0, 90.26875, 871.566183)">XAA</text>
     </g>
    </g>
    <g id="ytick_20">
     <g id="line2d_34">
      <g>
       <use xlink:href="#m948ce56052" x="97.26875" y="896.298313" style="stroke: #000000; stroke-width: 0.8"/>
      </g>
     </g>
     <g id="text_28">
      <text style="font: 10px 'sans-serif'; text-anchor: end" x="90.26875" y="900.097532" transform="rotate(-0, 90.26875, 900.097532)">proposed470</text>
     </g>
    </g>
    <g id="ytick_21">
     <g id="line2d_35">
      <g>
       <use xlink:href="#m948ce56052" x="97.26875" y="924.829663" style="stroke: #000000; stroke-width: 0.8"/>
      </g>
     </g>
     <g id="text_29">
      <text style="font: 10px 'sans-serif'; text-anchor: end" x="90.26875" y="928.628881" transform="rotate(-0, 90.26875, 928.628881)">proposed479</text>
     </g>
    </g>
    <g id="ytick_22">
     <g id="line2d_36">
      <g>
       <use xlink:href="#m948ce56052" x="97.26875" y="953.361012" style="stroke: #000000; stroke-width: 0.8"/>
      </g>
     </g>
     <g id="text_30">
      <text style="font: 10px 'sans-serif'; text-anchor: end" x="90.26875" y="957.160231" transform="rotate(-0, 90.26875, 957.160231)">XH</text>
     </g>
    </g>
    <g id="ytick_23">
     <g id="line2d_37">
      <g>
       <use xlink:href="#m948ce56052" x="97.26875" y="981.892361" style="stroke: #000000; stroke-width: 0.8"/>
      </g>
     </g>
     <g id="text_31">
      <text style="font: 10px 'sans-serif'; text-anchor: end" x="90.26875" y="985.69158" transform="rotate(-0, 90.26875, 985.69158)">XE</text>
     </g>
    </g>
    <g id="ytick_24">
     <g id="line2d_38">
      <g>
       <use xlink:href="#m948ce56052" x="97.26875" y="1010.42371" style="stroke: #000000; stroke-width: 0.8"/>
      </g>
     </g>
     <g id="text_32">
      <text style="font: 10px 'sans-serif'; text-anchor: end" x="90.26875" y="1014.222929" transform="rotate(-0, 90.26875, 1014.222929)">XAF</text>
     </g>
    </g>
    <g id="ytick_25">
     <g id="line2d_39">
      <g>
       <use xlink:href="#m948ce56052" x="97.26875" y="1038.95506" style="stroke: #000000; stroke-width: 0.8"/>
      </g>
     </g>
     <g id="text_33">
      <text style="font: 10px 'sans-serif'; text-anchor: end" x="90.26875" y="1042.754278" transform="rotate(-0, 90.26875, 1042.754278)">proposed518</text>
     </g>
    </g>
    <g id="ytick_26">
     <g id="line2d_40">
      <g>
       <use xlink:href="#m948ce56052" x="97.26875" y="1067.486409" style="stroke: #000000; stroke-width: 0.8"/>
      </g>
     </g>
     <g id="text_34">
      <text style="font: 10px 'sans-serif'; text-anchor: end" x="90.26875" y="1071.285627" transform="rotate(-0, 90.26875, 1071.285627)">proposed557</text>
     </g>
    </g>
    <g id="ytick_27">
     <g id="line2d_41">
      <g>
       <use xlink:href="#m948ce56052" x="97.26875" y="1096.017758" style="stroke: #000000; stroke-width: 0.8"/>
      </g>
     </g>
     <g id="text_35">
      <text style="font: 10px 'sans-serif'; text-anchor: end" x="90.26875" y="1099.816977" transform="rotate(-0, 90.26875, 1099.816977)">XY</text>
     </g>
    </g>
    <g id="ytick_28">
     <g id="line2d_42">
      <g>
       <use xlink:href="#m948ce56052" x="97.26875" y="1124.549107" style="stroke: #000000; stroke-width: 0.8"/>
      </g>
     </g>
     <g id="text_36">
      <text style="font: 10px 'sans-serif'; text-anchor: end" x="90.26875" y="1128.348326" transform="rotate(-0, 90.26875, 1128.348326)">XJ</text>
     </g>
    </g>
    <g id="ytick_29">
     <g id="line2d_43">
      <g>
       <use xlink:href="#m948ce56052" x="97.26875" y="1153.080456" style="stroke: #000000; stroke-width: 0.8"/>
      </g>
     </g>
     <g id="text_37">
      <text style="font: 10px 'sans-serif'; text-anchor: end" x="90.26875" y="1156.879675" transform="rotate(-0, 90.26875, 1156.879675)">proposed463</text>
     </g>
    </g>
    <g id="ytick_30">
     <g id="line2d_44">
      <g>
       <use xlink:href="#m948ce56052" x="97.26875" y="1181.611806" style="stroke: #000000; stroke-width: 0.8"/>
      </g>
     </g>
     <g id="text_38">
      <text style="font: 10px 'sans-serif'; text-anchor: end" x="90.26875" y="1185.411024" transform="rotate(-0, 90.26875, 1185.411024)">proposed467</text>
     </g>
    </g>
    <g id="ytick_31">
     <g id="line2d_45">
      <g>
       <use xlink:href="#m948ce56052" x="97.26875" y="1210.143155" style="stroke: #000000; stroke-width: 0.8"/>
      </g>
     </g>
     <g id="text_39">
      <text style="font: 10px 'sans-serif'; text-anchor: end" x="90.26875" y="1213.942374" transform="rotate(-0, 90.26875, 1213.942374)">proposed559</text>
     </g>
    </g>
    <g id="ytick_32">
     <g id="line2d_46">
      <g>
       <use xlink:href="#m948ce56052" x="97.26875" y="1238.674504" style="stroke: #000000; stroke-width: 0.8"/>
      </g>
     </g>
     <g id="text_40">
      <text style="font: 10px 'sans-serif'; text-anchor: end" x="90.26875" y="1242.473723" transform="rotate(-0, 90.26875, 1242.473723)">XK</text>
     </g>
    </g>
    <g id="ytick_33">
     <g id="line2d_47">
      <g>
       <use xlink:href="#m948ce56052" x="97.26875" y="1267.205853" style="stroke: #000000; stroke-width: 0.8"/>
      </g>
     </g>
     <g id="text_41">
      <text style="font: 10px 'sans-serif'; text-anchor: end" x="90.26875" y="1271.005072" transform="rotate(-0, 90.26875, 1271.005072)">XM</text>
     </g>
    </g>
    <g id="ytick_34">
     <g id="line2d_48">
      <g>
       <use xlink:href="#m948ce56052" x="97.26875" y="1295.737202" style="stroke: #000000; stroke-width: 0.8"/>
      </g>
     </g>
     <g id="text_42">
      <text style="font: 10px 'sans-serif'; text-anchor: end" x="90.26875" y="1299.536421" transform="rotate(-0, 90.26875, 1299.536421)">proposed781</text>
     </g>
    </g>
    <g id="ytick_35">
     <g id="line2d_49">
      <g>
       <use xlink:href="#m948ce56052" x="97.26875" y="1324.268552" style="stroke: #000000; stroke-width: 0.8"/>
      </g>
     </g>
     <g id="text_43">
      <text style="font: 10px 'sans-serif'; text-anchor: end" x="90.26875" y="1328.06777" transform="rotate(-0, 90.26875, 1328.06777)">proposed798</text>
     </g>
    </g>
    <g id="ytick_36">
     <g id="line2d_50">
      <g>
       <use xlink:href="#m948ce56052" x="97.26875" y="1352.799901" style="stroke: #000000; stroke-width: 0.8"/>
      </g>
     </g>
     <g id="text_44">
      <text style="font: 10px 'sans-serif'; text-anchor: end" x="90.26875" y="1356.59912" transform="rotate(-0, 90.26875, 1356.59912)">proposed757</text>
     </g>
    </g>
    <g id="ytick_37">
     <g id="line2d_51">
      <g>
       <use xlink:href="#m948ce56052" x="97.26875" y="1381.33125" style="stroke: #000000; stroke-width: 0.8"/>
      </g>
     </g>
     <g id="text_45">
      <text style="font: 10px 'sans-serif'; text-anchor: end" x="90.26875" y="1385.130469" transform="rotate(-0, 90.26875, 1385.130469)">proposed514</text>
     </g>
    </g>
    <g id="ytick_38">
     <g id="line2d_52">
      <g>
       <use xlink:href="#m948ce56052" x="97.26875" y="1409.862599" style="stroke: #000000; stroke-width: 0.8"/>
      </g>
     </g>
     <g id="text_46">
      <text style="font: 10px 'sans-serif'; text-anchor: end" x="90.26875" y="1413.661818" transform="rotate(-0, 90.26875, 1413.661818)">proposed477</text>
     </g>
    </g>
    <g id="ytick_39">
     <g id="line2d_53">
      <g>
       <use xlink:href="#m948ce56052" x="97.26875" y="1438.393948" style="stroke: #000000; stroke-width: 0.8"/>
      </g>
     </g>
     <g id="text_47">
      <text style="font: 10px 'sans-serif'; text-anchor: end" x="90.26875" y="1442.193167" transform="rotate(-0, 90.26875, 1442.193167)">XP</text>
     </g>
    </g>
    <g id="ytick_40">
     <g id="line2d_54">
      <g>
       <use xlink:href="#m948ce56052" x="97.26875" y="1466.925298" style="stroke: #000000; stroke-width: 0.8"/>
      </g>
     </g>
     <g id="text_48">
      <text style="font: 10px 'sans-serif'; text-anchor: end" x="90.26875" y="1470.724516" transform="rotate(-0, 90.26875, 1470.724516)">XAG</text>
     </g>
    </g>
    <g id="ytick_41">
     <g id="line2d_55">
      <g>
       <use xlink:href="#m948ce56052" x="97.26875" y="1495.456647" style="stroke: #000000; stroke-width: 0.8"/>
      </g>
     </g>
     <g id="text_49">
      <text style="font: 10px 'sans-serif'; text-anchor: end" x="90.26875" y="1499.255866" transform="rotate(-0, 90.26875, 1499.255866)">proposed513</text>
     </g>
    </g>
    <g id="ytick_42">
     <g id="line2d_56">
      <g>
       <use xlink:href="#m948ce56052" x="97.26875" y="1523.987996" style="stroke: #000000; stroke-width: 0.8"/>
      </g>
     </g>
     <g id="text_50">
      <text style="font: 10px 'sans-serif'; text-anchor: end" x="90.26875" y="1527.787215" transform="rotate(-0, 90.26875, 1527.787215)">proposed498</text>
     </g>
    </g>
    <g id="ytick_43">
     <g id="line2d_57">
      <g>
       <use xlink:href="#m948ce56052" x="97.26875" y="1552.519345" style="stroke: #000000; stroke-width: 0.8"/>
      </g>
     </g>
     <g id="text_51">
      <text style="font: 10px 'sans-serif'; text-anchor: end" x="90.26875" y="1556.318564" transform="rotate(-0, 90.26875, 1556.318564)">XAE</text>
     </g>
    </g>
    <g id="ytick_44">
     <g id="line2d_58">
      <g>
       <use xlink:href="#m948ce56052" x="97.26875" y="1581.050694" style="stroke: #000000; stroke-width: 0.8"/>
      </g>
     </g>
     <g id="text_52">
      <text style="font: 10px 'sans-serif'; text-anchor: end" x="90.26875" y="1584.849913" transform="rotate(-0, 90.26875, 1584.849913)">XAC</text>
     </g>
    </g>
    <g id="ytick_45">
     <g id="line2d_59">
      <g>
       <use xlink:href="#m948ce56052" x="97.26875" y="1609.582044" style="stroke: #000000; stroke-width: 0.8"/>
      </g>
     </g>
     <g id="text_53">
      <text style="font: 10px 'sans-serif'; text-anchor: end" x="90.26875" y="1613.381262" transform="rotate(-0, 90.26875, 1613.381262)">proposed608</text>
     </g>
    </g>
    <g id="ytick_46">
     <g id="line2d_60">
      <g>
       <use xlink:href="#m948ce56052" x="97.26875" y="1638.113393" style="stroke: #000000; stroke-width: 0.8"/>
      </g>
     </g>
     <g id="text_54">
      <text style="font: 10px 'sans-serif'; text-anchor: end" x="90.26875" y="1641.912612" transform="rotate(-0, 90.26875, 1641.912612)">XT</text>
     </g>
    </g>
    <g id="ytick_47">
     <g id="line2d_61">
      <g>
       <use xlink:href="#m948ce56052" x="97.26875" y="1666.644742" style="stroke: #000000; stroke-width: 0.8"/>
      </g>
     </g>
     <g id="text_55">
      <text style="font: 10px 'sans-serif'; text-anchor: end" x="90.26875" y="1670.443961" transform="rotate(-0, 90.26875, 1670.443961)">proposed482</text>
     </g>
    </g>
    <g id="ytick_48">
     <g id="line2d_62">
      <g>
       <use xlink:href="#m948ce56052" x="97.26875" y="1695.176091" style="stroke: #000000; stroke-width: 0.8"/>
      </g>
     </g>
     <g id="text_56">
      <text style="font: 10px 'sans-serif'; text-anchor: end" x="90.26875" y="1698.97531" transform="rotate(-0, 90.26875, 1698.97531)">XAD</text>
     </g>
    </g>
    <g id="ytick_49">
     <g id="line2d_63">
      <g>
       <use xlink:href="#m948ce56052" x="97.26875" y="1723.70744" style="stroke: #000000; stroke-width: 0.8"/>
      </g>
     </g>
     <g id="text_57">
      <text style="font: 10px 'sans-serif'; text-anchor: end" x="90.26875" y="1727.506659" transform="rotate(-0, 90.26875, 1727.506659)">proposed789</text>
     </g>
    </g>
    <g id="ytick_50">
     <g id="line2d_64">
      <g>
       <use xlink:href="#m948ce56052" x="97.26875" y="1752.23879" style="stroke: #000000; stroke-width: 0.8"/>
      </g>
     </g>
     <g id="text_58">
      <text style="font: 10px 'sans-serif'; text-anchor: end" x="90.26875" y="1756.038008" transform="rotate(-0, 90.26875, 1756.038008)">XZ</text>
     </g>
    </g>
    <g id="ytick_51">
     <g id="line2d_65">
      <g>
       <use xlink:href="#m948ce56052" x="97.26875" y="1780.770139" style="stroke: #000000; stroke-width: 0.8"/>
      </g>
     </g>
     <g id="text_59">
      <text style="font: 10px 'sans-serif'; text-anchor: end" x="90.26875" y="1784.569358" transform="rotate(-0, 90.26875, 1784.569358)">XAH</text>
     </g>
    </g>
    <g id="ytick_52">
     <g id="line2d_66">
      <g>
       <use xlink:href="#m948ce56052" x="97.26875" y="1809.301488" style="stroke: #000000; stroke-width: 0.8"/>
      </g>
     </g>
     <g id="text_60">
      <text style="font: 10px 'sans-serif'; text-anchor: end" x="90.26875" y="1813.100707" transform="rotate(-0, 90.26875, 1813.100707)">proposed771</text>
     </g>
    </g>
    <g id="text_61">
     <text style="font: 10px 'sans-serif'; text-anchor: middle" x="18.570313" y="1081.752083" transform="rotate(-90, 18.570313, 1081.752083)">Lineage</text>
    </g>
   </g>
   <g id="patch_164">
    <path d="M 97.26875 1830.7
L 97.26875 332.804167
" style="fill: none; stroke: #000000; stroke-width: 0.8; stroke-linejoin: miter; stroke-linecap: square"/>
   </g>
   <g id="patch_165">
    <path d="M 714.379 1830.7
L 714.379 332.804167
" style="fill: none; stroke: #000000; stroke-width: 0.8; stroke-linejoin: miter; stroke-linecap: square"/>
   </g>
   <g id="patch_166">
    <path d="M 97.26875 1830.7
L 714.379 1830.7
" style="fill: none; stroke: #000000; stroke-width: 0.8; stroke-linejoin: miter; stroke-linecap: square"/>
   </g>
   <g id="patch_167">
    <path d="M 97.26875 332.804167
L 714.379 332.804167
" style="fill: none; stroke: #000000; stroke-width: 0.8; stroke-linejoin: miter; stroke-linecap: square"/>
   </g>
   <g id="legend_1">
    <g id="patch_168">
     <path d="M 723.550102 430.872917
L 854.634477 430.872917
L 854.634477 335.804167
L 723.550102 335.804167
z
" style="fill: #ffffff; opacity: 0.8; stroke: #000000; stroke-linejoin: miter"/>
    </g>
    <g id="text_62">
     <text style="font: 10px 'sans-serif'; text-anchor: start" x="773.089946" y="349.402604" transform="rotate(-0, 773.089946, 349.402604)">Parent</text>
    </g>
    <g id="line2d_67">
     <path d="M 729.550102 360.580729
L 739.550102 360.580729
L 749.550102 360.580729
" style="fill: none; stroke: #e41a1c; stroke-width: 4; stroke-linecap: square"/>
    </g>
    <g id="text_63">
     <text style="font: 10px 'sans-serif'; text-anchor: start" x="757.550102" y="364.080729" transform="rotate(-0, 757.550102, 364.080729)">Delta/21J</text>
    </g>
    <g id="line2d_68">
     <path d="M 729.550102 375.258854
L 739.550102 375.258854
L 749.550102 375.258854
" style="fill: none; stroke: #377eb8; stroke-width: 4; stroke-linecap: square"/>
    </g>
    <g id="text_64">
     <text style="font: 10px 'sans-serif'; text-anchor: start" x="757.550102" y="378.758854" transform="rotate(-0, 757.550102, 378.758854)">Omicron/Ba.1/21K</text>
    </g>
    <g id="line2d_69">
     <path d="M 729.550102 389.936979
L 739.550102 389.936979
L 749.550102 389.936979
" style="fill: none; stroke: #4daf4a; stroke-width: 4; stroke-linecap: square"/>
    </g>
    <g id="text_65">
     <text style="font: 10px 'sans-serif'; text-anchor: start" x="757.550102" y="393.436979" transform="rotate(-0, 757.550102, 393.436979)">Omicron/Ba.2/21L</text>
    </g>
    <g id="line2d_70">
     <path d="M 729.550102 404.615104
L 739.550102 404.615104
L 749.550102 404.615104
" style="fill: none; stroke: #984ea3; stroke-width: 4; stroke-linecap: square"/>
    </g>
    <g id="text_66">
     <text style="font: 10px 'sans-serif'; text-anchor: start" x="757.550102" y="408.115104" transform="rotate(-0, 757.550102, 408.115104)">Omicron/Ba.5/22B</text>
    </g>
    <g id="line2d_71">
     <path d="M 729.550102 419.293229
L 739.550102 419.293229
L 749.550102 419.293229
" style="fill: none; stroke: #d3d3d3; stroke-width: 4; stroke-linecap: square"/>
    </g>
    <g id="text_67">
     <text style="font: 10px 'sans-serif'; text-anchor: start" x="757.550102" y="422.793229" transform="rotate(-0, 757.550102, 422.793229)">Breakpoint</text>
    </g>
   </g>
  </g>
  <g id="text_68">
   <text style="font: 12px 'sans-serif'; text-anchor: middle" x="432" y="46.558125" transform="rotate(-0, 432, 46.558125)">Recombination Breakpoints by Lineage</text>
  </g>
 </g>
 <defs>
  <clipPath id="pad7cc18fc0">
   <rect x="97.26875" y="33.225" width="617.11025" height="299.579167"/>
  </clipPath>
  <clipPath id="pcea0b1a9b2">
   <rect x="97.26875" y="332.804167" width="617.11025" height="1497.895833"/>
  </clipPath>
 </defs>
</svg>
